%TF.GenerationSoftware,KiCad,Pcbnew,5.1.10-6.fc34*%
%TF.CreationDate,2021-09-22T18:19:27+02:00*%
%TF.ProjectId,mowi,6d6f7769-2e6b-4696-9361-645f70636258,v1.0*%
%TF.SameCoordinates,Original*%
%TF.FileFunction,Soldermask,Top*%
%TF.FilePolarity,Negative*%
%FSLAX46Y46*%
G04 Gerber Fmt 4.6, Leading zero omitted, Abs format (unit mm)*
G04 Created by KiCad (PCBNEW 5.1.10-6.fc34) date 2021-09-22 18:19:27*
%MOMM*%
%LPD*%
G01*
G04 APERTURE LIST*
%ADD10R,1.000000X1.900000*%
%ADD11R,1.800000X1.900000*%
%ADD12R,1.650000X1.300000*%
%ADD13R,1.425000X1.550000*%
%ADD14R,0.450000X1.380000*%
%ADD15R,1.300000X1.000000*%
%ADD16R,0.900000X1.000000*%
%ADD17R,0.600000X0.800000*%
%ADD18R,1.700000X1.700000*%
%ADD19O,1.700000X1.700000*%
%ADD20C,1.348000*%
%ADD21C,0.600000*%
%ADD22R,1.300000X1.300000*%
%ADD23R,0.900000X2.000000*%
%ADD24R,2.400000X1.000000*%
%ADD25C,1.000000*%
%ADD26R,1.050000X1.050000*%
%ADD27R,1.050000X2.200000*%
%ADD28R,2.200000X1.050000*%
%ADD29C,2.250000*%
%ADD30C,2.050000*%
%ADD31C,5.700000*%
G04 APERTURE END LIST*
D10*
%TO.C,J7*%
X150450000Y-64690000D03*
D11*
X153150000Y-64690000D03*
D12*
X148625000Y-64690000D03*
X155375000Y-64690000D03*
D13*
X149512500Y-67265000D03*
X154487500Y-67265000D03*
D14*
X150700000Y-67350000D03*
X151350000Y-67350000D03*
X152000000Y-67350000D03*
X152650000Y-67350000D03*
X153300000Y-67350000D03*
%TD*%
D15*
%TO.C,SW1*%
X145350000Y-107450000D03*
X145350000Y-105700000D03*
X145350000Y-103950000D03*
X140050000Y-107450000D03*
X140050000Y-105700000D03*
X140050000Y-103950000D03*
%TD*%
D16*
%TO.C,D7*%
X111450000Y-102100000D03*
X111450000Y-99100000D03*
D17*
X111600000Y-100600000D03*
%TD*%
D16*
%TO.C,D6*%
X111450000Y-96360000D03*
X111450000Y-93360000D03*
D17*
X111600000Y-94860000D03*
%TD*%
D16*
%TO.C,D5*%
X111450000Y-90620000D03*
X111450000Y-87620000D03*
D17*
X111600000Y-89120000D03*
%TD*%
D16*
%TO.C,D4*%
X111450000Y-84880000D03*
X111450000Y-81880000D03*
D17*
X111600000Y-83380000D03*
%TD*%
D16*
%TO.C,D3*%
X111450000Y-79140000D03*
X111450000Y-76140000D03*
D17*
X111600000Y-77640000D03*
%TD*%
D16*
%TO.C,D2*%
X111450000Y-73400000D03*
X111450000Y-70400000D03*
D17*
X111600000Y-71900000D03*
%TD*%
D18*
%TO.C,J10*%
X164510000Y-73715000D03*
D19*
X164510000Y-71175000D03*
X167050000Y-73715000D03*
X167050000Y-71175000D03*
X169590000Y-73715000D03*
X169590000Y-71175000D03*
%TD*%
D18*
%TO.C,J8*%
X151810000Y-73715000D03*
D19*
X151810000Y-71175000D03*
X154350000Y-73715000D03*
X154350000Y-71175000D03*
X156890000Y-73715000D03*
X156890000Y-71175000D03*
%TD*%
D20*
%TO.C,J5*%
X121710000Y-106635000D03*
X119170000Y-106635000D03*
X119170000Y-109175000D03*
X121710000Y-109175000D03*
X120440000Y-107905000D03*
%TD*%
%TO.C,J3*%
X135620000Y-106635000D03*
X133080000Y-106635000D03*
X133080000Y-109175000D03*
X135620000Y-109175000D03*
X134350000Y-107905000D03*
%TD*%
D21*
%TO.C,U23*%
X116780000Y-100220000D03*
X118050000Y-100220000D03*
X119320000Y-100220000D03*
X120590000Y-100220000D03*
X121860000Y-100220000D03*
X123130000Y-100220000D03*
X124400000Y-100220000D03*
X125670000Y-100220000D03*
X126940000Y-100220000D03*
X128210000Y-100220000D03*
X129480000Y-100220000D03*
X130750000Y-100220000D03*
X132020000Y-100220000D03*
X133290000Y-100220000D03*
X134560000Y-100220000D03*
X135830000Y-100220000D03*
X137100000Y-100220000D03*
X138370000Y-100220000D03*
X139640000Y-100220000D03*
X140910000Y-100220000D03*
X142180000Y-100220000D03*
X143450000Y-100220000D03*
X144720000Y-100220000D03*
X116780000Y-98950000D03*
X118050000Y-98950000D03*
X119320000Y-98950000D03*
X120590000Y-98950000D03*
X121860000Y-98950000D03*
X123130000Y-98950000D03*
X124400000Y-98950000D03*
X125670000Y-98950000D03*
X126940000Y-98950000D03*
X128210000Y-98950000D03*
X129480000Y-98950000D03*
X130750000Y-98950000D03*
X132020000Y-98950000D03*
X133290000Y-98950000D03*
X134560000Y-98950000D03*
X135830000Y-98950000D03*
X137100000Y-98950000D03*
X138370000Y-98950000D03*
X139640000Y-98950000D03*
X140910000Y-98950000D03*
X142180000Y-98950000D03*
X143450000Y-98950000D03*
X144720000Y-98950000D03*
X116780000Y-97680000D03*
X118050000Y-97680000D03*
X119320000Y-97680000D03*
X120590000Y-97680000D03*
X121860000Y-97680000D03*
X123130000Y-97680000D03*
X124400000Y-97680000D03*
X125670000Y-97680000D03*
X126940000Y-97680000D03*
X128210000Y-97680000D03*
X129480000Y-97680000D03*
X130750000Y-97680000D03*
X132020000Y-97680000D03*
X133290000Y-97680000D03*
X134560000Y-97680000D03*
X135830000Y-97680000D03*
X137100000Y-97680000D03*
X138370000Y-97680000D03*
X139640000Y-97680000D03*
X140910000Y-97680000D03*
X142180000Y-97680000D03*
X143450000Y-97680000D03*
X144720000Y-97680000D03*
X116780000Y-96410000D03*
X118050000Y-96410000D03*
X119320000Y-96410000D03*
X142180000Y-96410000D03*
X143450000Y-96410000D03*
X144720000Y-96410000D03*
X116780000Y-95140000D03*
X118050000Y-95140000D03*
X119320000Y-95140000D03*
X142180000Y-95140000D03*
X143450000Y-95140000D03*
X144720000Y-95140000D03*
X116780000Y-93870000D03*
X118050000Y-93870000D03*
X119320000Y-93870000D03*
X142180000Y-93870000D03*
X143450000Y-93870000D03*
X144720000Y-93870000D03*
X116780000Y-92600000D03*
X118050000Y-92600000D03*
X119320000Y-92600000D03*
X142180000Y-92600000D03*
X143450000Y-92600000D03*
X144720000Y-92600000D03*
X116780000Y-91330000D03*
X118050000Y-91330000D03*
X119320000Y-91330000D03*
X142180000Y-91330000D03*
X143450000Y-91330000D03*
X144720000Y-91330000D03*
X116780000Y-90060000D03*
X118050000Y-90060000D03*
X119320000Y-90060000D03*
X142180000Y-90060000D03*
X143450000Y-90060000D03*
X144720000Y-90060000D03*
X116780000Y-88790000D03*
X118050000Y-88790000D03*
X119320000Y-88790000D03*
X142180000Y-88790000D03*
X143450000Y-88790000D03*
X144720000Y-88790000D03*
X116780000Y-87520000D03*
X118050000Y-87520000D03*
X119320000Y-87520000D03*
X142180000Y-87520000D03*
X143450000Y-87520000D03*
X144720000Y-87520000D03*
X116780000Y-86250000D03*
X118050000Y-86250000D03*
X119320000Y-86250000D03*
X142180000Y-86250000D03*
X143450000Y-86250000D03*
X144720000Y-86250000D03*
X116780000Y-84980000D03*
X118050000Y-84980000D03*
X119320000Y-84980000D03*
X142180000Y-84980000D03*
X143450000Y-84980000D03*
X144720000Y-84980000D03*
X116780000Y-83710000D03*
X118050000Y-83710000D03*
X119320000Y-83710000D03*
X142180000Y-83710000D03*
X143450000Y-83710000D03*
X144720000Y-83710000D03*
X116780000Y-82440000D03*
X118050000Y-82440000D03*
X119320000Y-82440000D03*
X142180000Y-82440000D03*
X143450000Y-82440000D03*
X144720000Y-82440000D03*
X116780000Y-81170000D03*
X118050000Y-81170000D03*
X119320000Y-81170000D03*
X142180000Y-81170000D03*
X143450000Y-81170000D03*
X144720000Y-81170000D03*
X116780000Y-79900000D03*
X118050000Y-79900000D03*
X119320000Y-79900000D03*
X142180000Y-79900000D03*
X143450000Y-79900000D03*
X144720000Y-79900000D03*
X116780000Y-78630000D03*
X118050000Y-78630000D03*
X119320000Y-78630000D03*
X142180000Y-78630000D03*
X143450000Y-78630000D03*
X144720000Y-78630000D03*
X116780000Y-77360000D03*
X118050000Y-77360000D03*
X119320000Y-77360000D03*
X142180000Y-77360000D03*
X143450000Y-77360000D03*
X144720000Y-77360000D03*
X116780000Y-76090000D03*
X118050000Y-76090000D03*
X119320000Y-76090000D03*
X142180000Y-76090000D03*
X143450000Y-76090000D03*
X144720000Y-76090000D03*
X116780000Y-74820000D03*
X118050000Y-74820000D03*
X119320000Y-74820000D03*
X120590000Y-74820000D03*
X121860000Y-74820000D03*
X123130000Y-74820000D03*
X124400000Y-74820000D03*
X125670000Y-74820000D03*
X126940000Y-74820000D03*
X128210000Y-74820000D03*
X129480000Y-74820000D03*
X130750000Y-74820000D03*
X132020000Y-74820000D03*
X133290000Y-74820000D03*
X134560000Y-74820000D03*
X135830000Y-74820000D03*
X137100000Y-74820000D03*
X138370000Y-74820000D03*
X139640000Y-74820000D03*
X140910000Y-74820000D03*
X142180000Y-74820000D03*
X143450000Y-74820000D03*
X144720000Y-74820000D03*
X116780000Y-73550000D03*
X118050000Y-73550000D03*
X119320000Y-73550000D03*
X120590000Y-73550000D03*
X121860000Y-73550000D03*
X123130000Y-73550000D03*
X124400000Y-73550000D03*
X125670000Y-73550000D03*
X126940000Y-73550000D03*
X128210000Y-73550000D03*
X129480000Y-73550000D03*
X130750000Y-73550000D03*
X132020000Y-73550000D03*
X133290000Y-73550000D03*
X134560000Y-73550000D03*
X135830000Y-73550000D03*
X137100000Y-73550000D03*
X138370000Y-73550000D03*
X139640000Y-73550000D03*
X140910000Y-73550000D03*
X142180000Y-73550000D03*
X143450000Y-73550000D03*
X144720000Y-73550000D03*
X116780000Y-72280000D03*
X118050000Y-72280000D03*
X119320000Y-72280000D03*
X120590000Y-72280000D03*
X121860000Y-72280000D03*
X123130000Y-72280000D03*
X124400000Y-72280000D03*
X125670000Y-72280000D03*
X126940000Y-72280000D03*
X128210000Y-72280000D03*
X129480000Y-72280000D03*
X130750000Y-72280000D03*
X132020000Y-72280000D03*
X133290000Y-72280000D03*
X134560000Y-72280000D03*
X135830000Y-72280000D03*
X137100000Y-72280000D03*
X138370000Y-72280000D03*
X139640000Y-72280000D03*
X140910000Y-72280000D03*
X142180000Y-72280000D03*
X143450000Y-72280000D03*
%TD*%
D22*
%TO.C,U1*%
X166865000Y-87085000D03*
X166865000Y-85250000D03*
X166865000Y-83415000D03*
X165030000Y-87085000D03*
X165030000Y-85250000D03*
X165030000Y-83415000D03*
X163195000Y-87085000D03*
X163195000Y-85250000D03*
X163195000Y-83415000D03*
D23*
X172530000Y-77750000D03*
X171260000Y-77750000D03*
X169990000Y-77750000D03*
X168720000Y-77750000D03*
X167450000Y-77750000D03*
X166180000Y-77750000D03*
X164910000Y-77750000D03*
X163640000Y-77750000D03*
X162370000Y-77750000D03*
X161100000Y-77750000D03*
X159830000Y-77750000D03*
X158560000Y-77750000D03*
X157290000Y-77750000D03*
X156020000Y-77750000D03*
X154750000Y-77750000D03*
X153480000Y-77750000D03*
X152210000Y-77750000D03*
X150940000Y-77750000D03*
X149670000Y-77750000D03*
X149670000Y-94750000D03*
X150940000Y-94750000D03*
X152210000Y-94750000D03*
X153480000Y-94750000D03*
X154750000Y-94750000D03*
X156020000Y-94750000D03*
X157290000Y-94750000D03*
X158560000Y-94750000D03*
X159830000Y-94750000D03*
X161100000Y-94750000D03*
X162370000Y-94750000D03*
X163640000Y-94750000D03*
X164910000Y-94750000D03*
X166180000Y-94750000D03*
X167450000Y-94750000D03*
X168720000Y-94750000D03*
X169990000Y-94750000D03*
X171260000Y-94750000D03*
X172530000Y-94750000D03*
%TD*%
D24*
%TO.C,SW3*%
X155550000Y-105700000D03*
X148950000Y-105700000D03*
%TD*%
%TO.C,SW2*%
X155550000Y-99500000D03*
X148950000Y-99500000D03*
%TD*%
D25*
%TO.C,FID3*%
X172530000Y-102720000D03*
%TD*%
%TO.C,FID2*%
X117000000Y-63500000D03*
%TD*%
%TO.C,FID1*%
X173780000Y-68720000D03*
%TD*%
D26*
%TO.C,J4*%
X129900000Y-106375000D03*
D27*
X128425000Y-107900000D03*
X131375000Y-107900000D03*
%TD*%
D26*
%TO.C,J6*%
X124900000Y-106375000D03*
D27*
X123425000Y-107900000D03*
X126375000Y-107900000D03*
%TD*%
D26*
%TO.C,J1*%
X170175000Y-98825000D03*
D28*
X171700000Y-100300000D03*
X171700000Y-97350000D03*
%TD*%
%TO.C,R14*%
G36*
G01*
X130085000Y-104430000D02*
X129715000Y-104430000D01*
G75*
G02*
X129580000Y-104295000I0J135000D01*
G01*
X129580000Y-104025000D01*
G75*
G02*
X129715000Y-103890000I135000J0D01*
G01*
X130085000Y-103890000D01*
G75*
G02*
X130220000Y-104025000I0J-135000D01*
G01*
X130220000Y-104295000D01*
G75*
G02*
X130085000Y-104430000I-135000J0D01*
G01*
G37*
G36*
G01*
X130085000Y-105450000D02*
X129715000Y-105450000D01*
G75*
G02*
X129580000Y-105315000I0J135000D01*
G01*
X129580000Y-105045000D01*
G75*
G02*
X129715000Y-104910000I135000J0D01*
G01*
X130085000Y-104910000D01*
G75*
G02*
X130220000Y-105045000I0J-135000D01*
G01*
X130220000Y-105315000D01*
G75*
G02*
X130085000Y-105450000I-135000J0D01*
G01*
G37*
%TD*%
%TO.C,R13*%
G36*
G01*
X130170000Y-103975000D02*
X130170000Y-104345000D01*
G75*
G02*
X130035000Y-104480000I-135000J0D01*
G01*
X129765000Y-104480000D01*
G75*
G02*
X129630000Y-104345000I0J135000D01*
G01*
X129630000Y-103975000D01*
G75*
G02*
X129765000Y-103840000I135000J0D01*
G01*
X130035000Y-103840000D01*
G75*
G02*
X130170000Y-103975000I0J-135000D01*
G01*
G37*
G36*
G01*
X131190000Y-103975000D02*
X131190000Y-104345000D01*
G75*
G02*
X131055000Y-104480000I-135000J0D01*
G01*
X130785000Y-104480000D01*
G75*
G02*
X130650000Y-104345000I0J135000D01*
G01*
X130650000Y-103975000D01*
G75*
G02*
X130785000Y-103840000I135000J0D01*
G01*
X131055000Y-103840000D01*
G75*
G02*
X131190000Y-103975000I0J-135000D01*
G01*
G37*
%TD*%
%TO.C,R16*%
G36*
G01*
X120710000Y-104085000D02*
X120710000Y-104455000D01*
G75*
G02*
X120575000Y-104590000I-135000J0D01*
G01*
X120305000Y-104590000D01*
G75*
G02*
X120170000Y-104455000I0J135000D01*
G01*
X120170000Y-104085000D01*
G75*
G02*
X120305000Y-103950000I135000J0D01*
G01*
X120575000Y-103950000D01*
G75*
G02*
X120710000Y-104085000I0J-135000D01*
G01*
G37*
G36*
G01*
X121730000Y-104085000D02*
X121730000Y-104455000D01*
G75*
G02*
X121595000Y-104590000I-135000J0D01*
G01*
X121325000Y-104590000D01*
G75*
G02*
X121190000Y-104455000I0J135000D01*
G01*
X121190000Y-104085000D01*
G75*
G02*
X121325000Y-103950000I135000J0D01*
G01*
X121595000Y-103950000D01*
G75*
G02*
X121730000Y-104085000I0J-135000D01*
G01*
G37*
%TD*%
%TO.C,R15*%
G36*
G01*
X120625000Y-104540000D02*
X120255000Y-104540000D01*
G75*
G02*
X120120000Y-104405000I0J135000D01*
G01*
X120120000Y-104135000D01*
G75*
G02*
X120255000Y-104000000I135000J0D01*
G01*
X120625000Y-104000000D01*
G75*
G02*
X120760000Y-104135000I0J-135000D01*
G01*
X120760000Y-104405000D01*
G75*
G02*
X120625000Y-104540000I-135000J0D01*
G01*
G37*
G36*
G01*
X120625000Y-105560000D02*
X120255000Y-105560000D01*
G75*
G02*
X120120000Y-105425000I0J135000D01*
G01*
X120120000Y-105155000D01*
G75*
G02*
X120255000Y-105020000I135000J0D01*
G01*
X120625000Y-105020000D01*
G75*
G02*
X120760000Y-105155000I0J-135000D01*
G01*
X120760000Y-105425000D01*
G75*
G02*
X120625000Y-105560000I-135000J0D01*
G01*
G37*
%TD*%
%TO.C,L2*%
G36*
G01*
X126850000Y-103756250D02*
X126850000Y-103243750D01*
G75*
G02*
X127068750Y-103025000I218750J0D01*
G01*
X127506250Y-103025000D01*
G75*
G02*
X127725000Y-103243750I0J-218750D01*
G01*
X127725000Y-103756250D01*
G75*
G02*
X127506250Y-103975000I-218750J0D01*
G01*
X127068750Y-103975000D01*
G75*
G02*
X126850000Y-103756250I0J218750D01*
G01*
G37*
G36*
G01*
X125275000Y-103756250D02*
X125275000Y-103243750D01*
G75*
G02*
X125493750Y-103025000I218750J0D01*
G01*
X125931250Y-103025000D01*
G75*
G02*
X126150000Y-103243750I0J-218750D01*
G01*
X126150000Y-103756250D01*
G75*
G02*
X125931250Y-103975000I-218750J0D01*
G01*
X125493750Y-103975000D01*
G75*
G02*
X125275000Y-103756250I0J218750D01*
G01*
G37*
%TD*%
%TO.C,L1*%
G36*
G01*
X118350000Y-103756250D02*
X118350000Y-103243750D01*
G75*
G02*
X118568750Y-103025000I218750J0D01*
G01*
X119006250Y-103025000D01*
G75*
G02*
X119225000Y-103243750I0J-218750D01*
G01*
X119225000Y-103756250D01*
G75*
G02*
X119006250Y-103975000I-218750J0D01*
G01*
X118568750Y-103975000D01*
G75*
G02*
X118350000Y-103756250I0J218750D01*
G01*
G37*
G36*
G01*
X116775000Y-103756250D02*
X116775000Y-103243750D01*
G75*
G02*
X116993750Y-103025000I218750J0D01*
G01*
X117431250Y-103025000D01*
G75*
G02*
X117650000Y-103243750I0J-218750D01*
G01*
X117650000Y-103756250D01*
G75*
G02*
X117431250Y-103975000I-218750J0D01*
G01*
X116993750Y-103975000D01*
G75*
G02*
X116775000Y-103756250I0J218750D01*
G01*
G37*
%TD*%
%TO.C,D1*%
G36*
G01*
X128607500Y-104835000D02*
X128952500Y-104835000D01*
G75*
G02*
X129100000Y-104982500I0J-147500D01*
G01*
X129100000Y-105277500D01*
G75*
G02*
X128952500Y-105425000I-147500J0D01*
G01*
X128607500Y-105425000D01*
G75*
G02*
X128460000Y-105277500I0J147500D01*
G01*
X128460000Y-104982500D01*
G75*
G02*
X128607500Y-104835000I147500J0D01*
G01*
G37*
G36*
G01*
X128607500Y-103865000D02*
X128952500Y-103865000D01*
G75*
G02*
X129100000Y-104012500I0J-147500D01*
G01*
X129100000Y-104307500D01*
G75*
G02*
X128952500Y-104455000I-147500J0D01*
G01*
X128607500Y-104455000D01*
G75*
G02*
X128460000Y-104307500I0J147500D01*
G01*
X128460000Y-104012500D01*
G75*
G02*
X128607500Y-103865000I147500J0D01*
G01*
G37*
%TD*%
%TO.C,C8*%
G36*
G01*
X124080000Y-104180000D02*
X124420000Y-104180000D01*
G75*
G02*
X124560000Y-104320000I0J-140000D01*
G01*
X124560000Y-104600000D01*
G75*
G02*
X124420000Y-104740000I-140000J0D01*
G01*
X124080000Y-104740000D01*
G75*
G02*
X123940000Y-104600000I0J140000D01*
G01*
X123940000Y-104320000D01*
G75*
G02*
X124080000Y-104180000I140000J0D01*
G01*
G37*
G36*
G01*
X124080000Y-103220000D02*
X124420000Y-103220000D01*
G75*
G02*
X124560000Y-103360000I0J-140000D01*
G01*
X124560000Y-103640000D01*
G75*
G02*
X124420000Y-103780000I-140000J0D01*
G01*
X124080000Y-103780000D01*
G75*
G02*
X123940000Y-103640000I0J140000D01*
G01*
X123940000Y-103360000D01*
G75*
G02*
X124080000Y-103220000I140000J0D01*
G01*
G37*
%TD*%
D29*
%TO.C,J2*%
X160085000Y-107470000D03*
X160085000Y-102390000D03*
X165165000Y-102390000D03*
X165165000Y-107470000D03*
D30*
X162625000Y-104930000D03*
%TD*%
%TO.C,J11*%
G36*
G01*
X161525000Y-62750000D02*
X161525000Y-64950000D01*
G75*
G02*
X161275000Y-65200000I-250000J0D01*
G01*
X160775000Y-65200000D01*
G75*
G02*
X160525000Y-64950000I0J250000D01*
G01*
X160525000Y-62750000D01*
G75*
G02*
X160775000Y-62500000I250000J0D01*
G01*
X161275000Y-62500000D01*
G75*
G02*
X161525000Y-62750000I0J-250000D01*
G01*
G37*
G36*
G01*
X171475000Y-62750000D02*
X171475000Y-64950000D01*
G75*
G02*
X171225000Y-65200000I-250000J0D01*
G01*
X170725000Y-65200000D01*
G75*
G02*
X170475000Y-64950000I0J250000D01*
G01*
X170475000Y-62750000D01*
G75*
G02*
X170725000Y-62500000I250000J0D01*
G01*
X171225000Y-62500000D01*
G75*
G02*
X171475000Y-62750000I0J-250000D01*
G01*
G37*
G36*
G01*
X163175000Y-66350000D02*
X163175000Y-67750000D01*
G75*
G02*
X163025000Y-67900000I-150000J0D01*
G01*
X162725000Y-67900000D01*
G75*
G02*
X162575000Y-67750000I0J150000D01*
G01*
X162575000Y-66350000D01*
G75*
G02*
X162725000Y-66200000I150000J0D01*
G01*
X163025000Y-66200000D01*
G75*
G02*
X163175000Y-66350000I0J-150000D01*
G01*
G37*
G36*
G01*
X164425000Y-66350000D02*
X164425000Y-67750000D01*
G75*
G02*
X164275000Y-67900000I-150000J0D01*
G01*
X163975000Y-67900000D01*
G75*
G02*
X163825000Y-67750000I0J150000D01*
G01*
X163825000Y-66350000D01*
G75*
G02*
X163975000Y-66200000I150000J0D01*
G01*
X164275000Y-66200000D01*
G75*
G02*
X164425000Y-66350000I0J-150000D01*
G01*
G37*
G36*
G01*
X165675000Y-66350000D02*
X165675000Y-67750000D01*
G75*
G02*
X165525000Y-67900000I-150000J0D01*
G01*
X165225000Y-67900000D01*
G75*
G02*
X165075000Y-67750000I0J150000D01*
G01*
X165075000Y-66350000D01*
G75*
G02*
X165225000Y-66200000I150000J0D01*
G01*
X165525000Y-66200000D01*
G75*
G02*
X165675000Y-66350000I0J-150000D01*
G01*
G37*
G36*
G01*
X166925000Y-66350000D02*
X166925000Y-67750000D01*
G75*
G02*
X166775000Y-67900000I-150000J0D01*
G01*
X166475000Y-67900000D01*
G75*
G02*
X166325000Y-67750000I0J150000D01*
G01*
X166325000Y-66350000D01*
G75*
G02*
X166475000Y-66200000I150000J0D01*
G01*
X166775000Y-66200000D01*
G75*
G02*
X166925000Y-66350000I0J-150000D01*
G01*
G37*
G36*
G01*
X168175000Y-66350000D02*
X168175000Y-67750000D01*
G75*
G02*
X168025000Y-67900000I-150000J0D01*
G01*
X167725000Y-67900000D01*
G75*
G02*
X167575000Y-67750000I0J150000D01*
G01*
X167575000Y-66350000D01*
G75*
G02*
X167725000Y-66200000I150000J0D01*
G01*
X168025000Y-66200000D01*
G75*
G02*
X168175000Y-66350000I0J-150000D01*
G01*
G37*
G36*
G01*
X169425000Y-66350000D02*
X169425000Y-67750000D01*
G75*
G02*
X169275000Y-67900000I-150000J0D01*
G01*
X168975000Y-67900000D01*
G75*
G02*
X168825000Y-67750000I0J150000D01*
G01*
X168825000Y-66350000D01*
G75*
G02*
X168975000Y-66200000I150000J0D01*
G01*
X169275000Y-66200000D01*
G75*
G02*
X169425000Y-66350000I0J-150000D01*
G01*
G37*
%TD*%
%TO.C,J9*%
G36*
G01*
X133525000Y-62750000D02*
X133525000Y-64950000D01*
G75*
G02*
X133275000Y-65200000I-250000J0D01*
G01*
X132775000Y-65200000D01*
G75*
G02*
X132525000Y-64950000I0J250000D01*
G01*
X132525000Y-62750000D01*
G75*
G02*
X132775000Y-62500000I250000J0D01*
G01*
X133275000Y-62500000D01*
G75*
G02*
X133525000Y-62750000I0J-250000D01*
G01*
G37*
G36*
G01*
X143475000Y-62750000D02*
X143475000Y-64950000D01*
G75*
G02*
X143225000Y-65200000I-250000J0D01*
G01*
X142725000Y-65200000D01*
G75*
G02*
X142475000Y-64950000I0J250000D01*
G01*
X142475000Y-62750000D01*
G75*
G02*
X142725000Y-62500000I250000J0D01*
G01*
X143225000Y-62500000D01*
G75*
G02*
X143475000Y-62750000I0J-250000D01*
G01*
G37*
G36*
G01*
X135175000Y-66350000D02*
X135175000Y-67750000D01*
G75*
G02*
X135025000Y-67900000I-150000J0D01*
G01*
X134725000Y-67900000D01*
G75*
G02*
X134575000Y-67750000I0J150000D01*
G01*
X134575000Y-66350000D01*
G75*
G02*
X134725000Y-66200000I150000J0D01*
G01*
X135025000Y-66200000D01*
G75*
G02*
X135175000Y-66350000I0J-150000D01*
G01*
G37*
G36*
G01*
X136425000Y-66350000D02*
X136425000Y-67750000D01*
G75*
G02*
X136275000Y-67900000I-150000J0D01*
G01*
X135975000Y-67900000D01*
G75*
G02*
X135825000Y-67750000I0J150000D01*
G01*
X135825000Y-66350000D01*
G75*
G02*
X135975000Y-66200000I150000J0D01*
G01*
X136275000Y-66200000D01*
G75*
G02*
X136425000Y-66350000I0J-150000D01*
G01*
G37*
G36*
G01*
X137675000Y-66350000D02*
X137675000Y-67750000D01*
G75*
G02*
X137525000Y-67900000I-150000J0D01*
G01*
X137225000Y-67900000D01*
G75*
G02*
X137075000Y-67750000I0J150000D01*
G01*
X137075000Y-66350000D01*
G75*
G02*
X137225000Y-66200000I150000J0D01*
G01*
X137525000Y-66200000D01*
G75*
G02*
X137675000Y-66350000I0J-150000D01*
G01*
G37*
G36*
G01*
X138925000Y-66350000D02*
X138925000Y-67750000D01*
G75*
G02*
X138775000Y-67900000I-150000J0D01*
G01*
X138475000Y-67900000D01*
G75*
G02*
X138325000Y-67750000I0J150000D01*
G01*
X138325000Y-66350000D01*
G75*
G02*
X138475000Y-66200000I150000J0D01*
G01*
X138775000Y-66200000D01*
G75*
G02*
X138925000Y-66350000I0J-150000D01*
G01*
G37*
G36*
G01*
X140175000Y-66350000D02*
X140175000Y-67750000D01*
G75*
G02*
X140025000Y-67900000I-150000J0D01*
G01*
X139725000Y-67900000D01*
G75*
G02*
X139575000Y-67750000I0J150000D01*
G01*
X139575000Y-66350000D01*
G75*
G02*
X139725000Y-66200000I150000J0D01*
G01*
X140025000Y-66200000D01*
G75*
G02*
X140175000Y-66350000I0J-150000D01*
G01*
G37*
G36*
G01*
X141425000Y-66350000D02*
X141425000Y-67750000D01*
G75*
G02*
X141275000Y-67900000I-150000J0D01*
G01*
X140975000Y-67900000D01*
G75*
G02*
X140825000Y-67750000I0J150000D01*
G01*
X140825000Y-66350000D01*
G75*
G02*
X140975000Y-66200000I150000J0D01*
G01*
X141275000Y-66200000D01*
G75*
G02*
X141425000Y-66350000I0J-150000D01*
G01*
G37*
%TD*%
%TO.C,J14*%
G36*
G01*
X119525000Y-62750000D02*
X119525000Y-64950000D01*
G75*
G02*
X119275000Y-65200000I-250000J0D01*
G01*
X118775000Y-65200000D01*
G75*
G02*
X118525000Y-64950000I0J250000D01*
G01*
X118525000Y-62750000D01*
G75*
G02*
X118775000Y-62500000I250000J0D01*
G01*
X119275000Y-62500000D01*
G75*
G02*
X119525000Y-62750000I0J-250000D01*
G01*
G37*
G36*
G01*
X129475000Y-62750000D02*
X129475000Y-64950000D01*
G75*
G02*
X129225000Y-65200000I-250000J0D01*
G01*
X128725000Y-65200000D01*
G75*
G02*
X128475000Y-64950000I0J250000D01*
G01*
X128475000Y-62750000D01*
G75*
G02*
X128725000Y-62500000I250000J0D01*
G01*
X129225000Y-62500000D01*
G75*
G02*
X129475000Y-62750000I0J-250000D01*
G01*
G37*
G36*
G01*
X121175000Y-66350000D02*
X121175000Y-67750000D01*
G75*
G02*
X121025000Y-67900000I-150000J0D01*
G01*
X120725000Y-67900000D01*
G75*
G02*
X120575000Y-67750000I0J150000D01*
G01*
X120575000Y-66350000D01*
G75*
G02*
X120725000Y-66200000I150000J0D01*
G01*
X121025000Y-66200000D01*
G75*
G02*
X121175000Y-66350000I0J-150000D01*
G01*
G37*
G36*
G01*
X122425000Y-66350000D02*
X122425000Y-67750000D01*
G75*
G02*
X122275000Y-67900000I-150000J0D01*
G01*
X121975000Y-67900000D01*
G75*
G02*
X121825000Y-67750000I0J150000D01*
G01*
X121825000Y-66350000D01*
G75*
G02*
X121975000Y-66200000I150000J0D01*
G01*
X122275000Y-66200000D01*
G75*
G02*
X122425000Y-66350000I0J-150000D01*
G01*
G37*
G36*
G01*
X123675000Y-66350000D02*
X123675000Y-67750000D01*
G75*
G02*
X123525000Y-67900000I-150000J0D01*
G01*
X123225000Y-67900000D01*
G75*
G02*
X123075000Y-67750000I0J150000D01*
G01*
X123075000Y-66350000D01*
G75*
G02*
X123225000Y-66200000I150000J0D01*
G01*
X123525000Y-66200000D01*
G75*
G02*
X123675000Y-66350000I0J-150000D01*
G01*
G37*
G36*
G01*
X124925000Y-66350000D02*
X124925000Y-67750000D01*
G75*
G02*
X124775000Y-67900000I-150000J0D01*
G01*
X124475000Y-67900000D01*
G75*
G02*
X124325000Y-67750000I0J150000D01*
G01*
X124325000Y-66350000D01*
G75*
G02*
X124475000Y-66200000I150000J0D01*
G01*
X124775000Y-66200000D01*
G75*
G02*
X124925000Y-66350000I0J-150000D01*
G01*
G37*
G36*
G01*
X126175000Y-66350000D02*
X126175000Y-67750000D01*
G75*
G02*
X126025000Y-67900000I-150000J0D01*
G01*
X125725000Y-67900000D01*
G75*
G02*
X125575000Y-67750000I0J150000D01*
G01*
X125575000Y-66350000D01*
G75*
G02*
X125725000Y-66200000I150000J0D01*
G01*
X126025000Y-66200000D01*
G75*
G02*
X126175000Y-66350000I0J-150000D01*
G01*
G37*
G36*
G01*
X127425000Y-66350000D02*
X127425000Y-67750000D01*
G75*
G02*
X127275000Y-67900000I-150000J0D01*
G01*
X126975000Y-67900000D01*
G75*
G02*
X126825000Y-67750000I0J150000D01*
G01*
X126825000Y-66350000D01*
G75*
G02*
X126975000Y-66200000I150000J0D01*
G01*
X127275000Y-66200000D01*
G75*
G02*
X127425000Y-66350000I0J-150000D01*
G01*
G37*
%TD*%
D31*
%TO.C,MH4*%
X175400000Y-105600000D03*
%TD*%
%TO.C,MH3*%
X113500000Y-106500000D03*
%TD*%
%TO.C,MH2*%
X113500000Y-66000000D03*
%TD*%
%TO.C,MH1*%
X176500000Y-66000000D03*
%TD*%
M02*
