%TF.GenerationSoftware,KiCad,Pcbnew,5.1.10-6.fc34*%
%TF.CreationDate,2021-09-22T18:19:27+02:00*%
%TF.ProjectId,mowi,6d6f7769-2e6b-4696-9361-645f70636258,v1.0*%
%TF.SameCoordinates,Original*%
%TF.FileFunction,Other,User*%
%FSLAX46Y46*%
G04 Gerber Fmt 4.6, Leading zero omitted, Abs format (unit mm)*
G04 Created by KiCad (PCBNEW 5.1.10-6.fc34) date 2021-09-22 18:19:27*
%MOMM*%
%LPD*%
G01*
G04 APERTURE LIST*
%ADD10C,0.050000*%
G04 APERTURE END LIST*
D10*
%TO.C,C20*%
X141970200Y-73020000D02*
X141970200Y-75980000D01*
X143430200Y-73020000D02*
X141970200Y-73020000D01*
X143430200Y-75980000D02*
X143430200Y-73020000D01*
X141970200Y-75980000D02*
X143430200Y-75980000D01*
%TO.C,U10*%
X117650000Y-77800000D02*
X117650000Y-75200000D01*
X121850000Y-77800000D02*
X121850000Y-75200000D01*
X117650000Y-77800000D02*
X121850000Y-77800000D01*
X117650000Y-75200000D02*
X121850000Y-75200000D01*
%TO.C,U5*%
X144600000Y-76150000D02*
X144600000Y-83350000D01*
X137400000Y-76150000D02*
X144600000Y-76150000D01*
X137400000Y-83350000D02*
X137400000Y-76150000D01*
X144600000Y-83350000D02*
X137400000Y-83350000D01*
%TO.C,U7*%
X150900000Y-88100000D02*
X150900000Y-82900000D01*
X150900000Y-82900000D02*
X156100000Y-82900000D01*
X156100000Y-82900000D02*
X156100000Y-88100000D01*
X156100000Y-88100000D02*
X150900000Y-88100000D01*
%TO.C,Q6*%
X152150000Y-90600000D02*
X154850000Y-90600000D01*
X152150000Y-90600000D02*
X152150000Y-88400000D01*
X154850000Y-88400000D02*
X154850000Y-90600000D01*
X154850000Y-88400000D02*
X152150000Y-88400000D01*
%TO.C,U21*%
X132120000Y-83870000D02*
X125880000Y-83870000D01*
X125880000Y-83870000D02*
X125880000Y-77630000D01*
X125880000Y-77630000D02*
X132120000Y-77630000D01*
X132120000Y-77630000D02*
X132120000Y-83870000D01*
%TO.C,U22*%
X161630000Y-93370000D02*
X161630000Y-87130000D01*
X161630000Y-87130000D02*
X167870000Y-87130000D01*
X167870000Y-87130000D02*
X167870000Y-93370000D01*
X167870000Y-93370000D02*
X161630000Y-93370000D01*
%TO.C,J10*%
X171360000Y-69365000D02*
X162710000Y-69365000D01*
X162710000Y-75515000D02*
X171360000Y-75515000D01*
X162710000Y-69365000D02*
X162710000Y-75515000D01*
X171360000Y-75515000D02*
X171360000Y-69365000D01*
%TO.C,J8*%
X158660000Y-69365000D02*
X150010000Y-69365000D01*
X150010000Y-75515000D02*
X158660000Y-75515000D01*
X150010000Y-69365000D02*
X150010000Y-75515000D01*
X158660000Y-75515000D02*
X158660000Y-69365000D01*
%TO.C,U9*%
X139550000Y-94800000D02*
X143450000Y-94800000D01*
X143450000Y-98200000D02*
X143450000Y-94800000D01*
X143450000Y-98200000D02*
X139550000Y-98200000D01*
X139550000Y-94800000D02*
X139550000Y-98200000D01*
%TO.C,U6*%
X146700000Y-70950000D02*
X146700000Y-74050000D01*
X146700000Y-70950000D02*
X148800000Y-70950000D01*
X148800000Y-74050000D02*
X148800000Y-70950000D01*
X148800000Y-74050000D02*
X146700000Y-74050000D01*
%TO.C,L3*%
X145900000Y-74200000D02*
X149600000Y-74200000D01*
X149600000Y-77300000D02*
X149600000Y-74200000D01*
X149600000Y-77300000D02*
X145900000Y-77300000D01*
X145900000Y-74200000D02*
X145900000Y-77300000D01*
%TO.C,D17*%
X167000200Y-65000000D02*
X167000200Y-63500000D01*
X167000200Y-65000000D02*
X165000200Y-65000000D01*
X165000200Y-63500000D02*
X167000200Y-63500000D01*
X165000200Y-63500000D02*
X165000200Y-65000000D01*
%TO.C,D13*%
X133500200Y-63500000D02*
X133500200Y-65000000D01*
X133500200Y-63500000D02*
X135500200Y-63500000D01*
X135500200Y-65000000D02*
X133500200Y-65000000D01*
X135500200Y-65000000D02*
X135500200Y-63500000D01*
%TO.C,NT1*%
X131700200Y-97500000D02*
X129700200Y-97500000D01*
X131700200Y-96500000D02*
X131700200Y-97500000D01*
X129700200Y-96500000D02*
X131700200Y-96500000D01*
X129700200Y-97500000D02*
X129700200Y-96500000D01*
%TO.C,NT2*%
X131700200Y-95100000D02*
X129700200Y-95100000D01*
X131700200Y-94100000D02*
X131700200Y-95100000D01*
X129700200Y-94100000D02*
X131700200Y-94100000D01*
X129700200Y-95100000D02*
X129700200Y-94100000D01*
%TO.C,U4*%
X130500000Y-87250000D02*
X130500000Y-100750000D01*
X115500000Y-100750000D02*
X130500000Y-100750000D01*
X130500000Y-87250000D02*
X115500000Y-87250000D01*
X115500000Y-100750000D02*
X115500000Y-87250000D01*
%TO.C,D14*%
X156250200Y-77500000D02*
X156250200Y-76000000D01*
X156250200Y-77500000D02*
X154250200Y-77500000D01*
X154250200Y-76000000D02*
X156250200Y-76000000D01*
X154250200Y-76000000D02*
X154250200Y-77500000D01*
%TO.C,C46*%
X136480200Y-93550000D02*
X134520200Y-93550000D01*
X134520200Y-93550000D02*
X134520200Y-96950000D01*
X134520200Y-96950000D02*
X136480200Y-96950000D01*
X136480200Y-96950000D02*
X136480200Y-93550000D01*
%TO.C,C45*%
X117480200Y-74300000D02*
X115520200Y-74300000D01*
X115520200Y-74300000D02*
X115520200Y-77700000D01*
X115520200Y-77700000D02*
X117480200Y-77700000D01*
X117480200Y-77700000D02*
X117480200Y-74300000D01*
%TO.C,C44*%
X138480200Y-93550000D02*
X136520200Y-93550000D01*
X136520200Y-93550000D02*
X136520200Y-96950000D01*
X136520200Y-96950000D02*
X138480200Y-96950000D01*
X138480200Y-96950000D02*
X138480200Y-93550000D01*
%TO.C,C15*%
X130520200Y-93870000D02*
X130520200Y-95330000D01*
X130520200Y-95330000D02*
X133480200Y-95330000D01*
X133480200Y-95330000D02*
X133480200Y-93870000D01*
X133480200Y-93870000D02*
X130520200Y-93870000D01*
%TO.C,C11*%
X130520200Y-96270000D02*
X130520200Y-97730000D01*
X130520200Y-97730000D02*
X133480200Y-97730000D01*
X133480200Y-97730000D02*
X133480200Y-96270000D01*
X133480200Y-96270000D02*
X130520200Y-96270000D01*
%TO.C,U20*%
X160250000Y-66000000D02*
X164750000Y-66000000D01*
X160250000Y-63500000D02*
X160250000Y-66000000D01*
X164750000Y-63500000D02*
X160250000Y-63500000D01*
X164750000Y-66000000D02*
X164750000Y-63500000D01*
%TO.C,U18*%
X171750000Y-64500000D02*
X167250000Y-64500000D01*
X171750000Y-67000000D02*
X171750000Y-64500000D01*
X167250000Y-67000000D02*
X171750000Y-67000000D01*
X167250000Y-64500000D02*
X167250000Y-67000000D01*
%TO.C,U15*%
X128750000Y-66000000D02*
X133250000Y-66000000D01*
X128750000Y-63500000D02*
X128750000Y-66000000D01*
X133250000Y-63500000D02*
X128750000Y-63500000D01*
X133250000Y-66000000D02*
X133250000Y-63500000D01*
%TO.C,U13*%
X140250000Y-64500000D02*
X135750000Y-64500000D01*
X140250000Y-67000000D02*
X140250000Y-64500000D01*
X135750000Y-67000000D02*
X140250000Y-67000000D01*
X135750000Y-64500000D02*
X135750000Y-67000000D01*
%TO.C,U2*%
X119250000Y-83750000D02*
X123750000Y-83750000D01*
X119250000Y-81250000D02*
X119250000Y-83750000D01*
X123750000Y-81250000D02*
X119250000Y-81250000D01*
X123750000Y-83750000D02*
X123750000Y-81250000D01*
%TO.C,U14*%
X166250000Y-77250000D02*
X161750000Y-77250000D01*
X166250000Y-79750000D02*
X166250000Y-77250000D01*
X161750000Y-79750000D02*
X166250000Y-79750000D01*
X161750000Y-77250000D02*
X161750000Y-79750000D01*
%TO.C,Y1*%
X147700000Y-79800000D02*
X144600000Y-79800000D01*
X144600000Y-82500000D02*
X144600000Y-79800000D01*
X144600000Y-82500000D02*
X147700000Y-82500000D01*
X147700000Y-79800000D02*
X147700000Y-82500000D01*
%TO.C,FB1*%
X131020000Y-98855000D02*
X131020000Y-100315000D01*
X131020000Y-100315000D02*
X133980000Y-100315000D01*
X133980000Y-100315000D02*
X133980000Y-98855000D01*
X133980000Y-98855000D02*
X131020000Y-98855000D01*
%TO.C,TP7*%
X152900000Y-81750000D02*
G75*
G03*
X152900000Y-81750000I-1000000J0D01*
G01*
%TO.C,R37*%
X146430000Y-73970000D02*
X146430000Y-73030000D01*
X146430000Y-73030000D02*
X144570000Y-73030000D01*
X144570000Y-73030000D02*
X144570000Y-73970000D01*
X144570000Y-73970000D02*
X146430000Y-73970000D01*
%TO.C,R36*%
X144570000Y-72030000D02*
X144570000Y-72970000D01*
X144570000Y-72970000D02*
X146430000Y-72970000D01*
X146430000Y-72970000D02*
X146430000Y-72030000D01*
X146430000Y-72030000D02*
X144570000Y-72030000D01*
%TO.C,R78*%
X134180000Y-82970000D02*
X134180000Y-82030000D01*
X134180000Y-82030000D02*
X132320000Y-82030000D01*
X132320000Y-82030000D02*
X132320000Y-82970000D01*
X132320000Y-82970000D02*
X134180000Y-82970000D01*
%TO.C,R72*%
X164680000Y-97220000D02*
X164680000Y-96280000D01*
X164680000Y-96280000D02*
X162820000Y-96280000D01*
X162820000Y-96280000D02*
X162820000Y-97220000D01*
X162820000Y-97220000D02*
X164680000Y-97220000D01*
%TO.C,J13*%
X141700000Y-68680000D02*
X157300000Y-68680000D01*
X141700000Y-68680000D02*
X141700000Y-64320000D01*
X157300000Y-64320000D02*
X141700000Y-64320000D01*
X157300000Y-64320000D02*
X157300000Y-68680000D01*
%TO.C,D9*%
X162250000Y-75650000D02*
X162250000Y-69350000D01*
X162250000Y-69350000D02*
X159250000Y-69350000D01*
X159250000Y-69350000D02*
X159250000Y-75650000D01*
X162250000Y-75650000D02*
X159250000Y-75650000D01*
%TO.C,R67*%
X138130000Y-106180000D02*
X139070000Y-106180000D01*
X139070000Y-106180000D02*
X139070000Y-104320000D01*
X139070000Y-104320000D02*
X138130000Y-104320000D01*
X138130000Y-104320000D02*
X138130000Y-106180000D01*
%TO.C,J12*%
X139500000Y-102910000D02*
X149100000Y-102910000D01*
X149100000Y-107690000D02*
X139500000Y-107690000D01*
X139500000Y-102910000D02*
X139500000Y-107690000D01*
X149100000Y-107690000D02*
X149100000Y-102910000D01*
%TO.C,D16*%
X172000000Y-73500000D02*
X173500000Y-73500000D01*
X172000000Y-73500000D02*
X172000000Y-71500000D01*
X173500000Y-71500000D02*
X173500000Y-73500000D01*
X173500000Y-71500000D02*
X172000000Y-71500000D01*
%TO.C,R76*%
X168030000Y-90930000D02*
X168970000Y-90930000D01*
X168970000Y-90930000D02*
X168970000Y-89070000D01*
X168970000Y-89070000D02*
X168030000Y-89070000D01*
X168030000Y-89070000D02*
X168030000Y-90930000D01*
%TO.C,R75*%
X168930000Y-86970000D02*
X168930000Y-86030000D01*
X168930000Y-86030000D02*
X167070000Y-86030000D01*
X167070000Y-86030000D02*
X167070000Y-86970000D01*
X167070000Y-86970000D02*
X168930000Y-86970000D01*
%TO.C,R74*%
X168930000Y-85970000D02*
X168930000Y-85030000D01*
X168930000Y-85030000D02*
X167070000Y-85030000D01*
X167070000Y-85030000D02*
X167070000Y-85970000D01*
X167070000Y-85970000D02*
X168930000Y-85970000D01*
%TO.C,FID6*%
X173280000Y-102720000D02*
G75*
G03*
X173280000Y-102720000I-750000J0D01*
G01*
%TO.C,FID5*%
X117750000Y-63500000D02*
G75*
G03*
X117750000Y-63500000I-750000J0D01*
G01*
%TO.C,FID4*%
X174530000Y-68720000D02*
G75*
G03*
X174530000Y-68720000I-750000J0D01*
G01*
%TO.C,R12*%
X120470200Y-85320000D02*
X119530200Y-85320000D01*
X119530200Y-85320000D02*
X119530200Y-87180000D01*
X119530200Y-87180000D02*
X120470200Y-87180000D01*
X120470200Y-87180000D02*
X120470200Y-85320000D01*
%TO.C,C79*%
X134300000Y-89150000D02*
X134300000Y-89850000D01*
X134300000Y-89850000D02*
X135700000Y-89850000D01*
X135700000Y-89850000D02*
X135700000Y-89150000D01*
X135700000Y-89150000D02*
X134300000Y-89150000D01*
%TO.C,C78*%
X134300000Y-89900000D02*
X134300000Y-90600000D01*
X134300000Y-90600000D02*
X135700000Y-90600000D01*
X135700000Y-90600000D02*
X135700000Y-89900000D01*
X135700000Y-89900000D02*
X134300000Y-89900000D01*
%TO.C,C77*%
X134300000Y-90650000D02*
X134300000Y-91350000D01*
X134300000Y-91350000D02*
X135700000Y-91350000D01*
X135700000Y-91350000D02*
X135700000Y-90650000D01*
X135700000Y-90650000D02*
X134300000Y-90650000D01*
%TO.C,C76*%
X134300000Y-91400000D02*
X134300000Y-92100000D01*
X134300000Y-92100000D02*
X135700000Y-92100000D01*
X135700000Y-92100000D02*
X135700000Y-91400000D01*
X135700000Y-91400000D02*
X134300000Y-91400000D01*
%TO.C,R11*%
X117220200Y-85320000D02*
X116280200Y-85320000D01*
X116280200Y-85320000D02*
X116280200Y-87180000D01*
X116280200Y-87180000D02*
X117220200Y-87180000D01*
X117220200Y-87180000D02*
X117220200Y-85320000D01*
%TO.C,C14*%
X130590000Y-92940000D02*
X130590000Y-93860000D01*
X130590000Y-93860000D02*
X132410000Y-93860000D01*
X132410000Y-93860000D02*
X132410000Y-92940000D01*
X132410000Y-92940000D02*
X130590000Y-92940000D01*
%TO.C,C13*%
X130590000Y-91940000D02*
X130590000Y-92860000D01*
X130590000Y-92860000D02*
X132410000Y-92860000D01*
X132410000Y-92860000D02*
X132410000Y-91940000D01*
X132410000Y-91940000D02*
X130590000Y-91940000D01*
%TO.C,C9*%
X122340000Y-86290000D02*
X122340000Y-87210000D01*
X122340000Y-87210000D02*
X124160000Y-87210000D01*
X124160000Y-87210000D02*
X124160000Y-86290000D01*
X124160000Y-86290000D02*
X122340000Y-86290000D01*
%TO.C,C7*%
X121290000Y-87160000D02*
X122210000Y-87160000D01*
X122210000Y-87160000D02*
X122210000Y-85340000D01*
X122210000Y-85340000D02*
X121290000Y-85340000D01*
X121290000Y-85340000D02*
X121290000Y-87160000D01*
%TO.C,R70*%
X129930000Y-70470000D02*
X129930000Y-69530000D01*
X129930000Y-69530000D02*
X128070000Y-69530000D01*
X128070000Y-69530000D02*
X128070000Y-70470000D01*
X128070000Y-70470000D02*
X129930000Y-70470000D01*
%TO.C,L5*%
X122000200Y-74650000D02*
X122000200Y-78350000D01*
X125000200Y-78350000D02*
X122000200Y-78350000D01*
X122000200Y-74650000D02*
X125000200Y-74650000D01*
X125000200Y-78350000D02*
X125000200Y-74650000D01*
%TO.C,C28*%
X141310000Y-83590000D02*
X140390000Y-83590000D01*
X140390000Y-83590000D02*
X140390000Y-85410000D01*
X140390000Y-85410000D02*
X141310000Y-85410000D01*
X141310000Y-85410000D02*
X141310000Y-83590000D01*
%TO.C,TP12*%
X155750000Y-102500000D02*
G75*
G03*
X155750000Y-102500000I-1000000J0D01*
G01*
%TO.C,R54*%
X151470000Y-95570000D02*
X150530000Y-95570000D01*
X150530000Y-95570000D02*
X150530000Y-97430000D01*
X150530000Y-97430000D02*
X151470000Y-97430000D01*
X151470000Y-97430000D02*
X151470000Y-95570000D01*
%TO.C,C19*%
X148400000Y-79800000D02*
X147700000Y-79800000D01*
X147700000Y-79800000D02*
X147700000Y-81200000D01*
X147700000Y-81200000D02*
X148400000Y-81200000D01*
X148400000Y-81200000D02*
X148400000Y-79800000D01*
%TO.C,C18*%
X147700000Y-82600000D02*
X148400000Y-82600000D01*
X148400000Y-82600000D02*
X148400000Y-81200000D01*
X148400000Y-81200000D02*
X147700000Y-81200000D01*
X147700000Y-81200000D02*
X147700000Y-82600000D01*
%TO.C,D12*%
X149500000Y-101100000D02*
X149500000Y-107400000D01*
X149500000Y-107400000D02*
X152500000Y-107400000D01*
X152500000Y-107400000D02*
X152500000Y-101100000D01*
X149500000Y-101100000D02*
X152500000Y-101100000D01*
%TO.C,D8*%
X117100000Y-68750000D02*
X123400000Y-68750000D01*
X123400000Y-68750000D02*
X123400000Y-65750000D01*
X123400000Y-65750000D02*
X117100000Y-65750000D01*
X117100000Y-68750000D02*
X117100000Y-65750000D01*
%TO.C,TP11*%
X148500000Y-100750000D02*
G75*
G03*
X148500000Y-100750000I-1000000J0D01*
G01*
%TO.C,D11*%
X135850000Y-72000000D02*
X142150000Y-72000000D01*
X142150000Y-72000000D02*
X142150000Y-69000000D01*
X142150000Y-69000000D02*
X135850000Y-69000000D01*
X135850000Y-72000000D02*
X135850000Y-69000000D01*
%TO.C,D10*%
X117100000Y-72000000D02*
X123400000Y-72000000D01*
X123400000Y-72000000D02*
X123400000Y-69000000D01*
X123400000Y-69000000D02*
X117100000Y-69000000D01*
X117100000Y-72000000D02*
X117100000Y-69000000D01*
%TO.C,C34*%
X149270000Y-82730000D02*
X150730000Y-82730000D01*
X150730000Y-82730000D02*
X150730000Y-79770000D01*
X150730000Y-79770000D02*
X149270000Y-79770000D01*
X149270000Y-79770000D02*
X149270000Y-82730000D01*
%TO.C,C71*%
X169270000Y-89700000D02*
X171230000Y-89700000D01*
X171230000Y-89700000D02*
X171230000Y-86300000D01*
X171230000Y-86300000D02*
X169270000Y-86300000D01*
X169270000Y-86300000D02*
X169270000Y-89700000D01*
%TO.C,C70*%
X127800000Y-75520000D02*
X127800000Y-77480000D01*
X127800000Y-77480000D02*
X131200000Y-77480000D01*
X131200000Y-77480000D02*
X131200000Y-75520000D01*
X131200000Y-75520000D02*
X127800000Y-75520000D01*
%TO.C,C67*%
X160230000Y-91550000D02*
X158270000Y-91550000D01*
X158270000Y-91550000D02*
X158270000Y-94950000D01*
X158270000Y-94950000D02*
X160230000Y-94950000D01*
X160230000Y-94950000D02*
X160230000Y-91550000D01*
%TO.C,C66*%
X130300000Y-85270000D02*
X130300000Y-87230000D01*
X130300000Y-87230000D02*
X133700000Y-87230000D01*
X133700000Y-87230000D02*
X133700000Y-85270000D01*
X133700000Y-85270000D02*
X130300000Y-85270000D01*
%TO.C,C43*%
X121450000Y-79980000D02*
X121450000Y-78020000D01*
X121450000Y-78020000D02*
X118050000Y-78020000D01*
X118050000Y-78020000D02*
X118050000Y-79980000D01*
X118050000Y-79980000D02*
X121450000Y-79980000D01*
%TO.C,C42*%
X144230000Y-98300000D02*
X142270000Y-98300000D01*
X142270000Y-98300000D02*
X142270000Y-101700000D01*
X142270000Y-101700000D02*
X144230000Y-101700000D01*
X144230000Y-101700000D02*
X144230000Y-98300000D01*
%TO.C,C33*%
X135270000Y-78200000D02*
X137230000Y-78200000D01*
X137230000Y-78200000D02*
X137230000Y-74800000D01*
X137230000Y-74800000D02*
X135270000Y-74800000D01*
X135270000Y-74800000D02*
X135270000Y-78200000D01*
%TO.C,C29*%
X137980000Y-83550000D02*
X136020000Y-83550000D01*
X136020000Y-83550000D02*
X136020000Y-86950000D01*
X136020000Y-86950000D02*
X137980000Y-86950000D01*
X137980000Y-86950000D02*
X137980000Y-83550000D01*
%TO.C,C23*%
X158980000Y-65020000D02*
X157520000Y-65020000D01*
X157520000Y-65020000D02*
X157520000Y-67980000D01*
X157520000Y-67980000D02*
X158980000Y-67980000D01*
X158980000Y-67980000D02*
X158980000Y-65020000D01*
%TO.C,C12*%
X130800000Y-100510000D02*
X130800000Y-102470000D01*
X130800000Y-102470000D02*
X134200000Y-102470000D01*
X134200000Y-102470000D02*
X134200000Y-100510000D01*
X134200000Y-100510000D02*
X130800000Y-100510000D01*
%TO.C,C2*%
X170970000Y-82550000D02*
X172930000Y-82550000D01*
X172930000Y-82550000D02*
X172930000Y-79150000D01*
X172930000Y-79150000D02*
X170970000Y-79150000D01*
X170970000Y-79150000D02*
X170970000Y-82550000D01*
%TO.C,C1*%
X150450000Y-93980000D02*
X150450000Y-92020000D01*
X150450000Y-92020000D02*
X147050000Y-92020000D01*
X147050000Y-92020000D02*
X147050000Y-93980000D01*
X147050000Y-93980000D02*
X150450000Y-93980000D01*
%TO.C,U19*%
X134150000Y-72100000D02*
X131350000Y-72100000D01*
X131350000Y-68900000D02*
X134150000Y-68900000D01*
X131350000Y-68900000D02*
X131350000Y-72100000D01*
X134150000Y-68900000D02*
X134150000Y-72100000D01*
%TO.C,U17*%
X150900000Y-79900000D02*
X150900000Y-77100000D01*
X154100000Y-77100000D02*
X154100000Y-79900000D01*
X154100000Y-77100000D02*
X150900000Y-77100000D01*
X154100000Y-79900000D02*
X150900000Y-79900000D01*
%TO.C,U16*%
X159600000Y-80100000D02*
X159600000Y-82900000D01*
X156400000Y-82900000D02*
X156400000Y-80100000D01*
X156400000Y-82900000D02*
X159600000Y-82900000D01*
X156400000Y-80100000D02*
X159600000Y-80100000D01*
%TO.C,U12*%
X156400000Y-79900000D02*
X156400000Y-77100000D01*
X159600000Y-77100000D02*
X159600000Y-79900000D01*
X159600000Y-77100000D02*
X156400000Y-77100000D01*
X159600000Y-79900000D02*
X156400000Y-79900000D01*
%TO.C,U11*%
X127900000Y-72105000D02*
X125100000Y-72105000D01*
X125100000Y-68905000D02*
X127900000Y-68905000D01*
X125100000Y-68905000D02*
X125100000Y-72105000D01*
X127900000Y-68905000D02*
X127900000Y-72105000D01*
%TO.C,U8*%
X148450000Y-95050000D02*
X145550000Y-95050000D01*
X145550000Y-97950000D02*
X145550000Y-95050000D01*
X145550000Y-97950000D02*
X148450000Y-97950000D01*
X148450000Y-95050000D02*
X148450000Y-97950000D01*
%TO.C,U3*%
X118850000Y-81100000D02*
X118850000Y-83900000D01*
X115650000Y-83900000D02*
X115650000Y-81100000D01*
X115650000Y-83900000D02*
X118850000Y-83900000D01*
X115650000Y-81100000D02*
X118850000Y-81100000D01*
%TO.C,TP20*%
X164750000Y-95000000D02*
G75*
G03*
X164750000Y-95000000I-1000000J0D01*
G01*
%TO.C,TP19*%
X134500000Y-80750000D02*
G75*
G03*
X134500000Y-80750000I-1000000J0D01*
G01*
%TO.C,TP18*%
X166750000Y-95000000D02*
G75*
G03*
X166750000Y-95000000I-1000000J0D01*
G01*
%TO.C,TP17*%
X134500000Y-78750000D02*
G75*
G03*
X134500000Y-78750000I-1000000J0D01*
G01*
%TO.C,TP15*%
X115750000Y-72250000D02*
G75*
G03*
X115750000Y-72250000I-1000000J0D01*
G01*
%TO.C,TP16*%
X139500000Y-92000000D02*
G75*
G03*
X139500000Y-92000000I-1000000J0D01*
G01*
%TO.C,TP14*%
X115750000Y-70250000D02*
G75*
G03*
X115750000Y-70250000I-1000000J0D01*
G01*
%TO.C,TP13*%
X146500000Y-100750000D02*
G75*
G03*
X146500000Y-100750000I-1000000J0D01*
G01*
%TO.C,TP10*%
X161750000Y-83750000D02*
G75*
G03*
X161750000Y-83750000I-1000000J0D01*
G01*
%TO.C,TP9*%
X161750000Y-81750000D02*
G75*
G03*
X161750000Y-81750000I-1000000J0D01*
G01*
%TO.C,TP8*%
X159000000Y-85250000D02*
G75*
G03*
X159000000Y-85250000I-1000000J0D01*
G01*
%TO.C,TP6*%
X145000000Y-70500000D02*
G75*
G03*
X145000000Y-70500000I-1000000J0D01*
G01*
%TO.C,TP5*%
X138000000Y-73250000D02*
G75*
G03*
X138000000Y-73250000I-1000000J0D01*
G01*
%TO.C,TP4*%
X160250000Y-97500000D02*
G75*
G03*
X160250000Y-97500000I-1000000J0D01*
G01*
%TO.C,TP3*%
X156750000Y-100750000D02*
G75*
G03*
X156750000Y-100750000I-1000000J0D01*
G01*
%TO.C,TP2*%
X165750000Y-81500000D02*
G75*
G03*
X165750000Y-81500000I-1000000J0D01*
G01*
%TO.C,TP1*%
X154750000Y-100750000D02*
G75*
G03*
X154750000Y-100750000I-1000000J0D01*
G01*
%TO.C,R88*%
X160470000Y-87070000D02*
X159530000Y-87070000D01*
X159530000Y-87070000D02*
X159530000Y-88930000D01*
X159530000Y-88930000D02*
X160470000Y-88930000D01*
X160470000Y-88930000D02*
X160470000Y-87070000D01*
%TO.C,R87*%
X161470000Y-87070000D02*
X160530000Y-87070000D01*
X160530000Y-87070000D02*
X160530000Y-88930000D01*
X160530000Y-88930000D02*
X161470000Y-88930000D01*
X161470000Y-88930000D02*
X161470000Y-87070000D01*
%TO.C,R86*%
X161470000Y-89320000D02*
X160530000Y-89320000D01*
X160530000Y-89320000D02*
X160530000Y-91180000D01*
X160530000Y-91180000D02*
X161470000Y-91180000D01*
X161470000Y-91180000D02*
X161470000Y-89320000D01*
%TO.C,R85*%
X160470000Y-89320000D02*
X159530000Y-89320000D01*
X159530000Y-89320000D02*
X159530000Y-91180000D01*
X159530000Y-91180000D02*
X160470000Y-91180000D01*
X160470000Y-91180000D02*
X160470000Y-89320000D01*
%TO.C,R84*%
X128070000Y-84030000D02*
X128070000Y-84970000D01*
X128070000Y-84970000D02*
X129930000Y-84970000D01*
X129930000Y-84970000D02*
X129930000Y-84030000D01*
X129930000Y-84030000D02*
X128070000Y-84030000D01*
%TO.C,R83*%
X128070000Y-85030000D02*
X128070000Y-85970000D01*
X128070000Y-85970000D02*
X129930000Y-85970000D01*
X129930000Y-85970000D02*
X129930000Y-85030000D01*
X129930000Y-85030000D02*
X128070000Y-85030000D01*
%TO.C,R82*%
X125820000Y-85030000D02*
X125820000Y-85970000D01*
X125820000Y-85970000D02*
X127680000Y-85970000D01*
X127680000Y-85970000D02*
X127680000Y-85030000D01*
X127680000Y-85030000D02*
X125820000Y-85030000D01*
%TO.C,R81*%
X125820000Y-84030000D02*
X125820000Y-84970000D01*
X125820000Y-84970000D02*
X127680000Y-84970000D01*
X127680000Y-84970000D02*
X127680000Y-84030000D01*
X127680000Y-84030000D02*
X125820000Y-84030000D01*
%TO.C,R80*%
X160530000Y-86930000D02*
X161470000Y-86930000D01*
X161470000Y-86930000D02*
X161470000Y-85070000D01*
X161470000Y-85070000D02*
X160530000Y-85070000D01*
X160530000Y-85070000D02*
X160530000Y-86930000D01*
%TO.C,R79*%
X125220000Y-82820000D02*
X124280000Y-82820000D01*
X124280000Y-82820000D02*
X124280000Y-84680000D01*
X124280000Y-84680000D02*
X125220000Y-84680000D01*
X125220000Y-84680000D02*
X125220000Y-82820000D01*
%TO.C,R77*%
X167970000Y-93580000D02*
X167030000Y-93580000D01*
X167030000Y-93580000D02*
X167030000Y-95440000D01*
X167030000Y-95440000D02*
X167970000Y-95440000D01*
X167970000Y-95440000D02*
X167970000Y-93580000D01*
%TO.C,R73*%
X134180000Y-77470000D02*
X134180000Y-76530000D01*
X134180000Y-76530000D02*
X132320000Y-76530000D01*
X132320000Y-76530000D02*
X132320000Y-77470000D01*
X132320000Y-77470000D02*
X134180000Y-77470000D01*
%TO.C,R71*%
X124680000Y-73970000D02*
X124680000Y-73030000D01*
X124680000Y-73030000D02*
X122820000Y-73030000D01*
X122820000Y-73030000D02*
X122820000Y-73970000D01*
X122820000Y-73970000D02*
X124680000Y-73970000D01*
%TO.C,R69*%
X129930000Y-69470000D02*
X129930000Y-68530000D01*
X129930000Y-68530000D02*
X128070000Y-68530000D01*
X128070000Y-68530000D02*
X128070000Y-69470000D01*
X128070000Y-69470000D02*
X129930000Y-69470000D01*
%TO.C,R68*%
X135220000Y-69570000D02*
X134280000Y-69570000D01*
X134280000Y-69570000D02*
X134280000Y-71430000D01*
X134280000Y-71430000D02*
X135220000Y-71430000D01*
X135220000Y-71430000D02*
X135220000Y-69570000D01*
%TO.C,R66*%
X154320000Y-77780000D02*
X154320000Y-78720000D01*
X154320000Y-78720000D02*
X156180000Y-78720000D01*
X156180000Y-78720000D02*
X156180000Y-77780000D01*
X156180000Y-77780000D02*
X154320000Y-77780000D01*
%TO.C,R65*%
X156180000Y-82470000D02*
X156180000Y-81530000D01*
X156180000Y-81530000D02*
X154320000Y-81530000D01*
X154320000Y-81530000D02*
X154320000Y-82470000D01*
X154320000Y-82470000D02*
X156180000Y-82470000D01*
%TO.C,R64*%
X154320000Y-78780000D02*
X154320000Y-79720000D01*
X154320000Y-79720000D02*
X156180000Y-79720000D01*
X156180000Y-79720000D02*
X156180000Y-78780000D01*
X156180000Y-78780000D02*
X154320000Y-78780000D01*
%TO.C,R63*%
X156180000Y-81220000D02*
X156180000Y-80280000D01*
X156180000Y-80280000D02*
X154320000Y-80280000D01*
X154320000Y-80280000D02*
X154320000Y-81220000D01*
X154320000Y-81220000D02*
X156180000Y-81220000D01*
%TO.C,R62*%
X159820000Y-78530000D02*
X159820000Y-79470000D01*
X159820000Y-79470000D02*
X161680000Y-79470000D01*
X161680000Y-79470000D02*
X161680000Y-78530000D01*
X161680000Y-78530000D02*
X159820000Y-78530000D01*
%TO.C,R61*%
X128070000Y-71530000D02*
X128070000Y-72470000D01*
X128070000Y-72470000D02*
X129930000Y-72470000D01*
X129930000Y-72470000D02*
X129930000Y-71530000D01*
X129930000Y-71530000D02*
X128070000Y-71530000D01*
%TO.C,R60*%
X159820000Y-79530000D02*
X159820000Y-80470000D01*
X159820000Y-80470000D02*
X161680000Y-80470000D01*
X161680000Y-80470000D02*
X161680000Y-79530000D01*
X161680000Y-79530000D02*
X159820000Y-79530000D01*
%TO.C,R59*%
X128070000Y-70530000D02*
X128070000Y-71470000D01*
X128070000Y-71470000D02*
X129930000Y-71470000D01*
X129930000Y-71470000D02*
X129930000Y-70530000D01*
X129930000Y-70530000D02*
X128070000Y-70530000D01*
%TO.C,R58*%
X139470000Y-97570000D02*
X138530000Y-97570000D01*
X138530000Y-97570000D02*
X138530000Y-99430000D01*
X138530000Y-99430000D02*
X139470000Y-99430000D01*
X139470000Y-99430000D02*
X139470000Y-97570000D01*
%TO.C,R57*%
X139470000Y-95570000D02*
X138530000Y-95570000D01*
X138530000Y-95570000D02*
X138530000Y-97430000D01*
X138530000Y-97430000D02*
X139470000Y-97430000D01*
X139470000Y-97430000D02*
X139470000Y-95570000D01*
%TO.C,R56*%
X139570000Y-98530000D02*
X139570000Y-99470000D01*
X139570000Y-99470000D02*
X141430000Y-99470000D01*
X141430000Y-99470000D02*
X141430000Y-98530000D01*
X141430000Y-98530000D02*
X139570000Y-98530000D01*
%TO.C,R55*%
X139570000Y-99530000D02*
X139570000Y-100470000D01*
X139570000Y-100470000D02*
X141430000Y-100470000D01*
X141430000Y-100470000D02*
X141430000Y-99530000D01*
X141430000Y-99530000D02*
X139570000Y-99530000D01*
%TO.C,R53*%
X148570000Y-96030000D02*
X148570000Y-96970000D01*
X148570000Y-96970000D02*
X150430000Y-96970000D01*
X150430000Y-96970000D02*
X150430000Y-96030000D01*
X150430000Y-96030000D02*
X148570000Y-96030000D01*
%TO.C,R52*%
X148570000Y-97280000D02*
X148570000Y-98220000D01*
X148570000Y-98220000D02*
X150430000Y-98220000D01*
X150430000Y-98220000D02*
X150430000Y-97280000D01*
X150430000Y-97280000D02*
X148570000Y-97280000D01*
%TO.C,R51*%
X146070000Y-98780000D02*
X146070000Y-99720000D01*
X146070000Y-99720000D02*
X147930000Y-99720000D01*
X147930000Y-99720000D02*
X147930000Y-98780000D01*
X147930000Y-98780000D02*
X146070000Y-98780000D01*
%TO.C,R50*%
X145430000Y-96720000D02*
X145430000Y-95780000D01*
X145430000Y-95780000D02*
X143570000Y-95780000D01*
X143570000Y-95780000D02*
X143570000Y-96720000D01*
X143570000Y-96720000D02*
X145430000Y-96720000D01*
%TO.C,R49*%
X148570000Y-95030000D02*
X148570000Y-95970000D01*
X148570000Y-95970000D02*
X150430000Y-95970000D01*
X150430000Y-95970000D02*
X150430000Y-95030000D01*
X150430000Y-95030000D02*
X148570000Y-95030000D01*
%TO.C,R48*%
X148570000Y-94030000D02*
X148570000Y-94970000D01*
X148570000Y-94970000D02*
X150430000Y-94970000D01*
X150430000Y-94970000D02*
X150430000Y-94030000D01*
X150430000Y-94030000D02*
X148570000Y-94030000D01*
%TO.C,R47*%
X168470000Y-80570000D02*
X167530000Y-80570000D01*
X167530000Y-80570000D02*
X167530000Y-82430000D01*
X167530000Y-82430000D02*
X168470000Y-82430000D01*
X168470000Y-82430000D02*
X168470000Y-80570000D01*
%TO.C,R46*%
X153970000Y-80820000D02*
X153030000Y-80820000D01*
X153030000Y-80820000D02*
X153030000Y-82680000D01*
X153030000Y-82680000D02*
X153970000Y-82680000D01*
X153970000Y-82680000D02*
X153970000Y-80820000D01*
%TO.C,R43*%
X139220000Y-83570000D02*
X138280000Y-83570000D01*
X138280000Y-83570000D02*
X138280000Y-85430000D01*
X138280000Y-85430000D02*
X139220000Y-85430000D01*
X139220000Y-85430000D02*
X139220000Y-83570000D01*
%TO.C,R42*%
X139220000Y-86070000D02*
X138280000Y-86070000D01*
X138280000Y-86070000D02*
X138280000Y-87930000D01*
X138280000Y-87930000D02*
X139220000Y-87930000D01*
X139220000Y-87930000D02*
X139220000Y-86070000D01*
%TO.C,R41*%
X140220000Y-86070000D02*
X139280000Y-86070000D01*
X139280000Y-86070000D02*
X139280000Y-87930000D01*
X139280000Y-87930000D02*
X140220000Y-87930000D01*
X140220000Y-87930000D02*
X140220000Y-86070000D01*
%TO.C,R40*%
X141220000Y-86070000D02*
X140280000Y-86070000D01*
X140280000Y-86070000D02*
X140280000Y-87930000D01*
X140280000Y-87930000D02*
X141220000Y-87930000D01*
X141220000Y-87930000D02*
X141220000Y-86070000D01*
%TO.C,R45*%
X137880200Y-75930000D02*
X138820200Y-75930000D01*
X138820200Y-75930000D02*
X138820200Y-74070000D01*
X138820200Y-74070000D02*
X137880200Y-74070000D01*
X137880200Y-74070000D02*
X137880200Y-75930000D01*
%TO.C,R44*%
X137180000Y-82220000D02*
X137180000Y-81280000D01*
X137180000Y-81280000D02*
X135320000Y-81280000D01*
X135320000Y-81280000D02*
X135320000Y-82220000D01*
X135320000Y-82220000D02*
X137180000Y-82220000D01*
%TO.C,R39*%
X144280200Y-85430000D02*
X145220200Y-85430000D01*
X145220200Y-85430000D02*
X145220200Y-83570000D01*
X145220200Y-83570000D02*
X144280200Y-83570000D01*
X144280200Y-83570000D02*
X144280200Y-85430000D01*
%TO.C,R38*%
X144780000Y-75930000D02*
X145720000Y-75930000D01*
X145720000Y-75930000D02*
X145720000Y-74070000D01*
X145720000Y-74070000D02*
X144780000Y-74070000D01*
X144780000Y-74070000D02*
X144780000Y-75930000D01*
%TO.C,R35*%
X138880200Y-75930000D02*
X139820200Y-75930000D01*
X139820200Y-75930000D02*
X139820200Y-74070000D01*
X139820200Y-74070000D02*
X138880200Y-74070000D01*
X138880200Y-74070000D02*
X138880200Y-75930000D01*
%TO.C,R34*%
X140930200Y-75930000D02*
X141870200Y-75930000D01*
X141870200Y-75930000D02*
X141870200Y-74070000D01*
X141870200Y-74070000D02*
X140930200Y-74070000D01*
X140930200Y-74070000D02*
X140930200Y-75930000D01*
%TO.C,R33*%
X141180000Y-73970000D02*
X141180000Y-73030000D01*
X141180000Y-73030000D02*
X139320000Y-73030000D01*
X139320000Y-73030000D02*
X139320000Y-73970000D01*
X139320000Y-73970000D02*
X141180000Y-73970000D01*
%TO.C,R32*%
X144470200Y-73070000D02*
X143530200Y-73070000D01*
X143530200Y-73070000D02*
X143530200Y-74930000D01*
X143530200Y-74930000D02*
X144470200Y-74930000D01*
X144470200Y-74930000D02*
X144470200Y-73070000D01*
%TO.C,R31*%
X113180000Y-99220000D02*
X113180000Y-98280000D01*
X113180000Y-98280000D02*
X111320000Y-98280000D01*
X111320000Y-98280000D02*
X111320000Y-99220000D01*
X111320000Y-99220000D02*
X113180000Y-99220000D01*
%TO.C,R30*%
X113280000Y-100180000D02*
X114220000Y-100180000D01*
X114220000Y-100180000D02*
X114220000Y-98320000D01*
X114220000Y-98320000D02*
X113280000Y-98320000D01*
X113280000Y-98320000D02*
X113280000Y-100180000D01*
%TO.C,R29*%
X113190000Y-100220000D02*
X113190000Y-99280000D01*
X113190000Y-99280000D02*
X111330000Y-99280000D01*
X111330000Y-99280000D02*
X111330000Y-100220000D01*
X111330000Y-100220000D02*
X113190000Y-100220000D01*
%TO.C,R28*%
X113280000Y-94430000D02*
X114220000Y-94430000D01*
X114220000Y-94430000D02*
X114220000Y-92570000D01*
X114220000Y-92570000D02*
X113280000Y-92570000D01*
X113280000Y-92570000D02*
X113280000Y-94430000D01*
%TO.C,R27*%
X113180000Y-94470000D02*
X113180000Y-93530000D01*
X113180000Y-93530000D02*
X111320000Y-93530000D01*
X111320000Y-93530000D02*
X111320000Y-94470000D01*
X111320000Y-94470000D02*
X113180000Y-94470000D01*
%TO.C,R26*%
X113180000Y-87720000D02*
X113180000Y-86780000D01*
X113180000Y-86780000D02*
X111320000Y-86780000D01*
X111320000Y-86780000D02*
X111320000Y-87720000D01*
X111320000Y-87720000D02*
X113180000Y-87720000D01*
%TO.C,R25*%
X113180000Y-81970000D02*
X113180000Y-81030000D01*
X113180000Y-81030000D02*
X111320000Y-81030000D01*
X111320000Y-81030000D02*
X111320000Y-81970000D01*
X111320000Y-81970000D02*
X113180000Y-81970000D01*
%TO.C,R24*%
X113280000Y-88680000D02*
X114220000Y-88680000D01*
X114220000Y-88680000D02*
X114220000Y-86820000D01*
X114220000Y-86820000D02*
X113280000Y-86820000D01*
X113280000Y-86820000D02*
X113280000Y-88680000D01*
%TO.C,R23*%
X113190000Y-88720000D02*
X113190000Y-87780000D01*
X113190000Y-87780000D02*
X111330000Y-87780000D01*
X111330000Y-87780000D02*
X111330000Y-88720000D01*
X111330000Y-88720000D02*
X113190000Y-88720000D01*
%TO.C,R22*%
X113280000Y-82930000D02*
X114220000Y-82930000D01*
X114220000Y-82930000D02*
X114220000Y-81070000D01*
X114220000Y-81070000D02*
X113280000Y-81070000D01*
X113280000Y-81070000D02*
X113280000Y-82930000D01*
%TO.C,R21*%
X113180000Y-82970000D02*
X113180000Y-82030000D01*
X113180000Y-82030000D02*
X111320000Y-82030000D01*
X111320000Y-82030000D02*
X111320000Y-82970000D01*
X111320000Y-82970000D02*
X113180000Y-82970000D01*
%TO.C,R20*%
X113180000Y-76220000D02*
X113180000Y-75280000D01*
X113180000Y-75280000D02*
X111320000Y-75280000D01*
X111320000Y-75280000D02*
X111320000Y-76220000D01*
X111320000Y-76220000D02*
X113180000Y-76220000D01*
%TO.C,R19*%
X113280000Y-77180000D02*
X114220000Y-77180000D01*
X114220000Y-77180000D02*
X114220000Y-75320000D01*
X114220000Y-75320000D02*
X113280000Y-75320000D01*
X113280000Y-75320000D02*
X113280000Y-77180000D01*
%TO.C,R18*%
X113180000Y-77220000D02*
X113180000Y-76280000D01*
X113180000Y-76280000D02*
X111320000Y-76280000D01*
X111320000Y-76280000D02*
X111320000Y-77220000D01*
X111320000Y-77220000D02*
X113180000Y-77220000D01*
%TO.C,R17*%
X113180000Y-71470000D02*
X113180000Y-70530000D01*
X113180000Y-70530000D02*
X111320000Y-70530000D01*
X111320000Y-70530000D02*
X111320000Y-71470000D01*
X111320000Y-71470000D02*
X113180000Y-71470000D01*
%TO.C,R10*%
X152820000Y-96530000D02*
X152820000Y-97470000D01*
X152820000Y-97470000D02*
X154680000Y-97470000D01*
X154680000Y-97470000D02*
X154680000Y-96530000D01*
X154680000Y-96530000D02*
X152820000Y-96530000D01*
%TO.C,R9*%
X156680000Y-97470000D02*
X156680000Y-96530000D01*
X156680000Y-96530000D02*
X154820000Y-96530000D01*
X154820000Y-96530000D02*
X154820000Y-97470000D01*
X154820000Y-97470000D02*
X156680000Y-97470000D01*
%TO.C,R8*%
X154430000Y-93400000D02*
X154430000Y-92460000D01*
X154430000Y-92460000D02*
X152570000Y-92460000D01*
X152570000Y-92460000D02*
X152570000Y-93400000D01*
X152570000Y-93400000D02*
X154430000Y-93400000D01*
%TO.C,R7*%
X156680000Y-98470000D02*
X156680000Y-97530000D01*
X156680000Y-97530000D02*
X154820000Y-97530000D01*
X154820000Y-97530000D02*
X154820000Y-98470000D01*
X154820000Y-98470000D02*
X156680000Y-98470000D01*
%TO.C,R6*%
X154570000Y-92460000D02*
X154570000Y-93400000D01*
X154570000Y-93400000D02*
X156430000Y-93400000D01*
X156430000Y-93400000D02*
X156430000Y-92460000D01*
X156430000Y-92460000D02*
X154570000Y-92460000D01*
%TO.C,R5*%
X154680000Y-98470000D02*
X154680000Y-97530000D01*
X154680000Y-97530000D02*
X152820000Y-97530000D01*
X152820000Y-97530000D02*
X152820000Y-98470000D01*
X152820000Y-98470000D02*
X154680000Y-98470000D01*
%TO.C,R4*%
X163470000Y-80570000D02*
X162530000Y-80570000D01*
X162530000Y-80570000D02*
X162530000Y-82430000D01*
X162530000Y-82430000D02*
X163470000Y-82430000D01*
X163470000Y-82430000D02*
X163470000Y-80570000D01*
%TO.C,R3*%
X152820000Y-98530000D02*
X152820000Y-99470000D01*
X152820000Y-99470000D02*
X154680000Y-99470000D01*
X154680000Y-99470000D02*
X154680000Y-98530000D01*
X154680000Y-98530000D02*
X152820000Y-98530000D01*
%TO.C,R2*%
X166970000Y-80570000D02*
X166030000Y-80570000D01*
X166030000Y-80570000D02*
X166030000Y-82430000D01*
X166030000Y-82430000D02*
X166970000Y-82430000D01*
X166970000Y-82430000D02*
X166970000Y-80570000D01*
%TO.C,R1*%
X114220200Y-73320000D02*
X113280200Y-73320000D01*
X113280200Y-73320000D02*
X113280200Y-75180000D01*
X113280200Y-75180000D02*
X114220200Y-75180000D01*
X114220200Y-75180000D02*
X114220200Y-73320000D01*
%TO.C,Q5*%
X111050000Y-103050000D02*
X114450000Y-103050000D01*
X111050000Y-100450000D02*
X111050000Y-103050000D01*
X114450000Y-100450000D02*
X111050000Y-100450000D01*
X114450000Y-103050000D02*
X114450000Y-100450000D01*
%TO.C,Q4*%
X111050000Y-97300000D02*
X114450000Y-97300000D01*
X111050000Y-94700000D02*
X111050000Y-97300000D01*
X114450000Y-94700000D02*
X111050000Y-94700000D01*
X114450000Y-97300000D02*
X114450000Y-94700000D01*
%TO.C,Q3*%
X111050000Y-91550000D02*
X114450000Y-91550000D01*
X111050000Y-88950000D02*
X111050000Y-91550000D01*
X114450000Y-88950000D02*
X111050000Y-88950000D01*
X114450000Y-91550000D02*
X114450000Y-88950000D01*
%TO.C,Q2*%
X111050000Y-85800000D02*
X114450000Y-85800000D01*
X111050000Y-83200000D02*
X111050000Y-85800000D01*
X114450000Y-83200000D02*
X111050000Y-83200000D01*
X114450000Y-85800000D02*
X114450000Y-83200000D01*
%TO.C,Q1*%
X111050000Y-80050000D02*
X114450000Y-80050000D01*
X111050000Y-77450000D02*
X111050000Y-80050000D01*
X114450000Y-77450000D02*
X111050000Y-77450000D01*
X114450000Y-80050000D02*
X114450000Y-77450000D01*
%TO.C,L4*%
X139650000Y-94500000D02*
X143350000Y-94500000D01*
X143350000Y-91500000D02*
X143350000Y-94500000D01*
X139650000Y-94500000D02*
X139650000Y-91500000D01*
X143350000Y-91500000D02*
X139650000Y-91500000D01*
%TO.C,FB4*%
X157980000Y-91770000D02*
X156520000Y-91770000D01*
X156520000Y-91770000D02*
X156520000Y-94730000D01*
X156520000Y-94730000D02*
X157980000Y-94730000D01*
X157980000Y-94730000D02*
X157980000Y-91770000D01*
%TO.C,FB3*%
X133480000Y-88980000D02*
X133480000Y-87520000D01*
X133480000Y-87520000D02*
X130520000Y-87520000D01*
X130520000Y-87520000D02*
X130520000Y-88980000D01*
X130520000Y-88980000D02*
X133480000Y-88980000D01*
%TO.C,FB2*%
X135730000Y-83770000D02*
X134270000Y-83770000D01*
X134270000Y-83770000D02*
X134270000Y-86730000D01*
X134270000Y-86730000D02*
X135730000Y-86730000D01*
X135730000Y-86730000D02*
X135730000Y-83770000D01*
%TO.C,D21*%
X126780000Y-65180000D02*
X127720000Y-65180000D01*
X127720000Y-65180000D02*
X127720000Y-63320000D01*
X127720000Y-63320000D02*
X126780000Y-63320000D01*
X126780000Y-63320000D02*
X126780000Y-65180000D01*
%TO.C,D20*%
X123000000Y-63500000D02*
X123000000Y-65000000D01*
X123000000Y-63500000D02*
X125000000Y-63500000D01*
X125000000Y-65000000D02*
X123000000Y-65000000D01*
X125000000Y-65000000D02*
X125000000Y-63500000D01*
%TO.C,D19*%
X167180000Y-66970000D02*
X167180000Y-66030000D01*
X167180000Y-66030000D02*
X165320000Y-66030000D01*
X165320000Y-66030000D02*
X165320000Y-66970000D01*
X165320000Y-66970000D02*
X167180000Y-66970000D01*
%TO.C,D18*%
X164820000Y-67030000D02*
X164820000Y-67970000D01*
X164820000Y-67970000D02*
X166680000Y-67970000D01*
X166680000Y-67970000D02*
X166680000Y-67030000D01*
X166680000Y-67030000D02*
X164820000Y-67030000D01*
%TO.C,D15*%
X140530000Y-65180000D02*
X141470000Y-65180000D01*
X141470000Y-65180000D02*
X141470000Y-63320000D01*
X141470000Y-63320000D02*
X140530000Y-63320000D01*
X140530000Y-63320000D02*
X140530000Y-65180000D01*
%TO.C,C83*%
X160460000Y-85090000D02*
X159540000Y-85090000D01*
X159540000Y-85090000D02*
X159540000Y-86910000D01*
X159540000Y-86910000D02*
X160460000Y-86910000D01*
X160460000Y-86910000D02*
X160460000Y-85090000D01*
%TO.C,C82*%
X159460000Y-88590000D02*
X158540000Y-88590000D01*
X158540000Y-88590000D02*
X158540000Y-90410000D01*
X158540000Y-90410000D02*
X159460000Y-90410000D01*
X159460000Y-90410000D02*
X159460000Y-88590000D01*
%TO.C,C81*%
X127340000Y-86040000D02*
X127340000Y-86960000D01*
X127340000Y-86960000D02*
X129160000Y-86960000D01*
X129160000Y-86960000D02*
X129160000Y-86040000D01*
X129160000Y-86040000D02*
X127340000Y-86040000D01*
%TO.C,C80*%
X122340000Y-85290000D02*
X122340000Y-86210000D01*
X122340000Y-86210000D02*
X124160000Y-86210000D01*
X124160000Y-86210000D02*
X124160000Y-85290000D01*
X124160000Y-85290000D02*
X122340000Y-85290000D01*
%TO.C,C75*%
X161540000Y-86910000D02*
X162460000Y-86910000D01*
X162460000Y-86910000D02*
X162460000Y-85090000D01*
X162460000Y-85090000D02*
X161540000Y-85090000D01*
X161540000Y-85090000D02*
X161540000Y-86910000D01*
%TO.C,C74*%
X124290000Y-82410000D02*
X125210000Y-82410000D01*
X125210000Y-82410000D02*
X125210000Y-80590000D01*
X125210000Y-80590000D02*
X124290000Y-80590000D01*
X124290000Y-80590000D02*
X124290000Y-82410000D01*
%TO.C,C73*%
X168040000Y-88910000D02*
X168960000Y-88910000D01*
X168960000Y-88910000D02*
X168960000Y-87090000D01*
X168960000Y-87090000D02*
X168040000Y-87090000D01*
X168040000Y-87090000D02*
X168040000Y-88910000D01*
%TO.C,C72*%
X127660000Y-77460000D02*
X127660000Y-76540000D01*
X127660000Y-76540000D02*
X125840000Y-76540000D01*
X125840000Y-76540000D02*
X125840000Y-77460000D01*
X125840000Y-77460000D02*
X127660000Y-77460000D01*
%TO.C,C69*%
X161460000Y-91590000D02*
X160540000Y-91590000D01*
X160540000Y-91590000D02*
X160540000Y-93410000D01*
X160540000Y-93410000D02*
X161460000Y-93410000D01*
X161460000Y-93410000D02*
X161460000Y-91590000D01*
%TO.C,C68*%
X130340000Y-84040000D02*
X130340000Y-84960000D01*
X130340000Y-84960000D02*
X132160000Y-84960000D01*
X132160000Y-84960000D02*
X132160000Y-84040000D01*
X132160000Y-84040000D02*
X130340000Y-84040000D01*
%TO.C,C65*%
X162410000Y-94460000D02*
X162410000Y-93540000D01*
X162410000Y-93540000D02*
X160590000Y-93540000D01*
X160590000Y-93540000D02*
X160590000Y-94460000D01*
X160590000Y-94460000D02*
X162410000Y-94460000D01*
%TO.C,C64*%
X132340000Y-83040000D02*
X132340000Y-83960000D01*
X132340000Y-83960000D02*
X134160000Y-83960000D01*
X134160000Y-83960000D02*
X134160000Y-83040000D01*
X134160000Y-83040000D02*
X132340000Y-83040000D01*
%TO.C,C63*%
X162410000Y-95460000D02*
X162410000Y-94540000D01*
X162410000Y-94540000D02*
X160590000Y-94540000D01*
X160590000Y-94540000D02*
X160590000Y-95460000D01*
X160590000Y-95460000D02*
X162410000Y-95460000D01*
%TO.C,C62*%
X132340000Y-84040000D02*
X132340000Y-84960000D01*
X132340000Y-84960000D02*
X134160000Y-84960000D01*
X134160000Y-84960000D02*
X134160000Y-84040000D01*
X134160000Y-84040000D02*
X132340000Y-84040000D01*
%TO.C,C61*%
X167590000Y-63290000D02*
X167590000Y-64210000D01*
X167590000Y-64210000D02*
X169410000Y-64210000D01*
X169410000Y-64210000D02*
X169410000Y-63290000D01*
X169410000Y-63290000D02*
X167590000Y-63290000D01*
%TO.C,C60*%
X169590000Y-63290000D02*
X169590000Y-64210000D01*
X169590000Y-64210000D02*
X171410000Y-64210000D01*
X171410000Y-64210000D02*
X171410000Y-63290000D01*
X171410000Y-63290000D02*
X169590000Y-63290000D01*
%TO.C,C59*%
X131210000Y-69590000D02*
X130290000Y-69590000D01*
X130290000Y-69590000D02*
X130290000Y-71410000D01*
X130290000Y-71410000D02*
X131210000Y-71410000D01*
X131210000Y-71410000D02*
X131210000Y-69590000D01*
%TO.C,C58*%
X164410000Y-67210000D02*
X164410000Y-66290000D01*
X164410000Y-66290000D02*
X162590000Y-66290000D01*
X162590000Y-66290000D02*
X162590000Y-67210000D01*
X162590000Y-67210000D02*
X164410000Y-67210000D01*
%TO.C,C57*%
X162410000Y-67210000D02*
X162410000Y-66290000D01*
X162410000Y-66290000D02*
X160590000Y-66290000D01*
X160590000Y-66290000D02*
X160590000Y-67210000D01*
X160590000Y-67210000D02*
X162410000Y-67210000D01*
%TO.C,C56*%
X153410000Y-76960000D02*
X153410000Y-76040000D01*
X153410000Y-76040000D02*
X151590000Y-76040000D01*
X151590000Y-76040000D02*
X151590000Y-76960000D01*
X151590000Y-76960000D02*
X153410000Y-76960000D01*
%TO.C,C55*%
X157090000Y-83040000D02*
X157090000Y-83960000D01*
X157090000Y-83960000D02*
X158910000Y-83960000D01*
X158910000Y-83960000D02*
X158910000Y-83040000D01*
X158910000Y-83040000D02*
X157090000Y-83040000D01*
%TO.C,C54*%
X132910000Y-67210000D02*
X132910000Y-66290000D01*
X132910000Y-66290000D02*
X131090000Y-66290000D01*
X131090000Y-66290000D02*
X131090000Y-67210000D01*
X131090000Y-67210000D02*
X132910000Y-67210000D01*
%TO.C,C53*%
X130910000Y-67210000D02*
X130910000Y-66290000D01*
X130910000Y-66290000D02*
X129090000Y-66290000D01*
X129090000Y-66290000D02*
X129090000Y-67210000D01*
X129090000Y-67210000D02*
X130910000Y-67210000D01*
%TO.C,C52*%
X158910000Y-76960000D02*
X158910000Y-76040000D01*
X158910000Y-76040000D02*
X157090000Y-76040000D01*
X157090000Y-76040000D02*
X157090000Y-76960000D01*
X157090000Y-76960000D02*
X158910000Y-76960000D01*
%TO.C,C51*%
X124960000Y-69590000D02*
X124040000Y-69590000D01*
X124040000Y-69590000D02*
X124040000Y-71410000D01*
X124040000Y-71410000D02*
X124960000Y-71410000D01*
X124960000Y-71410000D02*
X124960000Y-69590000D01*
%TO.C,C50*%
X162090000Y-76040000D02*
X162090000Y-76960000D01*
X162090000Y-76960000D02*
X163910000Y-76960000D01*
X163910000Y-76960000D02*
X163910000Y-76040000D01*
X163910000Y-76040000D02*
X162090000Y-76040000D01*
%TO.C,C49*%
X136090000Y-63290000D02*
X136090000Y-64210000D01*
X136090000Y-64210000D02*
X137910000Y-64210000D01*
X137910000Y-64210000D02*
X137910000Y-63290000D01*
X137910000Y-63290000D02*
X136090000Y-63290000D01*
%TO.C,C48*%
X164090000Y-76040000D02*
X164090000Y-76960000D01*
X164090000Y-76960000D02*
X165910000Y-76960000D01*
X165910000Y-76960000D02*
X165910000Y-76040000D01*
X165910000Y-76040000D02*
X164090000Y-76040000D01*
%TO.C,C47*%
X138090000Y-63290000D02*
X138090000Y-64210000D01*
X138090000Y-64210000D02*
X139910000Y-64210000D01*
X139910000Y-64210000D02*
X139910000Y-63290000D01*
X139910000Y-63290000D02*
X138090000Y-63290000D01*
%TO.C,C41*%
X145410000Y-98210000D02*
X145410000Y-97290000D01*
X145410000Y-97290000D02*
X143590000Y-97290000D01*
X143590000Y-97290000D02*
X143590000Y-98210000D01*
X143590000Y-98210000D02*
X145410000Y-98210000D01*
%TO.C,C40*%
X145410000Y-95710000D02*
X145410000Y-94790000D01*
X145410000Y-94790000D02*
X143590000Y-94790000D01*
X143590000Y-94790000D02*
X143590000Y-95710000D01*
X143590000Y-95710000D02*
X145410000Y-95710000D01*
%TO.C,C39*%
X169460000Y-80590000D02*
X168540000Y-80590000D01*
X168540000Y-80590000D02*
X168540000Y-82410000D01*
X168540000Y-82410000D02*
X169460000Y-82410000D01*
X169460000Y-82410000D02*
X169460000Y-80590000D01*
%TO.C,C38*%
X150660000Y-84960000D02*
X150660000Y-84040000D01*
X150660000Y-84040000D02*
X148840000Y-84040000D01*
X148840000Y-84040000D02*
X148840000Y-84960000D01*
X148840000Y-84960000D02*
X150660000Y-84960000D01*
%TO.C,C37*%
X150660000Y-83960000D02*
X150660000Y-83040000D01*
X150660000Y-83040000D02*
X148840000Y-83040000D01*
X148840000Y-83040000D02*
X148840000Y-83960000D01*
X148840000Y-83960000D02*
X150660000Y-83960000D01*
%TO.C,C36*%
X147160000Y-102710000D02*
X147160000Y-101790000D01*
X147160000Y-101790000D02*
X145340000Y-101790000D01*
X145340000Y-101790000D02*
X145340000Y-102710000D01*
X145340000Y-102710000D02*
X147160000Y-102710000D01*
%TO.C,C35*%
X149160000Y-102710000D02*
X149160000Y-101790000D01*
X149160000Y-101790000D02*
X147340000Y-101790000D01*
X147340000Y-101790000D02*
X147340000Y-102710000D01*
X147340000Y-102710000D02*
X149160000Y-102710000D01*
%TO.C,C32*%
X134090000Y-87040000D02*
X134090000Y-87960000D01*
X134090000Y-87960000D02*
X135910000Y-87960000D01*
X135910000Y-87960000D02*
X135910000Y-87040000D01*
X135910000Y-87040000D02*
X134090000Y-87040000D01*
%TO.C,C31*%
X139890200Y-75910000D02*
X140810200Y-75910000D01*
X140810200Y-75910000D02*
X140810200Y-74090000D01*
X140810200Y-74090000D02*
X139890200Y-74090000D01*
X139890200Y-74090000D02*
X139890200Y-75910000D01*
%TO.C,C30*%
X137160000Y-79210000D02*
X137160000Y-78290000D01*
X137160000Y-78290000D02*
X135340000Y-78290000D01*
X135340000Y-78290000D02*
X135340000Y-79210000D01*
X135340000Y-79210000D02*
X137160000Y-79210000D01*
%TO.C,C27*%
X137160000Y-83210000D02*
X137160000Y-82290000D01*
X137160000Y-82290000D02*
X135340000Y-82290000D01*
X135340000Y-82290000D02*
X135340000Y-83210000D01*
X135340000Y-83210000D02*
X137160000Y-83210000D01*
%TO.C,C26*%
X144790000Y-77910000D02*
X145710000Y-77910000D01*
X145710000Y-77910000D02*
X145710000Y-76090000D01*
X145710000Y-76090000D02*
X144790000Y-76090000D01*
X144790000Y-76090000D02*
X144790000Y-77910000D01*
%TO.C,C25*%
X144210200Y-83590000D02*
X143290200Y-83590000D01*
X143290200Y-83590000D02*
X143290200Y-85410000D01*
X143290200Y-85410000D02*
X144210200Y-85410000D01*
X144210200Y-85410000D02*
X144210200Y-83590000D01*
%TO.C,C24*%
X159960000Y-65590000D02*
X159040000Y-65590000D01*
X159040000Y-65590000D02*
X159040000Y-67410000D01*
X159040000Y-67410000D02*
X159960000Y-67410000D01*
X159960000Y-67410000D02*
X159960000Y-65590000D01*
%TO.C,C22*%
X145590000Y-83540000D02*
X145590000Y-84460000D01*
X145590000Y-84460000D02*
X147410000Y-84460000D01*
X147410000Y-84460000D02*
X147410000Y-83540000D01*
X147410000Y-83540000D02*
X145590000Y-83540000D01*
%TO.C,C21*%
X145590000Y-84540000D02*
X145590000Y-85460000D01*
X145590000Y-85460000D02*
X147410000Y-85460000D01*
X147410000Y-85460000D02*
X147410000Y-84540000D01*
X147410000Y-84540000D02*
X145590000Y-84540000D01*
%TO.C,C17*%
X137160000Y-81210000D02*
X137160000Y-80290000D01*
X137160000Y-80290000D02*
X135340000Y-80290000D01*
X135340000Y-80290000D02*
X135340000Y-81210000D01*
X135340000Y-81210000D02*
X137160000Y-81210000D01*
%TO.C,C16*%
X137160000Y-80210000D02*
X137160000Y-79290000D01*
X137160000Y-79290000D02*
X135340000Y-79290000D01*
X135340000Y-79290000D02*
X135340000Y-80210000D01*
X135340000Y-80210000D02*
X137160000Y-80210000D01*
%TO.C,C10*%
X130690200Y-95340000D02*
X130690200Y-96260000D01*
X130690200Y-96260000D02*
X132510200Y-96260000D01*
X132510200Y-96260000D02*
X132510200Y-95340000D01*
X132510200Y-95340000D02*
X130690200Y-95340000D01*
%TO.C,C6*%
X116340000Y-84040000D02*
X116340000Y-84960000D01*
X116340000Y-84960000D02*
X118160000Y-84960000D01*
X118160000Y-84960000D02*
X118160000Y-84040000D01*
X118160000Y-84040000D02*
X116340000Y-84040000D01*
%TO.C,C5*%
X123390000Y-84960000D02*
X123390000Y-84040000D01*
X123390000Y-84040000D02*
X121570000Y-84040000D01*
X121570000Y-84040000D02*
X121570000Y-84960000D01*
X121570000Y-84960000D02*
X123390000Y-84960000D01*
%TO.C,C4*%
X121410000Y-84960000D02*
X121410000Y-84040000D01*
X121410000Y-84040000D02*
X119590000Y-84040000D01*
X119590000Y-84040000D02*
X119590000Y-84960000D01*
X119590000Y-84960000D02*
X121410000Y-84960000D01*
%TO.C,C3*%
X170040000Y-81660000D02*
X170960000Y-81660000D01*
X170960000Y-81660000D02*
X170960000Y-79840000D01*
X170960000Y-79840000D02*
X170040000Y-79840000D01*
X170040000Y-79840000D02*
X170040000Y-81660000D01*
%TD*%
M02*
