%TF.GenerationSoftware,KiCad,Pcbnew,5.1.10-6.fc34*%
%TF.CreationDate,2021-09-22T18:19:27+02:00*%
%TF.ProjectId,mowi,6d6f7769-2e6b-4696-9361-645f70636258,v1.0*%
%TF.SameCoordinates,Original*%
%TF.FileFunction,Legend,Top*%
%TF.FilePolarity,Positive*%
%FSLAX46Y46*%
G04 Gerber Fmt 4.6, Leading zero omitted, Abs format (unit mm)*
G04 Created by KiCad (PCBNEW 5.1.10-6.fc34) date 2021-09-22 18:19:27*
%MOMM*%
%LPD*%
G01*
G04 APERTURE LIST*
%ADD10C,0.150000*%
%ADD11C,0.120000*%
%ADD12C,0.010000*%
%ADD13C,0.200000*%
%ADD14C,0.100000*%
G04 APERTURE END LIST*
D10*
X169500000Y-96250000D02*
X169500000Y-97750000D01*
X168500000Y-105000000D02*
X169000000Y-105250000D01*
X169000000Y-104750000D02*
X168500000Y-105000000D01*
X169500000Y-105000000D02*
X169500000Y-100000000D01*
X169500000Y-105000000D02*
X168500000Y-105000000D01*
X161250000Y-67500000D02*
X161500000Y-68000000D01*
X161250000Y-67500000D02*
X161000000Y-68000000D01*
X157000000Y-98750000D02*
X157000000Y-96250000D01*
X157000000Y-104500000D02*
X157000000Y-100250000D01*
X156500000Y-104250000D02*
X156000000Y-104500000D01*
X156000000Y-104500000D02*
X156500000Y-104750000D01*
X157000000Y-104500000D02*
X156000000Y-104500000D01*
X156500000Y-97750000D02*
X156000000Y-98000000D01*
X156000000Y-98000000D02*
X156500000Y-98250000D01*
X157000000Y-98000000D02*
X156000000Y-98000000D01*
X133261904Y-105200000D02*
X133738095Y-105200000D01*
X133166666Y-105542857D02*
X133500000Y-104342857D01*
X133833333Y-105542857D01*
X134166666Y-104342857D02*
X134166666Y-105314285D01*
X134214285Y-105428571D01*
X134261904Y-105485714D01*
X134357142Y-105542857D01*
X134547619Y-105542857D01*
X134642857Y-105485714D01*
X134690476Y-105428571D01*
X134738095Y-105314285D01*
X134738095Y-104342857D01*
X135119047Y-104342857D02*
X135785714Y-105542857D01*
X135785714Y-104342857D02*
X135119047Y-105542857D01*
X118042857Y-109023809D02*
X116842857Y-109023809D01*
X117700000Y-108690476D01*
X116842857Y-108357142D01*
X118042857Y-108357142D01*
X117700000Y-107928571D02*
X117700000Y-107452380D01*
X118042857Y-108023809D02*
X116842857Y-107690476D01*
X118042857Y-107357142D01*
X118042857Y-107023809D02*
X116842857Y-107023809D01*
X118042857Y-106547619D02*
X116842857Y-106547619D01*
X118042857Y-105976190D01*
X116842857Y-105976190D01*
X130750000Y-67250000D02*
X130500000Y-67750000D01*
X131000000Y-67750000D02*
X130750000Y-67250000D01*
X130750000Y-70250000D02*
X130750000Y-67250000D01*
X144750000Y-67250000D02*
X144500000Y-67750000D01*
X145000000Y-67750000D02*
X144750000Y-67250000D01*
X144750000Y-70250000D02*
X144750000Y-67250000D01*
D11*
X161942857Y-69452380D02*
X161942857Y-68452380D01*
X162247619Y-68452380D01*
X162323809Y-68500000D01*
X162361904Y-68547619D01*
X162400000Y-68642857D01*
X162400000Y-68785714D01*
X162361904Y-68880952D01*
X162323809Y-68928571D01*
X162247619Y-68976190D01*
X161942857Y-68976190D01*
X162666666Y-68452380D02*
X162857142Y-69452380D01*
X163009523Y-68738095D01*
X163161904Y-69452380D01*
X163352380Y-68452380D01*
X163657142Y-69071428D02*
X164266666Y-69071428D01*
X163961904Y-69452380D02*
X163961904Y-68690476D01*
X164647619Y-68452380D02*
X164647619Y-69261904D01*
X164685714Y-69357142D01*
X164723809Y-69404761D01*
X164800000Y-69452380D01*
X164952380Y-69452380D01*
X165028571Y-69404761D01*
X165066666Y-69357142D01*
X165104761Y-69261904D01*
X165104761Y-68452380D01*
X165447619Y-69166666D02*
X165828571Y-69166666D01*
X165371428Y-69452380D02*
X165638095Y-68452380D01*
X165904761Y-69452380D01*
X166628571Y-69452380D02*
X166361904Y-68976190D01*
X166171428Y-69452380D02*
X166171428Y-68452380D01*
X166476190Y-68452380D01*
X166552380Y-68500000D01*
X166590476Y-68547619D01*
X166628571Y-68642857D01*
X166628571Y-68785714D01*
X166590476Y-68880952D01*
X166552380Y-68928571D01*
X166476190Y-68976190D01*
X166171428Y-68976190D01*
X166857142Y-68452380D02*
X167314285Y-68452380D01*
X167085714Y-69452380D02*
X167085714Y-68452380D01*
X168000000Y-69452380D02*
X167542857Y-69452380D01*
X167771428Y-69452380D02*
X167771428Y-68452380D01*
X167695238Y-68595238D01*
X167619047Y-68690476D01*
X167542857Y-68738095D01*
X169219047Y-68928571D02*
X168952380Y-68928571D01*
X168952380Y-69452380D02*
X168952380Y-68452380D01*
X169333333Y-68452380D01*
X170095238Y-69357142D02*
X170057142Y-69404761D01*
X169942857Y-69452380D01*
X169866666Y-69452380D01*
X169752380Y-69404761D01*
X169676190Y-69309523D01*
X169638095Y-69214285D01*
X169600000Y-69023809D01*
X169600000Y-68880952D01*
X169638095Y-68690476D01*
X169676190Y-68595238D01*
X169752380Y-68500000D01*
X169866666Y-68452380D01*
X169942857Y-68452380D01*
X170057142Y-68500000D01*
X170095238Y-68547619D01*
X120133533Y-69702380D02*
X120133533Y-68702380D01*
X120438295Y-68702380D01*
X120514485Y-68750000D01*
X120552580Y-68797619D01*
X120590676Y-68892857D01*
X120590676Y-69035714D01*
X120552580Y-69130952D01*
X120514485Y-69178571D01*
X120438295Y-69226190D01*
X120133533Y-69226190D01*
X120857342Y-68702380D02*
X121047819Y-69702380D01*
X121200200Y-68988095D01*
X121352580Y-69702380D01*
X121543057Y-68702380D01*
X121847819Y-69321428D02*
X122457342Y-69321428D01*
X122152580Y-69702380D02*
X122152580Y-68940476D01*
X123295438Y-69607142D02*
X123257342Y-69654761D01*
X123143057Y-69702380D01*
X123066866Y-69702380D01*
X122952580Y-69654761D01*
X122876390Y-69559523D01*
X122838295Y-69464285D01*
X122800200Y-69273809D01*
X122800200Y-69130952D01*
X122838295Y-68940476D01*
X122876390Y-68845238D01*
X122952580Y-68750000D01*
X123066866Y-68702380D01*
X123143057Y-68702380D01*
X123257342Y-68750000D01*
X123295438Y-68797619D01*
X123790676Y-68702380D02*
X123943057Y-68702380D01*
X124019247Y-68750000D01*
X124095438Y-68845238D01*
X124133533Y-69035714D01*
X124133533Y-69369047D01*
X124095438Y-69559523D01*
X124019247Y-69654761D01*
X123943057Y-69702380D01*
X123790676Y-69702380D01*
X123714485Y-69654761D01*
X123638295Y-69559523D01*
X123600200Y-69369047D01*
X123600200Y-69035714D01*
X123638295Y-68845238D01*
X123714485Y-68750000D01*
X123790676Y-68702380D01*
X124476390Y-69702380D02*
X124476390Y-68702380D01*
X124743057Y-69416666D01*
X125009723Y-68702380D01*
X125009723Y-69702380D01*
X125314485Y-68702380D02*
X125809723Y-68702380D01*
X125543057Y-69083333D01*
X125657342Y-69083333D01*
X125733533Y-69130952D01*
X125771628Y-69178571D01*
X125809723Y-69273809D01*
X125809723Y-69511904D01*
X125771628Y-69607142D01*
X125733533Y-69654761D01*
X125657342Y-69702380D01*
X125428771Y-69702380D01*
X125352580Y-69654761D01*
X125314485Y-69607142D01*
X127028771Y-69178571D02*
X126762104Y-69178571D01*
X126762104Y-69702380D02*
X126762104Y-68702380D01*
X127143057Y-68702380D01*
X127904961Y-69607142D02*
X127866866Y-69654761D01*
X127752580Y-69702380D01*
X127676390Y-69702380D01*
X127562104Y-69654761D01*
X127485914Y-69559523D01*
X127447819Y-69464285D01*
X127409723Y-69273809D01*
X127409723Y-69130952D01*
X127447819Y-68940476D01*
X127485914Y-68845238D01*
X127562104Y-68750000D01*
X127676390Y-68702380D01*
X127752580Y-68702380D01*
X127866866Y-68750000D01*
X127904961Y-68797619D01*
X131962104Y-69702380D02*
X131962104Y-68702380D01*
X132266866Y-68702380D01*
X132343057Y-68750000D01*
X132381152Y-68797619D01*
X132419247Y-68892857D01*
X132419247Y-69035714D01*
X132381152Y-69130952D01*
X132343057Y-69178571D01*
X132266866Y-69226190D01*
X131962104Y-69226190D01*
X132685914Y-68702380D02*
X132876390Y-69702380D01*
X133028771Y-68988095D01*
X133181152Y-69702380D01*
X133371628Y-68702380D01*
X133676390Y-69321428D02*
X134285914Y-69321428D01*
X133981152Y-69702380D02*
X133981152Y-68940476D01*
X134666866Y-69178571D02*
X134933533Y-69178571D01*
X135047819Y-69702380D02*
X134666866Y-69702380D01*
X134666866Y-68702380D01*
X135047819Y-68702380D01*
X135276390Y-68702380D02*
X135543057Y-69702380D01*
X135809723Y-68702380D01*
X136038295Y-69416666D02*
X136419247Y-69416666D01*
X135962104Y-69702380D02*
X136228771Y-68702380D01*
X136495438Y-69702380D01*
X136762104Y-69321428D02*
X137371628Y-69321428D01*
X137066866Y-69702380D02*
X137066866Y-68940476D01*
X137752580Y-69702380D02*
X137752580Y-68702380D01*
X138057342Y-68702380D01*
X138133533Y-68750000D01*
X138171628Y-68797619D01*
X138209723Y-68892857D01*
X138209723Y-69035714D01*
X138171628Y-69130952D01*
X138133533Y-69178571D01*
X138057342Y-69226190D01*
X137752580Y-69226190D01*
X138552580Y-69702380D02*
X138552580Y-68702380D01*
X138857342Y-68702380D01*
X138933533Y-68750000D01*
X138971628Y-68797619D01*
X139009723Y-68892857D01*
X139009723Y-69035714D01*
X138971628Y-69130952D01*
X138933533Y-69178571D01*
X138857342Y-69226190D01*
X138552580Y-69226190D01*
X139314485Y-69654761D02*
X139428771Y-69702380D01*
X139619247Y-69702380D01*
X139695438Y-69654761D01*
X139733533Y-69607142D01*
X139771628Y-69511904D01*
X139771628Y-69416666D01*
X139733533Y-69321428D01*
X139695438Y-69273809D01*
X139619247Y-69226190D01*
X139466866Y-69178571D01*
X139390676Y-69130952D01*
X139352580Y-69083333D01*
X139314485Y-68988095D01*
X139314485Y-68892857D01*
X139352580Y-68797619D01*
X139390676Y-68750000D01*
X139466866Y-68702380D01*
X139657342Y-68702380D01*
X139771628Y-68750000D01*
X140114485Y-69321428D02*
X140724009Y-69321428D01*
X140419247Y-69702380D02*
X140419247Y-68940476D01*
X141562104Y-69607142D02*
X141524009Y-69654761D01*
X141409723Y-69702380D01*
X141333533Y-69702380D01*
X141219247Y-69654761D01*
X141143057Y-69559523D01*
X141104961Y-69464285D01*
X141066866Y-69273809D01*
X141066866Y-69130952D01*
X141104961Y-68940476D01*
X141143057Y-68845238D01*
X141219247Y-68750000D01*
X141333533Y-68702380D01*
X141409723Y-68702380D01*
X141524009Y-68750000D01*
X141562104Y-68797619D01*
X142057342Y-68702380D02*
X142209723Y-68702380D01*
X142285914Y-68750000D01*
X142362104Y-68845238D01*
X142400200Y-69035714D01*
X142400200Y-69369047D01*
X142362104Y-69559523D01*
X142285914Y-69654761D01*
X142209723Y-69702380D01*
X142057342Y-69702380D01*
X141981152Y-69654761D01*
X141904961Y-69559523D01*
X141866866Y-69369047D01*
X141866866Y-69035714D01*
X141904961Y-68845238D01*
X141981152Y-68750000D01*
X142057342Y-68702380D01*
X142743057Y-69702380D02*
X142743057Y-68702380D01*
X143009723Y-69416666D01*
X143276390Y-68702380D01*
X143276390Y-69702380D01*
X144076390Y-69702380D02*
X143619247Y-69702380D01*
X143847819Y-69702380D02*
X143847819Y-68702380D01*
X143771628Y-68845238D01*
X143695438Y-68940476D01*
X143619247Y-68988095D01*
D10*
X149500000Y-72750000D02*
X150000000Y-72500000D01*
X150000000Y-72500000D02*
X149500000Y-72250000D01*
X146750000Y-72500000D02*
X150000000Y-72500000D01*
X162000000Y-72750000D02*
X162500000Y-72500000D01*
X162500000Y-72500000D02*
X162000000Y-72250000D01*
X161250000Y-72500000D02*
X162500000Y-72500000D01*
X161250000Y-76250000D02*
X161250000Y-67500000D01*
D11*
X146452380Y-108054761D02*
X146452380Y-107597619D01*
X147452380Y-107826190D02*
X146452380Y-107826190D01*
X146452380Y-107445238D02*
X146452380Y-106988095D01*
X147452380Y-107216666D02*
X146452380Y-107216666D01*
X147452380Y-106340476D02*
X147452380Y-106721428D01*
X146452380Y-106721428D01*
X147404761Y-105502380D02*
X147452380Y-105388095D01*
X147452380Y-105197619D01*
X147404761Y-105121428D01*
X147357142Y-105083333D01*
X147261904Y-105045238D01*
X147166666Y-105045238D01*
X147071428Y-105083333D01*
X147023809Y-105121428D01*
X146976190Y-105197619D01*
X146928571Y-105350000D01*
X146880952Y-105426190D01*
X146833333Y-105464285D01*
X146738095Y-105502380D01*
X146642857Y-105502380D01*
X146547619Y-105464285D01*
X146500000Y-105426190D01*
X146452380Y-105350000D01*
X146452380Y-105159523D01*
X146500000Y-105045238D01*
X146452380Y-104778571D02*
X147452380Y-104588095D01*
X146738095Y-104435714D01*
X147452380Y-104283333D01*
X146452380Y-104092857D01*
X146452380Y-103902380D02*
X146452380Y-103445238D01*
X147452380Y-103673809D02*
X146452380Y-103673809D01*
X137759523Y-106952380D02*
X137283333Y-106952380D01*
X137235714Y-107428571D01*
X137283333Y-107380952D01*
X137378571Y-107333333D01*
X137616666Y-107333333D01*
X137711904Y-107380952D01*
X137759523Y-107428571D01*
X137807142Y-107523809D01*
X137807142Y-107761904D01*
X137759523Y-107857142D01*
X137711904Y-107904761D01*
X137616666Y-107952380D01*
X137378571Y-107952380D01*
X137283333Y-107904761D01*
X137235714Y-107857142D01*
X138092857Y-106952380D02*
X138426190Y-107952380D01*
X138759523Y-106952380D01*
X136661904Y-103452380D02*
X137280952Y-103452380D01*
X136947619Y-103833333D01*
X137090476Y-103833333D01*
X137185714Y-103880952D01*
X137233333Y-103928571D01*
X137280952Y-104023809D01*
X137280952Y-104261904D01*
X137233333Y-104357142D01*
X137185714Y-104404761D01*
X137090476Y-104452380D01*
X136804761Y-104452380D01*
X136709523Y-104404761D01*
X136661904Y-104357142D01*
X137566666Y-103452380D02*
X137900000Y-104452380D01*
X138233333Y-103452380D01*
X138471428Y-103452380D02*
X139090476Y-103452380D01*
X138757142Y-103833333D01*
X138900000Y-103833333D01*
X138995238Y-103880952D01*
X139042857Y-103928571D01*
X139090476Y-104023809D01*
X139090476Y-104261904D01*
X139042857Y-104357142D01*
X138995238Y-104404761D01*
X138900000Y-104452380D01*
X138614285Y-104452380D01*
X138519047Y-104404761D01*
X138471428Y-104357142D01*
X143785714Y-109178571D02*
X144119047Y-109178571D01*
X144261904Y-109702380D02*
X143785714Y-109702380D01*
X143785714Y-108702380D01*
X144261904Y-108702380D01*
X141166666Y-109702380D02*
X141166666Y-108702380D01*
X141500000Y-109416666D01*
X141833333Y-108702380D01*
X141833333Y-109702380D01*
%TO.C,J7*%
X148190000Y-67600000D02*
X148570000Y-67600000D01*
X148190000Y-63550000D02*
X148190000Y-63290000D01*
X148190000Y-67600000D02*
X148190000Y-65830000D01*
X155810000Y-67600000D02*
X155430000Y-67600000D01*
X155810000Y-65830000D02*
X155810000Y-67600000D01*
X155810000Y-63290000D02*
X155810000Y-63550000D01*
%TO.C,SW1*%
X144910000Y-103190000D02*
X144910000Y-102740000D01*
X144910000Y-102740000D02*
X140490000Y-102740000D01*
X140490000Y-103190000D02*
X140490000Y-102740000D01*
X140490000Y-105010000D02*
X140490000Y-104710000D01*
X140490000Y-106390000D02*
X140490000Y-106690000D01*
X144910000Y-105010000D02*
X144910000Y-104710000D01*
X144910000Y-106390000D02*
X144910000Y-106690000D01*
%TO.C,D7*%
X110740000Y-102540000D02*
X110740000Y-101830000D01*
X110740000Y-99370000D02*
X110740000Y-98340000D01*
X112160000Y-98340000D02*
X110740000Y-98340000D01*
X112160000Y-102540000D02*
X112160000Y-98340000D01*
%TO.C,D6*%
X110740000Y-96800000D02*
X110740000Y-96090000D01*
X110740000Y-93630000D02*
X110740000Y-92600000D01*
X112160000Y-92600000D02*
X110740000Y-92600000D01*
X112160000Y-96800000D02*
X112160000Y-92600000D01*
%TO.C,D5*%
X110740000Y-91060000D02*
X110740000Y-90350000D01*
X110740000Y-87890000D02*
X110740000Y-86860000D01*
X112160000Y-86860000D02*
X110740000Y-86860000D01*
X112160000Y-91060000D02*
X112160000Y-86860000D01*
%TO.C,D4*%
X110740000Y-85320000D02*
X110740000Y-84610000D01*
X110740000Y-82150000D02*
X110740000Y-81120000D01*
X112160000Y-81120000D02*
X110740000Y-81120000D01*
X112160000Y-85320000D02*
X112160000Y-81120000D01*
%TO.C,D3*%
X110740000Y-79580000D02*
X110740000Y-78870000D01*
X110740000Y-76410000D02*
X110740000Y-75380000D01*
X112160000Y-75380000D02*
X110740000Y-75380000D01*
X112160000Y-79580000D02*
X112160000Y-75380000D01*
%TO.C,D2*%
X110740000Y-73840000D02*
X110740000Y-73130000D01*
X110740000Y-70670000D02*
X110740000Y-69640000D01*
X112160000Y-69640000D02*
X110740000Y-69640000D01*
X112160000Y-73840000D02*
X112160000Y-69640000D01*
D12*
%TO.C,G1*%
G36*
X168484883Y-96241930D02*
G01*
X168537943Y-96255034D01*
X168588216Y-96276126D01*
X168603169Y-96284368D01*
X168623657Y-96298632D01*
X168647173Y-96318543D01*
X168671407Y-96341790D01*
X168694047Y-96366062D01*
X168712780Y-96389046D01*
X168722914Y-96404113D01*
X168747237Y-96454241D01*
X168762710Y-96505493D01*
X168769787Y-96557077D01*
X168768922Y-96608204D01*
X168760567Y-96658080D01*
X168745178Y-96705916D01*
X168723206Y-96750919D01*
X168695106Y-96792299D01*
X168661332Y-96829265D01*
X168622336Y-96861024D01*
X168578572Y-96886786D01*
X168530494Y-96905760D01*
X168478556Y-96917154D01*
X168427073Y-96920253D01*
X168405639Y-96919762D01*
X168386671Y-96918995D01*
X168373024Y-96918080D01*
X168369132Y-96917615D01*
X168346909Y-96912360D01*
X168319857Y-96903617D01*
X168291472Y-96892645D01*
X168265249Y-96880707D01*
X168261302Y-96878695D01*
X168234086Y-96861721D01*
X168204930Y-96837818D01*
X168186618Y-96820387D01*
X168166418Y-96799555D01*
X168151340Y-96781747D01*
X168139117Y-96763886D01*
X168127482Y-96742892D01*
X168123008Y-96733987D01*
X168105554Y-96694264D01*
X168094263Y-96656943D01*
X168088419Y-96618585D01*
X168087310Y-96575750D01*
X168087692Y-96563868D01*
X168094260Y-96506620D01*
X168109137Y-96454023D01*
X168132525Y-96405611D01*
X168164628Y-96360918D01*
X168186525Y-96337304D01*
X168228658Y-96301241D01*
X168274345Y-96273503D01*
X168324722Y-96253520D01*
X168378126Y-96241174D01*
X168430967Y-96237187D01*
X168484883Y-96241930D01*
G37*
X168484883Y-96241930D02*
X168537943Y-96255034D01*
X168588216Y-96276126D01*
X168603169Y-96284368D01*
X168623657Y-96298632D01*
X168647173Y-96318543D01*
X168671407Y-96341790D01*
X168694047Y-96366062D01*
X168712780Y-96389046D01*
X168722914Y-96404113D01*
X168747237Y-96454241D01*
X168762710Y-96505493D01*
X168769787Y-96557077D01*
X168768922Y-96608204D01*
X168760567Y-96658080D01*
X168745178Y-96705916D01*
X168723206Y-96750919D01*
X168695106Y-96792299D01*
X168661332Y-96829265D01*
X168622336Y-96861024D01*
X168578572Y-96886786D01*
X168530494Y-96905760D01*
X168478556Y-96917154D01*
X168427073Y-96920253D01*
X168405639Y-96919762D01*
X168386671Y-96918995D01*
X168373024Y-96918080D01*
X168369132Y-96917615D01*
X168346909Y-96912360D01*
X168319857Y-96903617D01*
X168291472Y-96892645D01*
X168265249Y-96880707D01*
X168261302Y-96878695D01*
X168234086Y-96861721D01*
X168204930Y-96837818D01*
X168186618Y-96820387D01*
X168166418Y-96799555D01*
X168151340Y-96781747D01*
X168139117Y-96763886D01*
X168127482Y-96742892D01*
X168123008Y-96733987D01*
X168105554Y-96694264D01*
X168094263Y-96656943D01*
X168088419Y-96618585D01*
X168087310Y-96575750D01*
X168087692Y-96563868D01*
X168094260Y-96506620D01*
X168109137Y-96454023D01*
X168132525Y-96405611D01*
X168164628Y-96360918D01*
X168186525Y-96337304D01*
X168228658Y-96301241D01*
X168274345Y-96273503D01*
X168324722Y-96253520D01*
X168378126Y-96241174D01*
X168430967Y-96237187D01*
X168484883Y-96241930D01*
G36*
X160654018Y-97208452D02*
G01*
X160668123Y-97225143D01*
X160684332Y-97246135D01*
X160699705Y-97267579D01*
X160703465Y-97273151D01*
X160740303Y-97335554D01*
X160768152Y-97398709D01*
X160787419Y-97463975D01*
X160798512Y-97532711D01*
X160801849Y-97601891D01*
X160797363Y-97677772D01*
X160783850Y-97750482D01*
X160761231Y-97820295D01*
X160729423Y-97887481D01*
X160704706Y-97928466D01*
X160691687Y-97947362D01*
X160677228Y-97966775D01*
X160662640Y-97985126D01*
X160649234Y-98000838D01*
X160638320Y-98012333D01*
X160631209Y-98018033D01*
X160630016Y-98018377D01*
X160625841Y-98015132D01*
X160615943Y-98006049D01*
X160601342Y-97992104D01*
X160583054Y-97974275D01*
X160562097Y-97953539D01*
X160552621Y-97944073D01*
X160527030Y-97918189D01*
X160507857Y-97898159D01*
X160494510Y-97883297D01*
X160486401Y-97872916D01*
X160482940Y-97866330D01*
X160483188Y-97863234D01*
X160488528Y-97856318D01*
X160497876Y-97844577D01*
X160508742Y-97831128D01*
X160540127Y-97785082D01*
X160563246Y-97734253D01*
X160578120Y-97678582D01*
X160584763Y-97618207D01*
X160583025Y-97556401D01*
X160572647Y-97498539D01*
X160553683Y-97444781D01*
X160526188Y-97395285D01*
X160496637Y-97357230D01*
X160476576Y-97334727D01*
X160553296Y-97258410D01*
X160630015Y-97182094D01*
X160654018Y-97208452D01*
G37*
X160654018Y-97208452D02*
X160668123Y-97225143D01*
X160684332Y-97246135D01*
X160699705Y-97267579D01*
X160703465Y-97273151D01*
X160740303Y-97335554D01*
X160768152Y-97398709D01*
X160787419Y-97463975D01*
X160798512Y-97532711D01*
X160801849Y-97601891D01*
X160797363Y-97677772D01*
X160783850Y-97750482D01*
X160761231Y-97820295D01*
X160729423Y-97887481D01*
X160704706Y-97928466D01*
X160691687Y-97947362D01*
X160677228Y-97966775D01*
X160662640Y-97985126D01*
X160649234Y-98000838D01*
X160638320Y-98012333D01*
X160631209Y-98018033D01*
X160630016Y-98018377D01*
X160625841Y-98015132D01*
X160615943Y-98006049D01*
X160601342Y-97992104D01*
X160583054Y-97974275D01*
X160562097Y-97953539D01*
X160552621Y-97944073D01*
X160527030Y-97918189D01*
X160507857Y-97898159D01*
X160494510Y-97883297D01*
X160486401Y-97872916D01*
X160482940Y-97866330D01*
X160483188Y-97863234D01*
X160488528Y-97856318D01*
X160497876Y-97844577D01*
X160508742Y-97831128D01*
X160540127Y-97785082D01*
X160563246Y-97734253D01*
X160578120Y-97678582D01*
X160584763Y-97618207D01*
X160583025Y-97556401D01*
X160572647Y-97498539D01*
X160553683Y-97444781D01*
X160526188Y-97395285D01*
X160496637Y-97357230D01*
X160476576Y-97334727D01*
X160553296Y-97258410D01*
X160630015Y-97182094D01*
X160654018Y-97208452D01*
G36*
X159138213Y-97258410D02*
G01*
X159214933Y-97334727D01*
X159194872Y-97357230D01*
X159160273Y-97403033D01*
X159134161Y-97453232D01*
X159116589Y-97507668D01*
X159107612Y-97566182D01*
X159106746Y-97618207D01*
X159113422Y-97678762D01*
X159128321Y-97734417D01*
X159151466Y-97785231D01*
X159182767Y-97831128D01*
X159194025Y-97845066D01*
X159203262Y-97856675D01*
X159208321Y-97863234D01*
X159208299Y-97867170D01*
X159204123Y-97874325D01*
X159195203Y-97885387D01*
X159180951Y-97901041D01*
X159160776Y-97921975D01*
X159138888Y-97944073D01*
X159117105Y-97965750D01*
X159097557Y-97984936D01*
X159081263Y-98000653D01*
X159069239Y-98011924D01*
X159062504Y-98017773D01*
X159061492Y-98018377D01*
X159056923Y-98015078D01*
X159047919Y-98006398D01*
X159036366Y-97994163D01*
X159035508Y-97993217D01*
X158992655Y-97938886D01*
X158956903Y-97878989D01*
X158928475Y-97814637D01*
X158907595Y-97746939D01*
X158894488Y-97677008D01*
X158889378Y-97605955D01*
X158892488Y-97534890D01*
X158904044Y-97464926D01*
X158918509Y-97413483D01*
X158941575Y-97355840D01*
X158971279Y-97299380D01*
X159005940Y-97246999D01*
X159037491Y-97208452D01*
X159061493Y-97182094D01*
X159138213Y-97258410D01*
G37*
X159138213Y-97258410D02*
X159214933Y-97334727D01*
X159194872Y-97357230D01*
X159160273Y-97403033D01*
X159134161Y-97453232D01*
X159116589Y-97507668D01*
X159107612Y-97566182D01*
X159106746Y-97618207D01*
X159113422Y-97678762D01*
X159128321Y-97734417D01*
X159151466Y-97785231D01*
X159182767Y-97831128D01*
X159194025Y-97845066D01*
X159203262Y-97856675D01*
X159208321Y-97863234D01*
X159208299Y-97867170D01*
X159204123Y-97874325D01*
X159195203Y-97885387D01*
X159180951Y-97901041D01*
X159160776Y-97921975D01*
X159138888Y-97944073D01*
X159117105Y-97965750D01*
X159097557Y-97984936D01*
X159081263Y-98000653D01*
X159069239Y-98011924D01*
X159062504Y-98017773D01*
X159061492Y-98018377D01*
X159056923Y-98015078D01*
X159047919Y-98006398D01*
X159036366Y-97994163D01*
X159035508Y-97993217D01*
X158992655Y-97938886D01*
X158956903Y-97878989D01*
X158928475Y-97814637D01*
X158907595Y-97746939D01*
X158894488Y-97677008D01*
X158889378Y-97605955D01*
X158892488Y-97534890D01*
X158904044Y-97464926D01*
X158918509Y-97413483D01*
X158941575Y-97355840D01*
X158971279Y-97299380D01*
X159005940Y-97246999D01*
X159037491Y-97208452D01*
X159061493Y-97182094D01*
X159138213Y-97258410D01*
G36*
X160890505Y-96969665D02*
G01*
X160929856Y-97016937D01*
X160968519Y-97070460D01*
X161004364Y-97127013D01*
X161035261Y-97183371D01*
X161044981Y-97203459D01*
X161080090Y-97290128D01*
X161106159Y-97378996D01*
X161123272Y-97469369D01*
X161131515Y-97560555D01*
X161130973Y-97651858D01*
X161121731Y-97742584D01*
X161103876Y-97832039D01*
X161077493Y-97919529D01*
X161042666Y-98004361D01*
X160999481Y-98085839D01*
X160948024Y-98163270D01*
X160922930Y-98195698D01*
X160908513Y-98213086D01*
X160894634Y-98229110D01*
X160883503Y-98241247D01*
X160880029Y-98244719D01*
X160866233Y-98257798D01*
X160790073Y-98181526D01*
X160713912Y-98105254D01*
X160744186Y-98072892D01*
X160764911Y-98048684D01*
X160787529Y-98018878D01*
X160809889Y-97986562D01*
X160829841Y-97954829D01*
X160843594Y-97930044D01*
X160871848Y-97865488D01*
X160894062Y-97795801D01*
X160909798Y-97723273D01*
X160918617Y-97650194D01*
X160920082Y-97578856D01*
X160917738Y-97542662D01*
X160911995Y-97493455D01*
X160904684Y-97450359D01*
X160895112Y-97409940D01*
X160882807Y-97369421D01*
X160852895Y-97294457D01*
X160814209Y-97222621D01*
X160767325Y-97154936D01*
X160749394Y-97132782D01*
X160719994Y-97097848D01*
X160729441Y-97084858D01*
X160735797Y-97077395D01*
X160747721Y-97064549D01*
X160763940Y-97047648D01*
X160783178Y-97028020D01*
X160803145Y-97008005D01*
X160867402Y-96944142D01*
X160890505Y-96969665D01*
G37*
X160890505Y-96969665D02*
X160929856Y-97016937D01*
X160968519Y-97070460D01*
X161004364Y-97127013D01*
X161035261Y-97183371D01*
X161044981Y-97203459D01*
X161080090Y-97290128D01*
X161106159Y-97378996D01*
X161123272Y-97469369D01*
X161131515Y-97560555D01*
X161130973Y-97651858D01*
X161121731Y-97742584D01*
X161103876Y-97832039D01*
X161077493Y-97919529D01*
X161042666Y-98004361D01*
X160999481Y-98085839D01*
X160948024Y-98163270D01*
X160922930Y-98195698D01*
X160908513Y-98213086D01*
X160894634Y-98229110D01*
X160883503Y-98241247D01*
X160880029Y-98244719D01*
X160866233Y-98257798D01*
X160790073Y-98181526D01*
X160713912Y-98105254D01*
X160744186Y-98072892D01*
X160764911Y-98048684D01*
X160787529Y-98018878D01*
X160809889Y-97986562D01*
X160829841Y-97954829D01*
X160843594Y-97930044D01*
X160871848Y-97865488D01*
X160894062Y-97795801D01*
X160909798Y-97723273D01*
X160918617Y-97650194D01*
X160920082Y-97578856D01*
X160917738Y-97542662D01*
X160911995Y-97493455D01*
X160904684Y-97450359D01*
X160895112Y-97409940D01*
X160882807Y-97369421D01*
X160852895Y-97294457D01*
X160814209Y-97222621D01*
X160767325Y-97154936D01*
X160749394Y-97132782D01*
X160719994Y-97097848D01*
X160729441Y-97084858D01*
X160735797Y-97077395D01*
X160747721Y-97064549D01*
X160763940Y-97047648D01*
X160783178Y-97028020D01*
X160803145Y-97008005D01*
X160867402Y-96944142D01*
X160890505Y-96969665D01*
G36*
X158899207Y-97018885D02*
G01*
X158924850Y-97044905D01*
X158944069Y-97065052D01*
X158957442Y-97079999D01*
X158965548Y-97090421D01*
X158968964Y-97096990D01*
X158968698Y-97099938D01*
X158963831Y-97106188D01*
X158954401Y-97118020D01*
X158941892Y-97133580D01*
X158931329Y-97146644D01*
X158884232Y-97212198D01*
X158845190Y-97282200D01*
X158814295Y-97355799D01*
X158791637Y-97432148D01*
X158777306Y-97510396D01*
X158771393Y-97589695D01*
X158773988Y-97669194D01*
X158785182Y-97748046D01*
X158805065Y-97825399D01*
X158833727Y-97900406D01*
X158847915Y-97930044D01*
X158864019Y-97958761D01*
X158884409Y-97990756D01*
X158906934Y-98022936D01*
X158929441Y-98052208D01*
X158947341Y-98072911D01*
X158977632Y-98105292D01*
X158901187Y-98181738D01*
X158824741Y-98258183D01*
X158805124Y-98237723D01*
X158760646Y-98186236D01*
X158718294Y-98127302D01*
X158679299Y-98063018D01*
X158644892Y-97995481D01*
X158616306Y-97926789D01*
X158607273Y-97900962D01*
X158582151Y-97810034D01*
X158566220Y-97717563D01*
X158559438Y-97624316D01*
X158561763Y-97531056D01*
X158573150Y-97438551D01*
X158593557Y-97347567D01*
X158622941Y-97258867D01*
X158646528Y-97203459D01*
X158674666Y-97148694D01*
X158708309Y-97092777D01*
X158745420Y-97038773D01*
X158783964Y-96989753D01*
X158801597Y-96969742D01*
X158824962Y-96944296D01*
X158899207Y-97018885D01*
G37*
X158899207Y-97018885D02*
X158924850Y-97044905D01*
X158944069Y-97065052D01*
X158957442Y-97079999D01*
X158965548Y-97090421D01*
X158968964Y-97096990D01*
X158968698Y-97099938D01*
X158963831Y-97106188D01*
X158954401Y-97118020D01*
X158941892Y-97133580D01*
X158931329Y-97146644D01*
X158884232Y-97212198D01*
X158845190Y-97282200D01*
X158814295Y-97355799D01*
X158791637Y-97432148D01*
X158777306Y-97510396D01*
X158771393Y-97589695D01*
X158773988Y-97669194D01*
X158785182Y-97748046D01*
X158805065Y-97825399D01*
X158833727Y-97900406D01*
X158847915Y-97930044D01*
X158864019Y-97958761D01*
X158884409Y-97990756D01*
X158906934Y-98022936D01*
X158929441Y-98052208D01*
X158947341Y-98072911D01*
X158977632Y-98105292D01*
X158901187Y-98181738D01*
X158824741Y-98258183D01*
X158805124Y-98237723D01*
X158760646Y-98186236D01*
X158718294Y-98127302D01*
X158679299Y-98063018D01*
X158644892Y-97995481D01*
X158616306Y-97926789D01*
X158607273Y-97900962D01*
X158582151Y-97810034D01*
X158566220Y-97717563D01*
X158559438Y-97624316D01*
X158561763Y-97531056D01*
X158573150Y-97438551D01*
X158593557Y-97347567D01*
X158622941Y-97258867D01*
X158646528Y-97203459D01*
X158674666Y-97148694D01*
X158708309Y-97092777D01*
X158745420Y-97038773D01*
X158783964Y-96989753D01*
X158801597Y-96969742D01*
X158824962Y-96944296D01*
X158899207Y-97018885D01*
G36*
X161129239Y-96763619D02*
G01*
X161195575Y-96841015D01*
X161255823Y-96925098D01*
X161309399Y-97014710D01*
X161355719Y-97108692D01*
X161394198Y-97205885D01*
X161424254Y-97305130D01*
X161441502Y-97383377D01*
X161456309Y-97489869D01*
X161461682Y-97596118D01*
X161457769Y-97701631D01*
X161444715Y-97805916D01*
X161422670Y-97908479D01*
X161391779Y-98008826D01*
X161352191Y-98106466D01*
X161304053Y-98200904D01*
X161247512Y-98291647D01*
X161182716Y-98378203D01*
X161124281Y-98444905D01*
X161090553Y-98480849D01*
X161012164Y-98403279D01*
X160933776Y-98325710D01*
X160969819Y-98288261D01*
X161031711Y-98217142D01*
X161086035Y-98140581D01*
X161132595Y-98059259D01*
X161171196Y-97973859D01*
X161201642Y-97885062D01*
X161223738Y-97793551D01*
X161237289Y-97700007D01*
X161242099Y-97605113D01*
X161237972Y-97509551D01*
X161224713Y-97414003D01*
X161222970Y-97404943D01*
X161207147Y-97339721D01*
X161185154Y-97271286D01*
X161158161Y-97202588D01*
X161127338Y-97136576D01*
X161093855Y-97076202D01*
X161090300Y-97070417D01*
X161053941Y-97015981D01*
X161011958Y-96961032D01*
X160976221Y-96918656D01*
X160939577Y-96876741D01*
X161015684Y-96800245D01*
X161091792Y-96723749D01*
X161129239Y-96763619D01*
G37*
X161129239Y-96763619D02*
X161195575Y-96841015D01*
X161255823Y-96925098D01*
X161309399Y-97014710D01*
X161355719Y-97108692D01*
X161394198Y-97205885D01*
X161424254Y-97305130D01*
X161441502Y-97383377D01*
X161456309Y-97489869D01*
X161461682Y-97596118D01*
X161457769Y-97701631D01*
X161444715Y-97805916D01*
X161422670Y-97908479D01*
X161391779Y-98008826D01*
X161352191Y-98106466D01*
X161304053Y-98200904D01*
X161247512Y-98291647D01*
X161182716Y-98378203D01*
X161124281Y-98444905D01*
X161090553Y-98480849D01*
X161012164Y-98403279D01*
X160933776Y-98325710D01*
X160969819Y-98288261D01*
X161031711Y-98217142D01*
X161086035Y-98140581D01*
X161132595Y-98059259D01*
X161171196Y-97973859D01*
X161201642Y-97885062D01*
X161223738Y-97793551D01*
X161237289Y-97700007D01*
X161242099Y-97605113D01*
X161237972Y-97509551D01*
X161224713Y-97414003D01*
X161222970Y-97404943D01*
X161207147Y-97339721D01*
X161185154Y-97271286D01*
X161158161Y-97202588D01*
X161127338Y-97136576D01*
X161093855Y-97076202D01*
X161090300Y-97070417D01*
X161053941Y-97015981D01*
X161011958Y-96961032D01*
X160976221Y-96918656D01*
X160939577Y-96876741D01*
X161015684Y-96800245D01*
X161091792Y-96723749D01*
X161129239Y-96763619D01*
G36*
X158675965Y-96800663D02*
G01*
X158751932Y-96876741D01*
X158715287Y-96918656D01*
X158654372Y-96993669D01*
X158602303Y-97069519D01*
X158558350Y-97147463D01*
X158521783Y-97228756D01*
X158499666Y-97289924D01*
X158475576Y-97374170D01*
X158459505Y-97456449D01*
X158451077Y-97539416D01*
X158449914Y-97625725D01*
X158450279Y-97637377D01*
X158458348Y-97733979D01*
X158475329Y-97828512D01*
X158500943Y-97920312D01*
X158534913Y-98008713D01*
X158576959Y-98093050D01*
X158626802Y-98172657D01*
X158684163Y-98246870D01*
X158723867Y-98290381D01*
X158757691Y-98325158D01*
X158681156Y-98401805D01*
X158659015Y-98423838D01*
X158639092Y-98443395D01*
X158622390Y-98459513D01*
X158609911Y-98471230D01*
X158602658Y-98477586D01*
X158601294Y-98478452D01*
X158597018Y-98475091D01*
X158587671Y-98465894D01*
X158574549Y-98452187D01*
X158558946Y-98435300D01*
X158555705Y-98431726D01*
X158522169Y-98393760D01*
X158493583Y-98359246D01*
X158467689Y-98325317D01*
X158442229Y-98289107D01*
X158435563Y-98279205D01*
X158379458Y-98186807D01*
X158332168Y-98091011D01*
X158293754Y-97992325D01*
X158264278Y-97891255D01*
X158243801Y-97788309D01*
X158232385Y-97683995D01*
X158230090Y-97578819D01*
X158236980Y-97473289D01*
X158253114Y-97367912D01*
X158278554Y-97263195D01*
X158303243Y-97186886D01*
X158326549Y-97128502D01*
X158355515Y-97066598D01*
X158388620Y-97004005D01*
X158424346Y-96943555D01*
X158461173Y-96888080D01*
X158470457Y-96875208D01*
X158486726Y-96853778D01*
X158505912Y-96829628D01*
X158526400Y-96804683D01*
X158546572Y-96780872D01*
X158564812Y-96760121D01*
X158579503Y-96744357D01*
X158583820Y-96740075D01*
X158599998Y-96724584D01*
X158675965Y-96800663D01*
G37*
X158675965Y-96800663D02*
X158751932Y-96876741D01*
X158715287Y-96918656D01*
X158654372Y-96993669D01*
X158602303Y-97069519D01*
X158558350Y-97147463D01*
X158521783Y-97228756D01*
X158499666Y-97289924D01*
X158475576Y-97374170D01*
X158459505Y-97456449D01*
X158451077Y-97539416D01*
X158449914Y-97625725D01*
X158450279Y-97637377D01*
X158458348Y-97733979D01*
X158475329Y-97828512D01*
X158500943Y-97920312D01*
X158534913Y-98008713D01*
X158576959Y-98093050D01*
X158626802Y-98172657D01*
X158684163Y-98246870D01*
X158723867Y-98290381D01*
X158757691Y-98325158D01*
X158681156Y-98401805D01*
X158659015Y-98423838D01*
X158639092Y-98443395D01*
X158622390Y-98459513D01*
X158609911Y-98471230D01*
X158602658Y-98477586D01*
X158601294Y-98478452D01*
X158597018Y-98475091D01*
X158587671Y-98465894D01*
X158574549Y-98452187D01*
X158558946Y-98435300D01*
X158555705Y-98431726D01*
X158522169Y-98393760D01*
X158493583Y-98359246D01*
X158467689Y-98325317D01*
X158442229Y-98289107D01*
X158435563Y-98279205D01*
X158379458Y-98186807D01*
X158332168Y-98091011D01*
X158293754Y-97992325D01*
X158264278Y-97891255D01*
X158243801Y-97788309D01*
X158232385Y-97683995D01*
X158230090Y-97578819D01*
X158236980Y-97473289D01*
X158253114Y-97367912D01*
X158278554Y-97263195D01*
X158303243Y-97186886D01*
X158326549Y-97128502D01*
X158355515Y-97066598D01*
X158388620Y-97004005D01*
X158424346Y-96943555D01*
X158461173Y-96888080D01*
X158470457Y-96875208D01*
X158486726Y-96853778D01*
X158505912Y-96829628D01*
X158526400Y-96804683D01*
X158546572Y-96780872D01*
X158564812Y-96760121D01*
X158579503Y-96744357D01*
X158583820Y-96740075D01*
X158599998Y-96724584D01*
X158675965Y-96800663D01*
G36*
X159306461Y-96240608D02*
G01*
X159314207Y-96242595D01*
X159351640Y-96257257D01*
X159382654Y-96278260D01*
X159408223Y-96306459D01*
X159429323Y-96342712D01*
X159430022Y-96344201D01*
X159436252Y-96358749D01*
X159440139Y-96371945D01*
X159442220Y-96386888D01*
X159443029Y-96406676D01*
X159443125Y-96420094D01*
X159442850Y-96443516D01*
X159441591Y-96460476D01*
X159438806Y-96474089D01*
X159433953Y-96487467D01*
X159429778Y-96496773D01*
X159420283Y-96515146D01*
X159409671Y-96532771D01*
X159402563Y-96542793D01*
X159388759Y-96560058D01*
X159489398Y-96724906D01*
X159511814Y-96761594D01*
X159533072Y-96796331D01*
X159552561Y-96828125D01*
X159569674Y-96855983D01*
X159583800Y-96878915D01*
X159594331Y-96895929D01*
X159600656Y-96906034D01*
X159601605Y-96907512D01*
X159613173Y-96925270D01*
X159630993Y-96917824D01*
X159667818Y-96905431D01*
X159711559Y-96895624D01*
X159759841Y-96888630D01*
X159810293Y-96884678D01*
X159860538Y-96883994D01*
X159908204Y-96886806D01*
X159928495Y-96889320D01*
X159958606Y-96894499D01*
X159990941Y-96901281D01*
X160022467Y-96908937D01*
X160050151Y-96916737D01*
X160068702Y-96923053D01*
X160071812Y-96921690D01*
X160077362Y-96915713D01*
X160085684Y-96904616D01*
X160097114Y-96887895D01*
X160111984Y-96865044D01*
X160130628Y-96835558D01*
X160153381Y-96798933D01*
X160180575Y-96754662D01*
X160187488Y-96743355D01*
X160298987Y-96560830D01*
X160281524Y-96537041D01*
X160260619Y-96501494D01*
X160247983Y-96464223D01*
X160243171Y-96426353D01*
X160245739Y-96389005D01*
X160255243Y-96353304D01*
X160271239Y-96320372D01*
X160293282Y-96291333D01*
X160320929Y-96267309D01*
X160353736Y-96249423D01*
X160391257Y-96238800D01*
X160399958Y-96237565D01*
X160432440Y-96238109D01*
X160466190Y-96246271D01*
X160498543Y-96260924D01*
X160526832Y-96280946D01*
X160543119Y-96297965D01*
X160565748Y-96333889D01*
X160580088Y-96373249D01*
X160585845Y-96414473D01*
X160582727Y-96455989D01*
X160576887Y-96479116D01*
X160560465Y-96516370D01*
X160537518Y-96548061D01*
X160509162Y-96573397D01*
X160476513Y-96591585D01*
X160440687Y-96601833D01*
X160402798Y-96603349D01*
X160402025Y-96603285D01*
X160385163Y-96601453D01*
X160371486Y-96599279D01*
X160365324Y-96597694D01*
X160362390Y-96598591D01*
X160357494Y-96603364D01*
X160350250Y-96612591D01*
X160340275Y-96626849D01*
X160327184Y-96646718D01*
X160310592Y-96672773D01*
X160290115Y-96705594D01*
X160265367Y-96745758D01*
X160249107Y-96772315D01*
X160226307Y-96809717D01*
X160205132Y-96844636D01*
X160186093Y-96876218D01*
X160169701Y-96903607D01*
X160156466Y-96925947D01*
X160146899Y-96942384D01*
X160141511Y-96952061D01*
X160140490Y-96954316D01*
X160144455Y-96958981D01*
X160150507Y-96961778D01*
X160164136Y-96968086D01*
X160183153Y-96979587D01*
X160205859Y-96995022D01*
X160230554Y-97013131D01*
X160255540Y-97032653D01*
X160279117Y-97052328D01*
X160299586Y-97070897D01*
X160305579Y-97076777D01*
X160355506Y-97132630D01*
X160397682Y-97192104D01*
X160432305Y-97255733D01*
X160459569Y-97324048D01*
X160479671Y-97397582D01*
X160492808Y-97476867D01*
X160499175Y-97562435D01*
X160499885Y-97603973D01*
X160497908Y-97671649D01*
X160491764Y-97740365D01*
X160481241Y-97810919D01*
X160466129Y-97884108D01*
X160446216Y-97960730D01*
X160421293Y-98041582D01*
X160391148Y-98127462D01*
X160355570Y-98219167D01*
X160314349Y-98317496D01*
X160306514Y-98335502D01*
X160281166Y-98392743D01*
X160253355Y-98454251D01*
X160223529Y-98519114D01*
X160192132Y-98586422D01*
X160159609Y-98655265D01*
X160126408Y-98724733D01*
X160092973Y-98793915D01*
X160059750Y-98861900D01*
X160027185Y-98927779D01*
X159995722Y-98990641D01*
X159965809Y-99049575D01*
X159937890Y-99103671D01*
X159912412Y-99152020D01*
X159889819Y-99193709D01*
X159870558Y-99227829D01*
X159865521Y-99236410D01*
X159855120Y-99253934D01*
X159833905Y-99217240D01*
X159778873Y-99119942D01*
X159722628Y-99016483D01*
X159665948Y-98908467D01*
X159609612Y-98797495D01*
X159554399Y-98685172D01*
X159501088Y-98573099D01*
X159450457Y-98462879D01*
X159403286Y-98356116D01*
X159360352Y-98254411D01*
X159332855Y-98186113D01*
X159291260Y-98074607D01*
X159256708Y-97969259D01*
X159229159Y-97869765D01*
X159208575Y-97775822D01*
X159194915Y-97687128D01*
X159188143Y-97603380D01*
X159188217Y-97524275D01*
X159195101Y-97449510D01*
X159208754Y-97378783D01*
X159222838Y-97329935D01*
X159250453Y-97259678D01*
X159285159Y-97194955D01*
X159327371Y-97135244D01*
X159377500Y-97080025D01*
X159435960Y-97028776D01*
X159494707Y-96986490D01*
X159514000Y-96973567D01*
X159529999Y-96962484D01*
X159541201Y-96954309D01*
X159546104Y-96950110D01*
X159546203Y-96949880D01*
X159543776Y-96945370D01*
X159536844Y-96933545D01*
X159525924Y-96915257D01*
X159511529Y-96891359D01*
X159494174Y-96862702D01*
X159474371Y-96830138D01*
X159452637Y-96794519D01*
X159439068Y-96772339D01*
X159412251Y-96728671D01*
X159389908Y-96692600D01*
X159371609Y-96663490D01*
X159356928Y-96640700D01*
X159345434Y-96623593D01*
X159336700Y-96611530D01*
X159330297Y-96603873D01*
X159325797Y-96599984D01*
X159322873Y-96599201D01*
X159314028Y-96600096D01*
X159298502Y-96600904D01*
X159279200Y-96601486D01*
X159273056Y-96601597D01*
X159251449Y-96601508D01*
X159235718Y-96599993D01*
X159222181Y-96596340D01*
X159207157Y-96589836D01*
X159203770Y-96588189D01*
X159170062Y-96566592D01*
X159142622Y-96538729D01*
X159121883Y-96505936D01*
X159108277Y-96469552D01*
X159102236Y-96430913D01*
X159104192Y-96391356D01*
X159114577Y-96352219D01*
X159122022Y-96335286D01*
X159143050Y-96302561D01*
X159169858Y-96275699D01*
X159201025Y-96255388D01*
X159235128Y-96242312D01*
X159270748Y-96237156D01*
X159306461Y-96240608D01*
G37*
X159306461Y-96240608D02*
X159314207Y-96242595D01*
X159351640Y-96257257D01*
X159382654Y-96278260D01*
X159408223Y-96306459D01*
X159429323Y-96342712D01*
X159430022Y-96344201D01*
X159436252Y-96358749D01*
X159440139Y-96371945D01*
X159442220Y-96386888D01*
X159443029Y-96406676D01*
X159443125Y-96420094D01*
X159442850Y-96443516D01*
X159441591Y-96460476D01*
X159438806Y-96474089D01*
X159433953Y-96487467D01*
X159429778Y-96496773D01*
X159420283Y-96515146D01*
X159409671Y-96532771D01*
X159402563Y-96542793D01*
X159388759Y-96560058D01*
X159489398Y-96724906D01*
X159511814Y-96761594D01*
X159533072Y-96796331D01*
X159552561Y-96828125D01*
X159569674Y-96855983D01*
X159583800Y-96878915D01*
X159594331Y-96895929D01*
X159600656Y-96906034D01*
X159601605Y-96907512D01*
X159613173Y-96925270D01*
X159630993Y-96917824D01*
X159667818Y-96905431D01*
X159711559Y-96895624D01*
X159759841Y-96888630D01*
X159810293Y-96884678D01*
X159860538Y-96883994D01*
X159908204Y-96886806D01*
X159928495Y-96889320D01*
X159958606Y-96894499D01*
X159990941Y-96901281D01*
X160022467Y-96908937D01*
X160050151Y-96916737D01*
X160068702Y-96923053D01*
X160071812Y-96921690D01*
X160077362Y-96915713D01*
X160085684Y-96904616D01*
X160097114Y-96887895D01*
X160111984Y-96865044D01*
X160130628Y-96835558D01*
X160153381Y-96798933D01*
X160180575Y-96754662D01*
X160187488Y-96743355D01*
X160298987Y-96560830D01*
X160281524Y-96537041D01*
X160260619Y-96501494D01*
X160247983Y-96464223D01*
X160243171Y-96426353D01*
X160245739Y-96389005D01*
X160255243Y-96353304D01*
X160271239Y-96320372D01*
X160293282Y-96291333D01*
X160320929Y-96267309D01*
X160353736Y-96249423D01*
X160391257Y-96238800D01*
X160399958Y-96237565D01*
X160432440Y-96238109D01*
X160466190Y-96246271D01*
X160498543Y-96260924D01*
X160526832Y-96280946D01*
X160543119Y-96297965D01*
X160565748Y-96333889D01*
X160580088Y-96373249D01*
X160585845Y-96414473D01*
X160582727Y-96455989D01*
X160576887Y-96479116D01*
X160560465Y-96516370D01*
X160537518Y-96548061D01*
X160509162Y-96573397D01*
X160476513Y-96591585D01*
X160440687Y-96601833D01*
X160402798Y-96603349D01*
X160402025Y-96603285D01*
X160385163Y-96601453D01*
X160371486Y-96599279D01*
X160365324Y-96597694D01*
X160362390Y-96598591D01*
X160357494Y-96603364D01*
X160350250Y-96612591D01*
X160340275Y-96626849D01*
X160327184Y-96646718D01*
X160310592Y-96672773D01*
X160290115Y-96705594D01*
X160265367Y-96745758D01*
X160249107Y-96772315D01*
X160226307Y-96809717D01*
X160205132Y-96844636D01*
X160186093Y-96876218D01*
X160169701Y-96903607D01*
X160156466Y-96925947D01*
X160146899Y-96942384D01*
X160141511Y-96952061D01*
X160140490Y-96954316D01*
X160144455Y-96958981D01*
X160150507Y-96961778D01*
X160164136Y-96968086D01*
X160183153Y-96979587D01*
X160205859Y-96995022D01*
X160230554Y-97013131D01*
X160255540Y-97032653D01*
X160279117Y-97052328D01*
X160299586Y-97070897D01*
X160305579Y-97076777D01*
X160355506Y-97132630D01*
X160397682Y-97192104D01*
X160432305Y-97255733D01*
X160459569Y-97324048D01*
X160479671Y-97397582D01*
X160492808Y-97476867D01*
X160499175Y-97562435D01*
X160499885Y-97603973D01*
X160497908Y-97671649D01*
X160491764Y-97740365D01*
X160481241Y-97810919D01*
X160466129Y-97884108D01*
X160446216Y-97960730D01*
X160421293Y-98041582D01*
X160391148Y-98127462D01*
X160355570Y-98219167D01*
X160314349Y-98317496D01*
X160306514Y-98335502D01*
X160281166Y-98392743D01*
X160253355Y-98454251D01*
X160223529Y-98519114D01*
X160192132Y-98586422D01*
X160159609Y-98655265D01*
X160126408Y-98724733D01*
X160092973Y-98793915D01*
X160059750Y-98861900D01*
X160027185Y-98927779D01*
X159995722Y-98990641D01*
X159965809Y-99049575D01*
X159937890Y-99103671D01*
X159912412Y-99152020D01*
X159889819Y-99193709D01*
X159870558Y-99227829D01*
X159865521Y-99236410D01*
X159855120Y-99253934D01*
X159833905Y-99217240D01*
X159778873Y-99119942D01*
X159722628Y-99016483D01*
X159665948Y-98908467D01*
X159609612Y-98797495D01*
X159554399Y-98685172D01*
X159501088Y-98573099D01*
X159450457Y-98462879D01*
X159403286Y-98356116D01*
X159360352Y-98254411D01*
X159332855Y-98186113D01*
X159291260Y-98074607D01*
X159256708Y-97969259D01*
X159229159Y-97869765D01*
X159208575Y-97775822D01*
X159194915Y-97687128D01*
X159188143Y-97603380D01*
X159188217Y-97524275D01*
X159195101Y-97449510D01*
X159208754Y-97378783D01*
X159222838Y-97329935D01*
X159250453Y-97259678D01*
X159285159Y-97194955D01*
X159327371Y-97135244D01*
X159377500Y-97080025D01*
X159435960Y-97028776D01*
X159494707Y-96986490D01*
X159514000Y-96973567D01*
X159529999Y-96962484D01*
X159541201Y-96954309D01*
X159546104Y-96950110D01*
X159546203Y-96949880D01*
X159543776Y-96945370D01*
X159536844Y-96933545D01*
X159525924Y-96915257D01*
X159511529Y-96891359D01*
X159494174Y-96862702D01*
X159474371Y-96830138D01*
X159452637Y-96794519D01*
X159439068Y-96772339D01*
X159412251Y-96728671D01*
X159389908Y-96692600D01*
X159371609Y-96663490D01*
X159356928Y-96640700D01*
X159345434Y-96623593D01*
X159336700Y-96611530D01*
X159330297Y-96603873D01*
X159325797Y-96599984D01*
X159322873Y-96599201D01*
X159314028Y-96600096D01*
X159298502Y-96600904D01*
X159279200Y-96601486D01*
X159273056Y-96601597D01*
X159251449Y-96601508D01*
X159235718Y-96599993D01*
X159222181Y-96596340D01*
X159207157Y-96589836D01*
X159203770Y-96588189D01*
X159170062Y-96566592D01*
X159142622Y-96538729D01*
X159121883Y-96505936D01*
X159108277Y-96469552D01*
X159102236Y-96430913D01*
X159104192Y-96391356D01*
X159114577Y-96352219D01*
X159122022Y-96335286D01*
X159143050Y-96302561D01*
X159169858Y-96275699D01*
X159201025Y-96255388D01*
X159235128Y-96242312D01*
X159270748Y-96237156D01*
X159306461Y-96240608D01*
G36*
X164666461Y-97092550D02*
G01*
X164737103Y-97106324D01*
X164804556Y-97129138D01*
X164868819Y-97160989D01*
X164929889Y-97201876D01*
X164986480Y-97250563D01*
X165029522Y-97296722D01*
X165065616Y-97346131D01*
X165095844Y-97400540D01*
X165121288Y-97461704D01*
X165127096Y-97478459D01*
X165131641Y-97491996D01*
X165135721Y-97504345D01*
X165139360Y-97516072D01*
X165142584Y-97527738D01*
X165145418Y-97539909D01*
X165147886Y-97553149D01*
X165150015Y-97568020D01*
X165151828Y-97585088D01*
X165153352Y-97604916D01*
X165154611Y-97628068D01*
X165155630Y-97655107D01*
X165156435Y-97686599D01*
X165157051Y-97723106D01*
X165157502Y-97765193D01*
X165157814Y-97813423D01*
X165158013Y-97868361D01*
X165158122Y-97930571D01*
X165158168Y-98000615D01*
X165158176Y-98079059D01*
X165158169Y-98166466D01*
X165158169Y-98175958D01*
X165158151Y-98263838D01*
X165158097Y-98342656D01*
X165158003Y-98412936D01*
X165157862Y-98475200D01*
X165157668Y-98529972D01*
X165157415Y-98577774D01*
X165157097Y-98619130D01*
X165156707Y-98654563D01*
X165156240Y-98684595D01*
X165155690Y-98709751D01*
X165155050Y-98730552D01*
X165154314Y-98747523D01*
X165153477Y-98761186D01*
X165152532Y-98772064D01*
X165151474Y-98780681D01*
X165151109Y-98783049D01*
X165134854Y-98855109D01*
X165110166Y-98922629D01*
X165076965Y-98985768D01*
X165035172Y-99044685D01*
X165001202Y-99083043D01*
X164945516Y-99135022D01*
X164887263Y-99177910D01*
X164825946Y-99211974D01*
X164761072Y-99237482D01*
X164692144Y-99254700D01*
X164678811Y-99257014D01*
X164645029Y-99260987D01*
X164606042Y-99263170D01*
X164565620Y-99263520D01*
X164527532Y-99261992D01*
X164499226Y-99259102D01*
X164446483Y-99248094D01*
X164391191Y-99230403D01*
X164336289Y-99207204D01*
X164284717Y-99179673D01*
X164258556Y-99162916D01*
X164225550Y-99137636D01*
X164191046Y-99106641D01*
X164157614Y-99072537D01*
X164127825Y-99037929D01*
X164106446Y-99008792D01*
X164074400Y-98953336D01*
X164047252Y-98891938D01*
X164027833Y-98833094D01*
X164015188Y-98787566D01*
X164015188Y-97972806D01*
X164305149Y-97972806D01*
X164305168Y-98046750D01*
X164305195Y-98129490D01*
X164305203Y-98169011D01*
X164305207Y-98256668D01*
X164305214Y-98335283D01*
X164305251Y-98405399D01*
X164305345Y-98467559D01*
X164305521Y-98522306D01*
X164305808Y-98570182D01*
X164306232Y-98611732D01*
X164306819Y-98647498D01*
X164307596Y-98678022D01*
X164308591Y-98703848D01*
X164309829Y-98725519D01*
X164311337Y-98743577D01*
X164313143Y-98758566D01*
X164315273Y-98771029D01*
X164317754Y-98781508D01*
X164320612Y-98790547D01*
X164323874Y-98798688D01*
X164327567Y-98806474D01*
X164331718Y-98814449D01*
X164336354Y-98823155D01*
X164337540Y-98825411D01*
X164364230Y-98866295D01*
X164398268Y-98901862D01*
X164438488Y-98931195D01*
X164483724Y-98953377D01*
X164512174Y-98962707D01*
X164548340Y-98969144D01*
X164588762Y-98970787D01*
X164629485Y-98967756D01*
X164666559Y-98960171D01*
X164674151Y-98957795D01*
X164721052Y-98937074D01*
X164763109Y-98908663D01*
X164799358Y-98873518D01*
X164828835Y-98832593D01*
X164850576Y-98786847D01*
X164852740Y-98780723D01*
X164863452Y-98749226D01*
X164864824Y-98193301D01*
X164865025Y-98097325D01*
X164865129Y-98010688D01*
X164865136Y-97933143D01*
X164865044Y-97864446D01*
X164864850Y-97804349D01*
X164864554Y-97752609D01*
X164864153Y-97708978D01*
X164863647Y-97673211D01*
X164863032Y-97645062D01*
X164862308Y-97624286D01*
X164861474Y-97610637D01*
X164860875Y-97605495D01*
X164850160Y-97565700D01*
X164831657Y-97525136D01*
X164808975Y-97489672D01*
X164777278Y-97453684D01*
X164739986Y-97424411D01*
X164696060Y-97401125D01*
X164666962Y-97390017D01*
X164636979Y-97382742D01*
X164602438Y-97378850D01*
X164566737Y-97378390D01*
X164533271Y-97381412D01*
X164506415Y-97387632D01*
X164456486Y-97408728D01*
X164412806Y-97435950D01*
X164376066Y-97468747D01*
X164346956Y-97506565D01*
X164337923Y-97522358D01*
X164333046Y-97531510D01*
X164328675Y-97539613D01*
X164324784Y-97547212D01*
X164321345Y-97554855D01*
X164318331Y-97563090D01*
X164315712Y-97572462D01*
X164313463Y-97583520D01*
X164311555Y-97596809D01*
X164309960Y-97612878D01*
X164308651Y-97632272D01*
X164307601Y-97655540D01*
X164306781Y-97683227D01*
X164306163Y-97715882D01*
X164305721Y-97754051D01*
X164305426Y-97798280D01*
X164305251Y-97849118D01*
X164305168Y-97907111D01*
X164305149Y-97972806D01*
X164015188Y-97972806D01*
X164015188Y-97560698D01*
X164028125Y-97513840D01*
X164050665Y-97448242D01*
X164080906Y-97385479D01*
X164118003Y-97326575D01*
X164161110Y-97272553D01*
X164209381Y-97224437D01*
X164261972Y-97183251D01*
X164318035Y-97150018D01*
X164335591Y-97141668D01*
X164399137Y-97116830D01*
X164462254Y-97099941D01*
X164527534Y-97090461D01*
X164592636Y-97087816D01*
X164666461Y-97092550D01*
G37*
X164666461Y-97092550D02*
X164737103Y-97106324D01*
X164804556Y-97129138D01*
X164868819Y-97160989D01*
X164929889Y-97201876D01*
X164986480Y-97250563D01*
X165029522Y-97296722D01*
X165065616Y-97346131D01*
X165095844Y-97400540D01*
X165121288Y-97461704D01*
X165127096Y-97478459D01*
X165131641Y-97491996D01*
X165135721Y-97504345D01*
X165139360Y-97516072D01*
X165142584Y-97527738D01*
X165145418Y-97539909D01*
X165147886Y-97553149D01*
X165150015Y-97568020D01*
X165151828Y-97585088D01*
X165153352Y-97604916D01*
X165154611Y-97628068D01*
X165155630Y-97655107D01*
X165156435Y-97686599D01*
X165157051Y-97723106D01*
X165157502Y-97765193D01*
X165157814Y-97813423D01*
X165158013Y-97868361D01*
X165158122Y-97930571D01*
X165158168Y-98000615D01*
X165158176Y-98079059D01*
X165158169Y-98166466D01*
X165158169Y-98175958D01*
X165158151Y-98263838D01*
X165158097Y-98342656D01*
X165158003Y-98412936D01*
X165157862Y-98475200D01*
X165157668Y-98529972D01*
X165157415Y-98577774D01*
X165157097Y-98619130D01*
X165156707Y-98654563D01*
X165156240Y-98684595D01*
X165155690Y-98709751D01*
X165155050Y-98730552D01*
X165154314Y-98747523D01*
X165153477Y-98761186D01*
X165152532Y-98772064D01*
X165151474Y-98780681D01*
X165151109Y-98783049D01*
X165134854Y-98855109D01*
X165110166Y-98922629D01*
X165076965Y-98985768D01*
X165035172Y-99044685D01*
X165001202Y-99083043D01*
X164945516Y-99135022D01*
X164887263Y-99177910D01*
X164825946Y-99211974D01*
X164761072Y-99237482D01*
X164692144Y-99254700D01*
X164678811Y-99257014D01*
X164645029Y-99260987D01*
X164606042Y-99263170D01*
X164565620Y-99263520D01*
X164527532Y-99261992D01*
X164499226Y-99259102D01*
X164446483Y-99248094D01*
X164391191Y-99230403D01*
X164336289Y-99207204D01*
X164284717Y-99179673D01*
X164258556Y-99162916D01*
X164225550Y-99137636D01*
X164191046Y-99106641D01*
X164157614Y-99072537D01*
X164127825Y-99037929D01*
X164106446Y-99008792D01*
X164074400Y-98953336D01*
X164047252Y-98891938D01*
X164027833Y-98833094D01*
X164015188Y-98787566D01*
X164015188Y-97972806D01*
X164305149Y-97972806D01*
X164305168Y-98046750D01*
X164305195Y-98129490D01*
X164305203Y-98169011D01*
X164305207Y-98256668D01*
X164305214Y-98335283D01*
X164305251Y-98405399D01*
X164305345Y-98467559D01*
X164305521Y-98522306D01*
X164305808Y-98570182D01*
X164306232Y-98611732D01*
X164306819Y-98647498D01*
X164307596Y-98678022D01*
X164308591Y-98703848D01*
X164309829Y-98725519D01*
X164311337Y-98743577D01*
X164313143Y-98758566D01*
X164315273Y-98771029D01*
X164317754Y-98781508D01*
X164320612Y-98790547D01*
X164323874Y-98798688D01*
X164327567Y-98806474D01*
X164331718Y-98814449D01*
X164336354Y-98823155D01*
X164337540Y-98825411D01*
X164364230Y-98866295D01*
X164398268Y-98901862D01*
X164438488Y-98931195D01*
X164483724Y-98953377D01*
X164512174Y-98962707D01*
X164548340Y-98969144D01*
X164588762Y-98970787D01*
X164629485Y-98967756D01*
X164666559Y-98960171D01*
X164674151Y-98957795D01*
X164721052Y-98937074D01*
X164763109Y-98908663D01*
X164799358Y-98873518D01*
X164828835Y-98832593D01*
X164850576Y-98786847D01*
X164852740Y-98780723D01*
X164863452Y-98749226D01*
X164864824Y-98193301D01*
X164865025Y-98097325D01*
X164865129Y-98010688D01*
X164865136Y-97933143D01*
X164865044Y-97864446D01*
X164864850Y-97804349D01*
X164864554Y-97752609D01*
X164864153Y-97708978D01*
X164863647Y-97673211D01*
X164863032Y-97645062D01*
X164862308Y-97624286D01*
X164861474Y-97610637D01*
X164860875Y-97605495D01*
X164850160Y-97565700D01*
X164831657Y-97525136D01*
X164808975Y-97489672D01*
X164777278Y-97453684D01*
X164739986Y-97424411D01*
X164696060Y-97401125D01*
X164666962Y-97390017D01*
X164636979Y-97382742D01*
X164602438Y-97378850D01*
X164566737Y-97378390D01*
X164533271Y-97381412D01*
X164506415Y-97387632D01*
X164456486Y-97408728D01*
X164412806Y-97435950D01*
X164376066Y-97468747D01*
X164346956Y-97506565D01*
X164337923Y-97522358D01*
X164333046Y-97531510D01*
X164328675Y-97539613D01*
X164324784Y-97547212D01*
X164321345Y-97554855D01*
X164318331Y-97563090D01*
X164315712Y-97572462D01*
X164313463Y-97583520D01*
X164311555Y-97596809D01*
X164309960Y-97612878D01*
X164308651Y-97632272D01*
X164307601Y-97655540D01*
X164306781Y-97683227D01*
X164306163Y-97715882D01*
X164305721Y-97754051D01*
X164305426Y-97798280D01*
X164305251Y-97849118D01*
X164305168Y-97907111D01*
X164305149Y-97972806D01*
X164015188Y-97972806D01*
X164015188Y-97560698D01*
X164028125Y-97513840D01*
X164050665Y-97448242D01*
X164080906Y-97385479D01*
X164118003Y-97326575D01*
X164161110Y-97272553D01*
X164209381Y-97224437D01*
X164261972Y-97183251D01*
X164318035Y-97150018D01*
X164335591Y-97141668D01*
X164399137Y-97116830D01*
X164462254Y-97099941D01*
X164527534Y-97090461D01*
X164592636Y-97087816D01*
X164666461Y-97092550D01*
G36*
X167742491Y-97091908D02*
G01*
X167769425Y-97098199D01*
X167778918Y-97102367D01*
X167802428Y-97118105D01*
X167825105Y-97139251D01*
X167843899Y-97162663D01*
X167853128Y-97178757D01*
X167863528Y-97201264D01*
X167863528Y-99156585D01*
X167853172Y-99178992D01*
X167836639Y-99206324D01*
X167814638Y-99230596D01*
X167789782Y-99249153D01*
X167778604Y-99254827D01*
X167758117Y-99261501D01*
X167734437Y-99266036D01*
X167711409Y-99267931D01*
X167692875Y-99266685D01*
X167691000Y-99266266D01*
X167656501Y-99253747D01*
X167626855Y-99235110D01*
X167603993Y-99211601D01*
X167601936Y-99208716D01*
X167598655Y-99204138D01*
X167595634Y-99200071D01*
X167592864Y-99196119D01*
X167590335Y-99191886D01*
X167588035Y-99186978D01*
X167585955Y-99180999D01*
X167584085Y-99173553D01*
X167582414Y-99164247D01*
X167580931Y-99152683D01*
X167579627Y-99138468D01*
X167578492Y-99121206D01*
X167577514Y-99100501D01*
X167576684Y-99075958D01*
X167575991Y-99047183D01*
X167575425Y-99013780D01*
X167574976Y-98975354D01*
X167574633Y-98931508D01*
X167574387Y-98881850D01*
X167574226Y-98825982D01*
X167574141Y-98763509D01*
X167574121Y-98694038D01*
X167574156Y-98617171D01*
X167574236Y-98532515D01*
X167574350Y-98439673D01*
X167574489Y-98338251D01*
X167574641Y-98227853D01*
X167574725Y-98164206D01*
X167574875Y-98050746D01*
X167575022Y-97946475D01*
X167575169Y-97850998D01*
X167575319Y-97763919D01*
X167575478Y-97684843D01*
X167575650Y-97613373D01*
X167575837Y-97549115D01*
X167576044Y-97491673D01*
X167576275Y-97440650D01*
X167576534Y-97395652D01*
X167576825Y-97356283D01*
X167577152Y-97322148D01*
X167577518Y-97292850D01*
X167577928Y-97267994D01*
X167578386Y-97247185D01*
X167578895Y-97230026D01*
X167579460Y-97216123D01*
X167580084Y-97205080D01*
X167580771Y-97196500D01*
X167581527Y-97189990D01*
X167582353Y-97185152D01*
X167583254Y-97181591D01*
X167584235Y-97178913D01*
X167584567Y-97178176D01*
X167598968Y-97155153D01*
X167619369Y-97132359D01*
X167642654Y-97112973D01*
X167657260Y-97104014D01*
X167682918Y-97094863D01*
X167712492Y-97090812D01*
X167742491Y-97091908D01*
G37*
X167742491Y-97091908D02*
X167769425Y-97098199D01*
X167778918Y-97102367D01*
X167802428Y-97118105D01*
X167825105Y-97139251D01*
X167843899Y-97162663D01*
X167853128Y-97178757D01*
X167863528Y-97201264D01*
X167863528Y-99156585D01*
X167853172Y-99178992D01*
X167836639Y-99206324D01*
X167814638Y-99230596D01*
X167789782Y-99249153D01*
X167778604Y-99254827D01*
X167758117Y-99261501D01*
X167734437Y-99266036D01*
X167711409Y-99267931D01*
X167692875Y-99266685D01*
X167691000Y-99266266D01*
X167656501Y-99253747D01*
X167626855Y-99235110D01*
X167603993Y-99211601D01*
X167601936Y-99208716D01*
X167598655Y-99204138D01*
X167595634Y-99200071D01*
X167592864Y-99196119D01*
X167590335Y-99191886D01*
X167588035Y-99186978D01*
X167585955Y-99180999D01*
X167584085Y-99173553D01*
X167582414Y-99164247D01*
X167580931Y-99152683D01*
X167579627Y-99138468D01*
X167578492Y-99121206D01*
X167577514Y-99100501D01*
X167576684Y-99075958D01*
X167575991Y-99047183D01*
X167575425Y-99013780D01*
X167574976Y-98975354D01*
X167574633Y-98931508D01*
X167574387Y-98881850D01*
X167574226Y-98825982D01*
X167574141Y-98763509D01*
X167574121Y-98694038D01*
X167574156Y-98617171D01*
X167574236Y-98532515D01*
X167574350Y-98439673D01*
X167574489Y-98338251D01*
X167574641Y-98227853D01*
X167574725Y-98164206D01*
X167574875Y-98050746D01*
X167575022Y-97946475D01*
X167575169Y-97850998D01*
X167575319Y-97763919D01*
X167575478Y-97684843D01*
X167575650Y-97613373D01*
X167575837Y-97549115D01*
X167576044Y-97491673D01*
X167576275Y-97440650D01*
X167576534Y-97395652D01*
X167576825Y-97356283D01*
X167577152Y-97322148D01*
X167577518Y-97292850D01*
X167577928Y-97267994D01*
X167578386Y-97247185D01*
X167578895Y-97230026D01*
X167579460Y-97216123D01*
X167580084Y-97205080D01*
X167580771Y-97196500D01*
X167581527Y-97189990D01*
X167582353Y-97185152D01*
X167583254Y-97181591D01*
X167584235Y-97178913D01*
X167584567Y-97178176D01*
X167598968Y-97155153D01*
X167619369Y-97132359D01*
X167642654Y-97112973D01*
X167657260Y-97104014D01*
X167682918Y-97094863D01*
X167712492Y-97090812D01*
X167742491Y-97091908D01*
G36*
X167129023Y-97092767D02*
G01*
X167156651Y-97100483D01*
X167163830Y-97103863D01*
X167194550Y-97125186D01*
X167220464Y-97153192D01*
X167234109Y-97174905D01*
X167245302Y-97196471D01*
X167245302Y-98830698D01*
X167232452Y-98877212D01*
X167208771Y-98945779D01*
X167177219Y-99008990D01*
X167138087Y-99066501D01*
X167091667Y-99117970D01*
X167038248Y-99163053D01*
X166978121Y-99201406D01*
X166942980Y-99219192D01*
X166904062Y-99236118D01*
X166869305Y-99248395D01*
X166835125Y-99257020D01*
X166797936Y-99262987D01*
X166777171Y-99265279D01*
X166705453Y-99267656D01*
X166635499Y-99260646D01*
X166567554Y-99244325D01*
X166501864Y-99218770D01*
X166438676Y-99184056D01*
X166379769Y-99141515D01*
X166343162Y-99111718D01*
X166327075Y-99128317D01*
X166304361Y-99148370D01*
X166274506Y-99169698D01*
X166239636Y-99191117D01*
X166201874Y-99211445D01*
X166163345Y-99229499D01*
X166126173Y-99244094D01*
X166109490Y-99249508D01*
X166057254Y-99261270D01*
X166000178Y-99267282D01*
X165941210Y-99267382D01*
X165885613Y-99261776D01*
X165817963Y-99246460D01*
X165752810Y-99222243D01*
X165691268Y-99189707D01*
X165634451Y-99149434D01*
X165586634Y-99105346D01*
X165547236Y-99057867D01*
X165512664Y-99003448D01*
X165483942Y-98943948D01*
X165462096Y-98881227D01*
X165461068Y-98877555D01*
X165448132Y-98830698D01*
X165446852Y-98018660D01*
X165446676Y-97913347D01*
X165446504Y-97817186D01*
X165446353Y-97729746D01*
X165446238Y-97650596D01*
X165446177Y-97579302D01*
X165446185Y-97515434D01*
X165446278Y-97458558D01*
X165446472Y-97408244D01*
X165446784Y-97364059D01*
X165447230Y-97325571D01*
X165447826Y-97292348D01*
X165448587Y-97263959D01*
X165449531Y-97239971D01*
X165450673Y-97219953D01*
X165452030Y-97203472D01*
X165453617Y-97190096D01*
X165455451Y-97179394D01*
X165457548Y-97170933D01*
X165459924Y-97164282D01*
X165462595Y-97159009D01*
X165465577Y-97154681D01*
X165468887Y-97150867D01*
X165472541Y-97147134D01*
X165476554Y-97143051D01*
X165479712Y-97139612D01*
X165495955Y-97124425D01*
X165515831Y-97110266D01*
X165526179Y-97104486D01*
X165542581Y-97097241D01*
X165557416Y-97093160D01*
X165574713Y-97091427D01*
X165591905Y-97091179D01*
X165613065Y-97091753D01*
X165628440Y-97093849D01*
X165641807Y-97098306D01*
X165655927Y-97105404D01*
X165686666Y-97127500D01*
X165711922Y-97156361D01*
X165725378Y-97179698D01*
X165735463Y-97201264D01*
X165735679Y-98792358D01*
X165746968Y-98820347D01*
X165769332Y-98864480D01*
X165797853Y-98902091D01*
X165831799Y-98932620D01*
X165870438Y-98955510D01*
X165913036Y-98970201D01*
X165950663Y-98975754D01*
X165996578Y-98974368D01*
X166040246Y-98964688D01*
X166080499Y-98947373D01*
X166116174Y-98923080D01*
X166146105Y-98892466D01*
X166169127Y-98856190D01*
X166171557Y-98851079D01*
X166180221Y-98830324D01*
X166187810Y-98808910D01*
X166192723Y-98791371D01*
X166192818Y-98790924D01*
X166193587Y-98783855D01*
X166194291Y-98770144D01*
X166194930Y-98749567D01*
X166195507Y-98721901D01*
X166196022Y-98686922D01*
X166196478Y-98644406D01*
X166196875Y-98594131D01*
X166197216Y-98535872D01*
X166197501Y-98469406D01*
X166197733Y-98394510D01*
X166197912Y-98310959D01*
X166198040Y-98218531D01*
X166198119Y-98117002D01*
X166198150Y-98006147D01*
X166198151Y-97987170D01*
X166198152Y-97886093D01*
X166198159Y-97794151D01*
X166198178Y-97710897D01*
X166198214Y-97635880D01*
X166198272Y-97568651D01*
X166198359Y-97508763D01*
X166198479Y-97455764D01*
X166198639Y-97409207D01*
X166198843Y-97368642D01*
X166199098Y-97333620D01*
X166199408Y-97303692D01*
X166199780Y-97278409D01*
X166200219Y-97257322D01*
X166200730Y-97239982D01*
X166201318Y-97225939D01*
X166201991Y-97214746D01*
X166202752Y-97205951D01*
X166203608Y-97199107D01*
X166204564Y-97193765D01*
X166205625Y-97189474D01*
X166206798Y-97185787D01*
X166208059Y-97182328D01*
X166222917Y-97154662D01*
X166244947Y-97129324D01*
X166271742Y-97108873D01*
X166282935Y-97102789D01*
X166310720Y-97093743D01*
X166342158Y-97090531D01*
X166373721Y-97093120D01*
X166401880Y-97101472D01*
X166407138Y-97104012D01*
X166423936Y-97114896D01*
X166441908Y-97129666D01*
X166453423Y-97141121D01*
X166458165Y-97146118D01*
X166462487Y-97150376D01*
X166466408Y-97154336D01*
X166469947Y-97158442D01*
X166473125Y-97163135D01*
X166475960Y-97168858D01*
X166478472Y-97176055D01*
X166480680Y-97185166D01*
X166482603Y-97196635D01*
X166484262Y-97210904D01*
X166485674Y-97228416D01*
X166486861Y-97249613D01*
X166487840Y-97274937D01*
X166488632Y-97304832D01*
X166489255Y-97339739D01*
X166489730Y-97380101D01*
X166490075Y-97426361D01*
X166490310Y-97478961D01*
X166490454Y-97538344D01*
X166490527Y-97604951D01*
X166490548Y-97679226D01*
X166490536Y-97761611D01*
X166490511Y-97852548D01*
X166490492Y-97952481D01*
X166490490Y-97987844D01*
X166490514Y-98100411D01*
X166490586Y-98203612D01*
X166490707Y-98297662D01*
X166490880Y-98382780D01*
X166491105Y-98459183D01*
X166491384Y-98527089D01*
X166491718Y-98586715D01*
X166492110Y-98638279D01*
X166492559Y-98681998D01*
X166493069Y-98718089D01*
X166493639Y-98746771D01*
X166494272Y-98768260D01*
X166494969Y-98782774D01*
X166495732Y-98790531D01*
X166495808Y-98790924D01*
X166503558Y-98816158D01*
X166516195Y-98844628D01*
X166531884Y-98872740D01*
X166548788Y-98896900D01*
X166551795Y-98900524D01*
X166581948Y-98928715D01*
X166618098Y-98950973D01*
X166658291Y-98966719D01*
X166700577Y-98975373D01*
X166743002Y-98976356D01*
X166783158Y-98969222D01*
X166827922Y-98952134D01*
X166865749Y-98928931D01*
X166897267Y-98899016D01*
X166923102Y-98861794D01*
X166943881Y-98816670D01*
X166944011Y-98816320D01*
X166945161Y-98812951D01*
X166946211Y-98808985D01*
X166947167Y-98803979D01*
X166948035Y-98797496D01*
X166948821Y-98789092D01*
X166949531Y-98778329D01*
X166950172Y-98764765D01*
X166950750Y-98747959D01*
X166951270Y-98727472D01*
X166951738Y-98702863D01*
X166952161Y-98673690D01*
X166952545Y-98639515D01*
X166952896Y-98599895D01*
X166953219Y-98554390D01*
X166953521Y-98502560D01*
X166953809Y-98443964D01*
X166954087Y-98378162D01*
X166954362Y-98304713D01*
X166954641Y-98223176D01*
X166954929Y-98133111D01*
X166955232Y-98034077D01*
X166955358Y-97992018D01*
X166957754Y-97191679D01*
X166971971Y-97166013D01*
X166992287Y-97137479D01*
X167018919Y-97114765D01*
X167041622Y-97101814D01*
X167067825Y-97093370D01*
X167098186Y-97090375D01*
X167129023Y-97092767D01*
G37*
X167129023Y-97092767D02*
X167156651Y-97100483D01*
X167163830Y-97103863D01*
X167194550Y-97125186D01*
X167220464Y-97153192D01*
X167234109Y-97174905D01*
X167245302Y-97196471D01*
X167245302Y-98830698D01*
X167232452Y-98877212D01*
X167208771Y-98945779D01*
X167177219Y-99008990D01*
X167138087Y-99066501D01*
X167091667Y-99117970D01*
X167038248Y-99163053D01*
X166978121Y-99201406D01*
X166942980Y-99219192D01*
X166904062Y-99236118D01*
X166869305Y-99248395D01*
X166835125Y-99257020D01*
X166797936Y-99262987D01*
X166777171Y-99265279D01*
X166705453Y-99267656D01*
X166635499Y-99260646D01*
X166567554Y-99244325D01*
X166501864Y-99218770D01*
X166438676Y-99184056D01*
X166379769Y-99141515D01*
X166343162Y-99111718D01*
X166327075Y-99128317D01*
X166304361Y-99148370D01*
X166274506Y-99169698D01*
X166239636Y-99191117D01*
X166201874Y-99211445D01*
X166163345Y-99229499D01*
X166126173Y-99244094D01*
X166109490Y-99249508D01*
X166057254Y-99261270D01*
X166000178Y-99267282D01*
X165941210Y-99267382D01*
X165885613Y-99261776D01*
X165817963Y-99246460D01*
X165752810Y-99222243D01*
X165691268Y-99189707D01*
X165634451Y-99149434D01*
X165586634Y-99105346D01*
X165547236Y-99057867D01*
X165512664Y-99003448D01*
X165483942Y-98943948D01*
X165462096Y-98881227D01*
X165461068Y-98877555D01*
X165448132Y-98830698D01*
X165446852Y-98018660D01*
X165446676Y-97913347D01*
X165446504Y-97817186D01*
X165446353Y-97729746D01*
X165446238Y-97650596D01*
X165446177Y-97579302D01*
X165446185Y-97515434D01*
X165446278Y-97458558D01*
X165446472Y-97408244D01*
X165446784Y-97364059D01*
X165447230Y-97325571D01*
X165447826Y-97292348D01*
X165448587Y-97263959D01*
X165449531Y-97239971D01*
X165450673Y-97219953D01*
X165452030Y-97203472D01*
X165453617Y-97190096D01*
X165455451Y-97179394D01*
X165457548Y-97170933D01*
X165459924Y-97164282D01*
X165462595Y-97159009D01*
X165465577Y-97154681D01*
X165468887Y-97150867D01*
X165472541Y-97147134D01*
X165476554Y-97143051D01*
X165479712Y-97139612D01*
X165495955Y-97124425D01*
X165515831Y-97110266D01*
X165526179Y-97104486D01*
X165542581Y-97097241D01*
X165557416Y-97093160D01*
X165574713Y-97091427D01*
X165591905Y-97091179D01*
X165613065Y-97091753D01*
X165628440Y-97093849D01*
X165641807Y-97098306D01*
X165655927Y-97105404D01*
X165686666Y-97127500D01*
X165711922Y-97156361D01*
X165725378Y-97179698D01*
X165735463Y-97201264D01*
X165735679Y-98792358D01*
X165746968Y-98820347D01*
X165769332Y-98864480D01*
X165797853Y-98902091D01*
X165831799Y-98932620D01*
X165870438Y-98955510D01*
X165913036Y-98970201D01*
X165950663Y-98975754D01*
X165996578Y-98974368D01*
X166040246Y-98964688D01*
X166080499Y-98947373D01*
X166116174Y-98923080D01*
X166146105Y-98892466D01*
X166169127Y-98856190D01*
X166171557Y-98851079D01*
X166180221Y-98830324D01*
X166187810Y-98808910D01*
X166192723Y-98791371D01*
X166192818Y-98790924D01*
X166193587Y-98783855D01*
X166194291Y-98770144D01*
X166194930Y-98749567D01*
X166195507Y-98721901D01*
X166196022Y-98686922D01*
X166196478Y-98644406D01*
X166196875Y-98594131D01*
X166197216Y-98535872D01*
X166197501Y-98469406D01*
X166197733Y-98394510D01*
X166197912Y-98310959D01*
X166198040Y-98218531D01*
X166198119Y-98117002D01*
X166198150Y-98006147D01*
X166198151Y-97987170D01*
X166198152Y-97886093D01*
X166198159Y-97794151D01*
X166198178Y-97710897D01*
X166198214Y-97635880D01*
X166198272Y-97568651D01*
X166198359Y-97508763D01*
X166198479Y-97455764D01*
X166198639Y-97409207D01*
X166198843Y-97368642D01*
X166199098Y-97333620D01*
X166199408Y-97303692D01*
X166199780Y-97278409D01*
X166200219Y-97257322D01*
X166200730Y-97239982D01*
X166201318Y-97225939D01*
X166201991Y-97214746D01*
X166202752Y-97205951D01*
X166203608Y-97199107D01*
X166204564Y-97193765D01*
X166205625Y-97189474D01*
X166206798Y-97185787D01*
X166208059Y-97182328D01*
X166222917Y-97154662D01*
X166244947Y-97129324D01*
X166271742Y-97108873D01*
X166282935Y-97102789D01*
X166310720Y-97093743D01*
X166342158Y-97090531D01*
X166373721Y-97093120D01*
X166401880Y-97101472D01*
X166407138Y-97104012D01*
X166423936Y-97114896D01*
X166441908Y-97129666D01*
X166453423Y-97141121D01*
X166458165Y-97146118D01*
X166462487Y-97150376D01*
X166466408Y-97154336D01*
X166469947Y-97158442D01*
X166473125Y-97163135D01*
X166475960Y-97168858D01*
X166478472Y-97176055D01*
X166480680Y-97185166D01*
X166482603Y-97196635D01*
X166484262Y-97210904D01*
X166485674Y-97228416D01*
X166486861Y-97249613D01*
X166487840Y-97274937D01*
X166488632Y-97304832D01*
X166489255Y-97339739D01*
X166489730Y-97380101D01*
X166490075Y-97426361D01*
X166490310Y-97478961D01*
X166490454Y-97538344D01*
X166490527Y-97604951D01*
X166490548Y-97679226D01*
X166490536Y-97761611D01*
X166490511Y-97852548D01*
X166490492Y-97952481D01*
X166490490Y-97987844D01*
X166490514Y-98100411D01*
X166490586Y-98203612D01*
X166490707Y-98297662D01*
X166490880Y-98382780D01*
X166491105Y-98459183D01*
X166491384Y-98527089D01*
X166491718Y-98586715D01*
X166492110Y-98638279D01*
X166492559Y-98681998D01*
X166493069Y-98718089D01*
X166493639Y-98746771D01*
X166494272Y-98768260D01*
X166494969Y-98782774D01*
X166495732Y-98790531D01*
X166495808Y-98790924D01*
X166503558Y-98816158D01*
X166516195Y-98844628D01*
X166531884Y-98872740D01*
X166548788Y-98896900D01*
X166551795Y-98900524D01*
X166581948Y-98928715D01*
X166618098Y-98950973D01*
X166658291Y-98966719D01*
X166700577Y-98975373D01*
X166743002Y-98976356D01*
X166783158Y-98969222D01*
X166827922Y-98952134D01*
X166865749Y-98928931D01*
X166897267Y-98899016D01*
X166923102Y-98861794D01*
X166943881Y-98816670D01*
X166944011Y-98816320D01*
X166945161Y-98812951D01*
X166946211Y-98808985D01*
X166947167Y-98803979D01*
X166948035Y-98797496D01*
X166948821Y-98789092D01*
X166949531Y-98778329D01*
X166950172Y-98764765D01*
X166950750Y-98747959D01*
X166951270Y-98727472D01*
X166951738Y-98702863D01*
X166952161Y-98673690D01*
X166952545Y-98639515D01*
X166952896Y-98599895D01*
X166953219Y-98554390D01*
X166953521Y-98502560D01*
X166953809Y-98443964D01*
X166954087Y-98378162D01*
X166954362Y-98304713D01*
X166954641Y-98223176D01*
X166954929Y-98133111D01*
X166955232Y-98034077D01*
X166955358Y-97992018D01*
X166957754Y-97191679D01*
X166971971Y-97166013D01*
X166992287Y-97137479D01*
X167018919Y-97114765D01*
X167041622Y-97101814D01*
X167067825Y-97093370D01*
X167098186Y-97090375D01*
X167129023Y-97092767D01*
G36*
X163203191Y-97090422D02*
G01*
X163273744Y-97099276D01*
X163340764Y-97116762D01*
X163403719Y-97142409D01*
X163462079Y-97175746D01*
X163515311Y-97216302D01*
X163562884Y-97263606D01*
X163604268Y-97317187D01*
X163638929Y-97376574D01*
X163666338Y-97441295D01*
X163685962Y-97510881D01*
X163687854Y-97519962D01*
X163688685Y-97525823D01*
X163689443Y-97535001D01*
X163690132Y-97547883D01*
X163690754Y-97564854D01*
X163691312Y-97586302D01*
X163691810Y-97612615D01*
X163692250Y-97644178D01*
X163692634Y-97681378D01*
X163692967Y-97724604D01*
X163693250Y-97774240D01*
X163693486Y-97830675D01*
X163693679Y-97894295D01*
X163693832Y-97965486D01*
X163693947Y-98044637D01*
X163694027Y-98132133D01*
X163694075Y-98228362D01*
X163694093Y-98333711D01*
X163694094Y-98356245D01*
X163694094Y-99161377D01*
X163681329Y-99185339D01*
X163659332Y-99217696D01*
X163632216Y-99241977D01*
X163600196Y-99258050D01*
X163563488Y-99265784D01*
X163547896Y-99266511D01*
X163510338Y-99262444D01*
X163477112Y-99249834D01*
X163448128Y-99228641D01*
X163438228Y-99218351D01*
X163433899Y-99213690D01*
X163429952Y-99209695D01*
X163426368Y-99205928D01*
X163423130Y-99201951D01*
X163420220Y-99197324D01*
X163417621Y-99191609D01*
X163415317Y-99184369D01*
X163413288Y-99175164D01*
X163411518Y-99163556D01*
X163409990Y-99149107D01*
X163408685Y-99131378D01*
X163407587Y-99109930D01*
X163406677Y-99084326D01*
X163405939Y-99054126D01*
X163405355Y-99018893D01*
X163404908Y-98978187D01*
X163404579Y-98931571D01*
X163404353Y-98878605D01*
X163404210Y-98818852D01*
X163404134Y-98751873D01*
X163404108Y-98677229D01*
X163404113Y-98594482D01*
X163404132Y-98503193D01*
X163404149Y-98402925D01*
X163404151Y-98362429D01*
X163404149Y-98260552D01*
X163404142Y-98167814D01*
X163404123Y-98083766D01*
X163404087Y-98007962D01*
X163404028Y-97939954D01*
X163403942Y-97879296D01*
X163403823Y-97825540D01*
X163403665Y-97778239D01*
X163403463Y-97736946D01*
X163403212Y-97701214D01*
X163402907Y-97670596D01*
X163402542Y-97644645D01*
X163402111Y-97622914D01*
X163401609Y-97604955D01*
X163401031Y-97590321D01*
X163400372Y-97578566D01*
X163399626Y-97569242D01*
X163398788Y-97561903D01*
X163397851Y-97556100D01*
X163396812Y-97551387D01*
X163395665Y-97547318D01*
X163394404Y-97543443D01*
X163394294Y-97543118D01*
X163375658Y-97501993D01*
X163349192Y-97464048D01*
X163316581Y-97431344D01*
X163284269Y-97408612D01*
X163245052Y-97391275D01*
X163202909Y-97382205D01*
X163159411Y-97381206D01*
X163116128Y-97388080D01*
X163074631Y-97402630D01*
X163036490Y-97424658D01*
X163014675Y-97442488D01*
X162994322Y-97463369D01*
X162978745Y-97484490D01*
X162965549Y-97509430D01*
X162958004Y-97527151D01*
X162946471Y-97555905D01*
X162944075Y-98353849D01*
X162943777Y-98458200D01*
X162943523Y-98553403D01*
X162943292Y-98639894D01*
X162943062Y-98718110D01*
X162942813Y-98788486D01*
X162942522Y-98851460D01*
X162942170Y-98907467D01*
X162941734Y-98956945D01*
X162941192Y-99000329D01*
X162940525Y-99038056D01*
X162939710Y-99070562D01*
X162938726Y-99098284D01*
X162937551Y-99121657D01*
X162936166Y-99141119D01*
X162934547Y-99157106D01*
X162932674Y-99170055D01*
X162930526Y-99180400D01*
X162928081Y-99188580D01*
X162925318Y-99195030D01*
X162922215Y-99200187D01*
X162918752Y-99204487D01*
X162914906Y-99208367D01*
X162910658Y-99212263D01*
X162905984Y-99216611D01*
X162901725Y-99220920D01*
X162875810Y-99243779D01*
X162847943Y-99258304D01*
X162815946Y-99265433D01*
X162795509Y-99266542D01*
X162757336Y-99262575D01*
X162723724Y-99250269D01*
X162695127Y-99229906D01*
X162671997Y-99201769D01*
X162661718Y-99182972D01*
X162649339Y-99156585D01*
X162644547Y-97555905D01*
X162633619Y-97530199D01*
X162610540Y-97487026D01*
X162581448Y-97450688D01*
X162547286Y-97421533D01*
X162508999Y-97399914D01*
X162467532Y-97386179D01*
X162423830Y-97380680D01*
X162378836Y-97383766D01*
X162333496Y-97395788D01*
X162304844Y-97408277D01*
X162269192Y-97431674D01*
X162238438Y-97463176D01*
X162212809Y-97502518D01*
X162199577Y-97530769D01*
X162189264Y-97555905D01*
X162186868Y-98356245D01*
X162184471Y-99156585D01*
X162171149Y-99183712D01*
X162152093Y-99213099D01*
X162126946Y-99237777D01*
X162098150Y-99255349D01*
X162098042Y-99255397D01*
X162074929Y-99262578D01*
X162047737Y-99266530D01*
X162021003Y-99266828D01*
X162003482Y-99264273D01*
X161968028Y-99250826D01*
X161938451Y-99229814D01*
X161914872Y-99201337D01*
X161904700Y-99182943D01*
X161892132Y-99156585D01*
X161892132Y-98358641D01*
X161892129Y-98254359D01*
X161892128Y-98159204D01*
X161892143Y-98072716D01*
X161892185Y-97994438D01*
X161892268Y-97923911D01*
X161892404Y-97860677D01*
X161892605Y-97804276D01*
X161892885Y-97754250D01*
X161893256Y-97710142D01*
X161893731Y-97671492D01*
X161894322Y-97637842D01*
X161895043Y-97608734D01*
X161895905Y-97583708D01*
X161896921Y-97562307D01*
X161898105Y-97544072D01*
X161899468Y-97528545D01*
X161901023Y-97515266D01*
X161902784Y-97503778D01*
X161904762Y-97493622D01*
X161906971Y-97484340D01*
X161909422Y-97475472D01*
X161912130Y-97466561D01*
X161915105Y-97457148D01*
X161917212Y-97450471D01*
X161938885Y-97394907D01*
X161968231Y-97340523D01*
X162003918Y-97289098D01*
X162044613Y-97242408D01*
X162088986Y-97202232D01*
X162119889Y-97179986D01*
X162147702Y-97163422D01*
X162180138Y-97146348D01*
X162213953Y-97130315D01*
X162245902Y-97116873D01*
X162269216Y-97108629D01*
X162325359Y-97095746D01*
X162385859Y-97089946D01*
X162448758Y-97091101D01*
X162512095Y-97099085D01*
X162573913Y-97113770D01*
X162624365Y-97131660D01*
X162646288Y-97142067D01*
X162672052Y-97156292D01*
X162699411Y-97172888D01*
X162726119Y-97190406D01*
X162749931Y-97207401D01*
X162768601Y-97222425D01*
X162775817Y-97229273D01*
X162792068Y-97246246D01*
X162823741Y-97219353D01*
X162855345Y-97194128D01*
X162886550Y-97172972D01*
X162920873Y-97153666D01*
X162951779Y-97138602D01*
X163010749Y-97114669D01*
X163068027Y-97098857D01*
X163126141Y-97090681D01*
X163187620Y-97089655D01*
X163203191Y-97090422D01*
G37*
X163203191Y-97090422D02*
X163273744Y-97099276D01*
X163340764Y-97116762D01*
X163403719Y-97142409D01*
X163462079Y-97175746D01*
X163515311Y-97216302D01*
X163562884Y-97263606D01*
X163604268Y-97317187D01*
X163638929Y-97376574D01*
X163666338Y-97441295D01*
X163685962Y-97510881D01*
X163687854Y-97519962D01*
X163688685Y-97525823D01*
X163689443Y-97535001D01*
X163690132Y-97547883D01*
X163690754Y-97564854D01*
X163691312Y-97586302D01*
X163691810Y-97612615D01*
X163692250Y-97644178D01*
X163692634Y-97681378D01*
X163692967Y-97724604D01*
X163693250Y-97774240D01*
X163693486Y-97830675D01*
X163693679Y-97894295D01*
X163693832Y-97965486D01*
X163693947Y-98044637D01*
X163694027Y-98132133D01*
X163694075Y-98228362D01*
X163694093Y-98333711D01*
X163694094Y-98356245D01*
X163694094Y-99161377D01*
X163681329Y-99185339D01*
X163659332Y-99217696D01*
X163632216Y-99241977D01*
X163600196Y-99258050D01*
X163563488Y-99265784D01*
X163547896Y-99266511D01*
X163510338Y-99262444D01*
X163477112Y-99249834D01*
X163448128Y-99228641D01*
X163438228Y-99218351D01*
X163433899Y-99213690D01*
X163429952Y-99209695D01*
X163426368Y-99205928D01*
X163423130Y-99201951D01*
X163420220Y-99197324D01*
X163417621Y-99191609D01*
X163415317Y-99184369D01*
X163413288Y-99175164D01*
X163411518Y-99163556D01*
X163409990Y-99149107D01*
X163408685Y-99131378D01*
X163407587Y-99109930D01*
X163406677Y-99084326D01*
X163405939Y-99054126D01*
X163405355Y-99018893D01*
X163404908Y-98978187D01*
X163404579Y-98931571D01*
X163404353Y-98878605D01*
X163404210Y-98818852D01*
X163404134Y-98751873D01*
X163404108Y-98677229D01*
X163404113Y-98594482D01*
X163404132Y-98503193D01*
X163404149Y-98402925D01*
X163404151Y-98362429D01*
X163404149Y-98260552D01*
X163404142Y-98167814D01*
X163404123Y-98083766D01*
X163404087Y-98007962D01*
X163404028Y-97939954D01*
X163403942Y-97879296D01*
X163403823Y-97825540D01*
X163403665Y-97778239D01*
X163403463Y-97736946D01*
X163403212Y-97701214D01*
X163402907Y-97670596D01*
X163402542Y-97644645D01*
X163402111Y-97622914D01*
X163401609Y-97604955D01*
X163401031Y-97590321D01*
X163400372Y-97578566D01*
X163399626Y-97569242D01*
X163398788Y-97561903D01*
X163397851Y-97556100D01*
X163396812Y-97551387D01*
X163395665Y-97547318D01*
X163394404Y-97543443D01*
X163394294Y-97543118D01*
X163375658Y-97501993D01*
X163349192Y-97464048D01*
X163316581Y-97431344D01*
X163284269Y-97408612D01*
X163245052Y-97391275D01*
X163202909Y-97382205D01*
X163159411Y-97381206D01*
X163116128Y-97388080D01*
X163074631Y-97402630D01*
X163036490Y-97424658D01*
X163014675Y-97442488D01*
X162994322Y-97463369D01*
X162978745Y-97484490D01*
X162965549Y-97509430D01*
X162958004Y-97527151D01*
X162946471Y-97555905D01*
X162944075Y-98353849D01*
X162943777Y-98458200D01*
X162943523Y-98553403D01*
X162943292Y-98639894D01*
X162943062Y-98718110D01*
X162942813Y-98788486D01*
X162942522Y-98851460D01*
X162942170Y-98907467D01*
X162941734Y-98956945D01*
X162941192Y-99000329D01*
X162940525Y-99038056D01*
X162939710Y-99070562D01*
X162938726Y-99098284D01*
X162937551Y-99121657D01*
X162936166Y-99141119D01*
X162934547Y-99157106D01*
X162932674Y-99170055D01*
X162930526Y-99180400D01*
X162928081Y-99188580D01*
X162925318Y-99195030D01*
X162922215Y-99200187D01*
X162918752Y-99204487D01*
X162914906Y-99208367D01*
X162910658Y-99212263D01*
X162905984Y-99216611D01*
X162901725Y-99220920D01*
X162875810Y-99243779D01*
X162847943Y-99258304D01*
X162815946Y-99265433D01*
X162795509Y-99266542D01*
X162757336Y-99262575D01*
X162723724Y-99250269D01*
X162695127Y-99229906D01*
X162671997Y-99201769D01*
X162661718Y-99182972D01*
X162649339Y-99156585D01*
X162644547Y-97555905D01*
X162633619Y-97530199D01*
X162610540Y-97487026D01*
X162581448Y-97450688D01*
X162547286Y-97421533D01*
X162508999Y-97399914D01*
X162467532Y-97386179D01*
X162423830Y-97380680D01*
X162378836Y-97383766D01*
X162333496Y-97395788D01*
X162304844Y-97408277D01*
X162269192Y-97431674D01*
X162238438Y-97463176D01*
X162212809Y-97502518D01*
X162199577Y-97530769D01*
X162189264Y-97555905D01*
X162186868Y-98356245D01*
X162184471Y-99156585D01*
X162171149Y-99183712D01*
X162152093Y-99213099D01*
X162126946Y-99237777D01*
X162098150Y-99255349D01*
X162098042Y-99255397D01*
X162074929Y-99262578D01*
X162047737Y-99266530D01*
X162021003Y-99266828D01*
X162003482Y-99264273D01*
X161968028Y-99250826D01*
X161938451Y-99229814D01*
X161914872Y-99201337D01*
X161904700Y-99182943D01*
X161892132Y-99156585D01*
X161892132Y-98358641D01*
X161892129Y-98254359D01*
X161892128Y-98159204D01*
X161892143Y-98072716D01*
X161892185Y-97994438D01*
X161892268Y-97923911D01*
X161892404Y-97860677D01*
X161892605Y-97804276D01*
X161892885Y-97754250D01*
X161893256Y-97710142D01*
X161893731Y-97671492D01*
X161894322Y-97637842D01*
X161895043Y-97608734D01*
X161895905Y-97583708D01*
X161896921Y-97562307D01*
X161898105Y-97544072D01*
X161899468Y-97528545D01*
X161901023Y-97515266D01*
X161902784Y-97503778D01*
X161904762Y-97493622D01*
X161906971Y-97484340D01*
X161909422Y-97475472D01*
X161912130Y-97466561D01*
X161915105Y-97457148D01*
X161917212Y-97450471D01*
X161938885Y-97394907D01*
X161968231Y-97340523D01*
X162003918Y-97289098D01*
X162044613Y-97242408D01*
X162088986Y-97202232D01*
X162119889Y-97179986D01*
X162147702Y-97163422D01*
X162180138Y-97146348D01*
X162213953Y-97130315D01*
X162245902Y-97116873D01*
X162269216Y-97108629D01*
X162325359Y-97095746D01*
X162385859Y-97089946D01*
X162448758Y-97091101D01*
X162512095Y-97099085D01*
X162573913Y-97113770D01*
X162624365Y-97131660D01*
X162646288Y-97142067D01*
X162672052Y-97156292D01*
X162699411Y-97172888D01*
X162726119Y-97190406D01*
X162749931Y-97207401D01*
X162768601Y-97222425D01*
X162775817Y-97229273D01*
X162792068Y-97246246D01*
X162823741Y-97219353D01*
X162855345Y-97194128D01*
X162886550Y-97172972D01*
X162920873Y-97153666D01*
X162951779Y-97138602D01*
X163010749Y-97114669D01*
X163068027Y-97098857D01*
X163126141Y-97090681D01*
X163187620Y-97089655D01*
X163203191Y-97090422D01*
D11*
%TO.C,J10*%
X163180000Y-75045000D02*
X163180000Y-73715000D01*
X164510000Y-75045000D02*
X163180000Y-75045000D01*
X163180000Y-72445000D02*
X163180000Y-69845000D01*
X165780000Y-72445000D02*
X163180000Y-72445000D01*
X165780000Y-75045000D02*
X165780000Y-72445000D01*
X163180000Y-69845000D02*
X170920000Y-69845000D01*
X165780000Y-75045000D02*
X170920000Y-75045000D01*
X170920000Y-75045000D02*
X170920000Y-69845000D01*
%TO.C,J8*%
X150480000Y-75045000D02*
X150480000Y-73715000D01*
X151810000Y-75045000D02*
X150480000Y-75045000D01*
X150480000Y-72445000D02*
X150480000Y-69845000D01*
X153080000Y-72445000D02*
X150480000Y-72445000D01*
X153080000Y-75045000D02*
X153080000Y-72445000D01*
X150480000Y-69845000D02*
X158220000Y-69845000D01*
X153080000Y-75045000D02*
X158220000Y-75045000D01*
X158220000Y-75045000D02*
X158220000Y-69845000D01*
D13*
%TO.C,J5*%
X122190000Y-107655000D02*
X122190000Y-108155000D01*
X118690000Y-107655000D02*
X118690000Y-108155000D01*
X120190000Y-109655000D02*
X120690000Y-109655000D01*
X120190000Y-106155000D02*
X120690000Y-106155000D01*
%TO.C,J3*%
X136100000Y-107655000D02*
X136100000Y-108155000D01*
X132600000Y-107655000D02*
X132600000Y-108155000D01*
X134100000Y-109655000D02*
X134600000Y-109655000D01*
X134100000Y-106155000D02*
X134600000Y-106155000D01*
D11*
%TO.C,U23*%
X146510000Y-102010000D02*
X146510000Y-72490000D01*
X114990000Y-102010000D02*
X146510000Y-102010000D01*
X114990000Y-70490000D02*
X114990000Y-102010000D01*
X144510000Y-70490000D02*
X114990000Y-70490000D01*
%TO.C,U1*%
X173240000Y-76990000D02*
X173240000Y-76490000D01*
X148310000Y-76990000D02*
X148960000Y-76990000D01*
X148310000Y-95510000D02*
X148960000Y-95510000D01*
X148310000Y-76990000D02*
X148310000Y-95510000D01*
X173240000Y-95510000D02*
X173240000Y-96010000D01*
%TO.C,SW3*%
X148940000Y-103590000D02*
X155560000Y-103590000D01*
X155560000Y-104940000D02*
X155560000Y-103590000D01*
X148940000Y-104940000D02*
X148940000Y-103590000D01*
X155560000Y-106460000D02*
X155560000Y-107810000D01*
X155560000Y-107810000D02*
X148940000Y-107810000D01*
X148940000Y-106460000D02*
X148940000Y-107810000D01*
%TO.C,SW2*%
X148940000Y-97390000D02*
X155560000Y-97390000D01*
X155560000Y-98740000D02*
X155560000Y-97390000D01*
X148940000Y-98740000D02*
X148940000Y-97390000D01*
X155560000Y-100260000D02*
X155560000Y-101610000D01*
X155560000Y-101610000D02*
X148940000Y-101610000D01*
X148940000Y-100260000D02*
X148940000Y-101610000D01*
%TO.C,J4*%
X128340000Y-106340000D02*
X129115000Y-106340000D01*
X131460000Y-106340000D02*
X130685000Y-106340000D01*
X131460000Y-106340000D02*
X131460000Y-106540000D01*
X128340000Y-106340000D02*
X128340000Y-106540000D01*
X128800000Y-109460000D02*
X128600000Y-109260000D01*
X131460000Y-109460000D02*
X131460000Y-109260000D01*
X131460000Y-109460000D02*
X128800000Y-109460000D01*
%TO.C,J6*%
X123340000Y-106340000D02*
X124115000Y-106340000D01*
X126460000Y-106340000D02*
X125685000Y-106340000D01*
X126460000Y-106340000D02*
X126460000Y-106540000D01*
X123340000Y-106340000D02*
X123340000Y-106540000D01*
X123800000Y-109460000D02*
X123600000Y-109260000D01*
X126460000Y-109460000D02*
X126460000Y-109260000D01*
X126460000Y-109460000D02*
X123800000Y-109460000D01*
%TO.C,J1*%
X170140000Y-100385000D02*
X170140000Y-99610000D01*
X170140000Y-97265000D02*
X170140000Y-98040000D01*
X170140000Y-97265000D02*
X170340000Y-97265000D01*
X170140000Y-100385000D02*
X170340000Y-100385000D01*
X173260000Y-99925000D02*
X173060000Y-100125000D01*
X173260000Y-97265000D02*
X173060000Y-97265000D01*
X173260000Y-97265000D02*
X173260000Y-99925000D01*
%TO.C,R14*%
X129520000Y-104823641D02*
X129520000Y-104516359D01*
X130280000Y-104823641D02*
X130280000Y-104516359D01*
%TO.C,R13*%
X130563641Y-104540000D02*
X130256359Y-104540000D01*
X130563641Y-103780000D02*
X130256359Y-103780000D01*
%TO.C,R16*%
X121103641Y-104650000D02*
X120796359Y-104650000D01*
X121103641Y-103890000D02*
X120796359Y-103890000D01*
%TO.C,R15*%
X120060000Y-104933641D02*
X120060000Y-104626359D01*
X120820000Y-104933641D02*
X120820000Y-104626359D01*
%TO.C,L2*%
X126337221Y-102990000D02*
X126662779Y-102990000D01*
X126337221Y-104010000D02*
X126662779Y-104010000D01*
%TO.C,L1*%
X117837221Y-102990000D02*
X118162779Y-102990000D01*
X117837221Y-104010000D02*
X118162779Y-104010000D01*
D14*
%TO.C,D1*%
X128830000Y-103555000D02*
G75*
G03*
X128830000Y-103555000I-50000J0D01*
G01*
D11*
%TO.C,C8*%
X124610000Y-103872164D02*
X124610000Y-104087836D01*
X123890000Y-103872164D02*
X123890000Y-104087836D01*
%TO.C,J2*%
X158945000Y-103130000D02*
X158945000Y-106730000D01*
X166305000Y-103130000D02*
X166305000Y-106730000D01*
X160825000Y-108610000D02*
X164425000Y-108610000D01*
X160825000Y-101250000D02*
X164425000Y-101250000D01*
%TO.C,J11*%
X171485000Y-65460000D02*
X171485000Y-66910000D01*
X171485000Y-66910000D02*
X169685000Y-66910000D01*
X169685000Y-66910000D02*
X169685000Y-67900000D01*
X160515000Y-65460000D02*
X160515000Y-66910000D01*
X160515000Y-66910000D02*
X162315000Y-66910000D01*
X170215000Y-62640000D02*
X161785000Y-62640000D01*
%TO.C,J9*%
X143485000Y-65460000D02*
X143485000Y-66910000D01*
X143485000Y-66910000D02*
X141685000Y-66910000D01*
X141685000Y-66910000D02*
X141685000Y-67900000D01*
X132515000Y-65460000D02*
X132515000Y-66910000D01*
X132515000Y-66910000D02*
X134315000Y-66910000D01*
X142215000Y-62640000D02*
X133785000Y-62640000D01*
%TO.C,J14*%
X129485000Y-65460000D02*
X129485000Y-66910000D01*
X129485000Y-66910000D02*
X127685000Y-66910000D01*
X127685000Y-66910000D02*
X127685000Y-67900000D01*
X118515000Y-65460000D02*
X118515000Y-66910000D01*
X118515000Y-66910000D02*
X120315000Y-66910000D01*
X128215000Y-62640000D02*
X119785000Y-62640000D01*
%TO.C,J7*%
D10*
X156842857Y-66511904D02*
X157814285Y-66511904D01*
X157928571Y-66464285D01*
X157985714Y-66416666D01*
X158042857Y-66321428D01*
X158042857Y-66130952D01*
X157985714Y-66035714D01*
X157928571Y-65988095D01*
X157814285Y-65940476D01*
X156842857Y-65940476D01*
X157985714Y-65511904D02*
X158042857Y-65369047D01*
X158042857Y-65130952D01*
X157985714Y-65035714D01*
X157928571Y-64988095D01*
X157814285Y-64940476D01*
X157700000Y-64940476D01*
X157585714Y-64988095D01*
X157528571Y-65035714D01*
X157471428Y-65130952D01*
X157414285Y-65321428D01*
X157357142Y-65416666D01*
X157300000Y-65464285D01*
X157185714Y-65511904D01*
X157071428Y-65511904D01*
X156957142Y-65464285D01*
X156900000Y-65416666D01*
X156842857Y-65321428D01*
X156842857Y-65083333D01*
X156900000Y-64940476D01*
X157414285Y-64178571D02*
X157471428Y-64035714D01*
X157528571Y-63988095D01*
X157642857Y-63940476D01*
X157814285Y-63940476D01*
X157928571Y-63988095D01*
X157985714Y-64035714D01*
X158042857Y-64130952D01*
X158042857Y-64511904D01*
X156842857Y-64511904D01*
X156842857Y-64178571D01*
X156900000Y-64083333D01*
X156957142Y-64035714D01*
X157071428Y-63988095D01*
X157185714Y-63988095D01*
X157300000Y-64035714D01*
X157357142Y-64083333D01*
X157414285Y-64178571D01*
X157414285Y-64511904D01*
%TO.C,D7*%
X113164485Y-100909523D02*
X113221628Y-100766666D01*
X113278771Y-100719047D01*
X113393057Y-100671428D01*
X113564485Y-100671428D01*
X113678771Y-100719047D01*
X113735914Y-100766666D01*
X113793057Y-100861904D01*
X113793057Y-101242857D01*
X112593057Y-101242857D01*
X112593057Y-100909523D01*
X112650200Y-100814285D01*
X112707342Y-100766666D01*
X112821628Y-100719047D01*
X112935914Y-100719047D01*
X113050200Y-100766666D01*
X113107342Y-100814285D01*
X113164485Y-100909523D01*
X113164485Y-101242857D01*
X112593057Y-100385714D02*
X112593057Y-99814285D01*
X113793057Y-100100000D02*
X112593057Y-100100000D01*
%TO.C,D6*%
X112593057Y-96193333D02*
X113793057Y-95955238D01*
X112935914Y-95764761D01*
X113793057Y-95574285D01*
X112593057Y-95336190D01*
X113793057Y-94955238D02*
X112593057Y-94955238D01*
X113164485Y-94145714D02*
X113164485Y-94479047D01*
X113793057Y-94479047D02*
X112593057Y-94479047D01*
X112593057Y-94002857D01*
X113793057Y-93621904D02*
X112593057Y-93621904D01*
%TO.C,D5*%
X113793057Y-89834285D02*
X113793057Y-90310476D01*
X112593057Y-90310476D01*
X112593057Y-89310476D02*
X112593057Y-89120000D01*
X112650200Y-89024761D01*
X112764485Y-88929523D01*
X112993057Y-88881904D01*
X113393057Y-88881904D01*
X113621628Y-88929523D01*
X113735914Y-89024761D01*
X113793057Y-89120000D01*
X113793057Y-89310476D01*
X113735914Y-89405714D01*
X113621628Y-89500952D01*
X113393057Y-89548571D01*
X112993057Y-89548571D01*
X112764485Y-89500952D01*
X112650200Y-89405714D01*
X112593057Y-89310476D01*
X112650200Y-87929523D02*
X112593057Y-88024761D01*
X112593057Y-88167619D01*
X112650200Y-88310476D01*
X112764485Y-88405714D01*
X112878771Y-88453333D01*
X113107342Y-88500952D01*
X113278771Y-88500952D01*
X113507342Y-88453333D01*
X113621628Y-88405714D01*
X113735914Y-88310476D01*
X113793057Y-88167619D01*
X113793057Y-88072380D01*
X113735914Y-87929523D01*
X113678771Y-87881904D01*
X113278771Y-87881904D01*
X113278771Y-88072380D01*
%TO.C,D4*%
X112650200Y-84094285D02*
X112593057Y-84189523D01*
X112593057Y-84332380D01*
X112650200Y-84475238D01*
X112764485Y-84570476D01*
X112878771Y-84618095D01*
X113107342Y-84665714D01*
X113278771Y-84665714D01*
X113507342Y-84618095D01*
X113621628Y-84570476D01*
X113735914Y-84475238D01*
X113793057Y-84332380D01*
X113793057Y-84237142D01*
X113735914Y-84094285D01*
X113678771Y-84046666D01*
X113278771Y-84046666D01*
X113278771Y-84237142D01*
X113793057Y-83618095D02*
X112593057Y-83618095D01*
X112593057Y-83237142D01*
X112650200Y-83141904D01*
X112707342Y-83094285D01*
X112821628Y-83046666D01*
X112993057Y-83046666D01*
X113107342Y-83094285D01*
X113164485Y-83141904D01*
X113221628Y-83237142D01*
X113221628Y-83618095D01*
X113793057Y-82094285D02*
X113793057Y-82665714D01*
X113793057Y-82380000D02*
X112593057Y-82380000D01*
X112764485Y-82475238D01*
X112878771Y-82570476D01*
X112935914Y-82665714D01*
%TO.C,D3*%
X112650200Y-78282857D02*
X112593057Y-78378095D01*
X112593057Y-78520952D01*
X112650200Y-78663809D01*
X112764485Y-78759047D01*
X112878771Y-78806666D01*
X113107342Y-78854285D01*
X113278771Y-78854285D01*
X113507342Y-78806666D01*
X113621628Y-78759047D01*
X113735914Y-78663809D01*
X113793057Y-78520952D01*
X113793057Y-78425714D01*
X113735914Y-78282857D01*
X113678771Y-78235238D01*
X113278771Y-78235238D01*
X113278771Y-78425714D01*
X113793057Y-77806666D02*
X112593057Y-77806666D01*
X112593057Y-77425714D01*
X112650200Y-77330476D01*
X112707342Y-77282857D01*
X112821628Y-77235238D01*
X112993057Y-77235238D01*
X113107342Y-77282857D01*
X113164485Y-77330476D01*
X113221628Y-77425714D01*
X113221628Y-77806666D01*
X113793057Y-76330476D02*
X113793057Y-76806666D01*
X112593057Y-76806666D01*
%TO.C,D2*%
X113793057Y-73233333D02*
X112593057Y-73233333D01*
X112593057Y-72852380D01*
X112650200Y-72757142D01*
X112707342Y-72709523D01*
X112821628Y-72661904D01*
X112993057Y-72661904D01*
X113107342Y-72709523D01*
X113164485Y-72757142D01*
X113221628Y-72852380D01*
X113221628Y-73233333D01*
X112593057Y-72328571D02*
X113793057Y-72090476D01*
X112935914Y-71900000D01*
X113793057Y-71709523D01*
X112593057Y-71471428D01*
X113793057Y-70519047D02*
X113221628Y-70852380D01*
X113793057Y-71090476D02*
X112593057Y-71090476D01*
X112593057Y-70709523D01*
X112650200Y-70614285D01*
X112707342Y-70566666D01*
X112821628Y-70519047D01*
X112993057Y-70519047D01*
X113107342Y-70566666D01*
X113164485Y-70614285D01*
X113221628Y-70709523D01*
X113221628Y-71090476D01*
%TO.C,J10*%
X172735914Y-74238095D02*
X172793057Y-74095238D01*
X172793057Y-73857142D01*
X172735914Y-73761904D01*
X172678771Y-73714285D01*
X172564485Y-73666666D01*
X172450200Y-73666666D01*
X172335914Y-73714285D01*
X172278771Y-73761904D01*
X172221628Y-73857142D01*
X172164485Y-74047619D01*
X172107342Y-74142857D01*
X172050200Y-74190476D01*
X171935914Y-74238095D01*
X171821628Y-74238095D01*
X171707342Y-74190476D01*
X171650200Y-74142857D01*
X171593057Y-74047619D01*
X171593057Y-73809523D01*
X171650200Y-73666666D01*
X172164485Y-73238095D02*
X172164485Y-72904761D01*
X172793057Y-72761904D02*
X172793057Y-73238095D01*
X171593057Y-73238095D01*
X171593057Y-72761904D01*
X172793057Y-72333333D02*
X171593057Y-72333333D01*
X172793057Y-71761904D01*
X171593057Y-71761904D01*
X172735914Y-71333333D02*
X172793057Y-71190476D01*
X172793057Y-70952380D01*
X172735914Y-70857142D01*
X172678771Y-70809523D01*
X172564485Y-70761904D01*
X172450200Y-70761904D01*
X172335914Y-70809523D01*
X172278771Y-70857142D01*
X172221628Y-70952380D01*
X172164485Y-71142857D01*
X172107342Y-71238095D01*
X172050200Y-71285714D01*
X171935914Y-71333333D01*
X171821628Y-71333333D01*
X171707342Y-71285714D01*
X171650200Y-71238095D01*
X171593057Y-71142857D01*
X171593057Y-70904761D01*
X171650200Y-70761904D01*
%TO.C,J8*%
X159700200Y-73666666D02*
X159700200Y-73190476D01*
X160043057Y-73761904D02*
X158843057Y-73428571D01*
X160043057Y-73095238D01*
X160043057Y-72761904D02*
X158843057Y-72761904D01*
X158843057Y-72523809D01*
X158900200Y-72380952D01*
X159014485Y-72285714D01*
X159128771Y-72238095D01*
X159357342Y-72190476D01*
X159528771Y-72190476D01*
X159757342Y-72238095D01*
X159871628Y-72285714D01*
X159985914Y-72380952D01*
X160043057Y-72523809D01*
X160043057Y-72761904D01*
X158843057Y-71904761D02*
X160043057Y-71571428D01*
X158843057Y-71238095D01*
%TO.C,SW3*%
D11*
X150345238Y-108678571D02*
X150611904Y-108678571D01*
X150726190Y-109202380D02*
X150345238Y-109202380D01*
X150345238Y-108202380D01*
X150726190Y-108202380D01*
X151069047Y-109107142D02*
X151107142Y-109154761D01*
X151069047Y-109202380D01*
X151030952Y-109154761D01*
X151069047Y-109107142D01*
X151069047Y-109202380D01*
X151716666Y-108678571D02*
X151830952Y-108726190D01*
X151869047Y-108773809D01*
X151907142Y-108869047D01*
X151907142Y-109011904D01*
X151869047Y-109107142D01*
X151830952Y-109154761D01*
X151754761Y-109202380D01*
X151450000Y-109202380D01*
X151450000Y-108202380D01*
X151716666Y-108202380D01*
X151792857Y-108250000D01*
X151830952Y-108297619D01*
X151869047Y-108392857D01*
X151869047Y-108488095D01*
X151830952Y-108583333D01*
X151792857Y-108630952D01*
X151716666Y-108678571D01*
X151450000Y-108678571D01*
X152402380Y-108202380D02*
X152554761Y-108202380D01*
X152630952Y-108250000D01*
X152707142Y-108345238D01*
X152745238Y-108535714D01*
X152745238Y-108869047D01*
X152707142Y-109059523D01*
X152630952Y-109154761D01*
X152554761Y-109202380D01*
X152402380Y-109202380D01*
X152326190Y-109154761D01*
X152250000Y-109059523D01*
X152211904Y-108869047D01*
X152211904Y-108535714D01*
X152250000Y-108345238D01*
X152326190Y-108250000D01*
X152402380Y-108202380D01*
X153240476Y-108202380D02*
X153392857Y-108202380D01*
X153469047Y-108250000D01*
X153545238Y-108345238D01*
X153583333Y-108535714D01*
X153583333Y-108869047D01*
X153545238Y-109059523D01*
X153469047Y-109154761D01*
X153392857Y-109202380D01*
X153240476Y-109202380D01*
X153164285Y-109154761D01*
X153088095Y-109059523D01*
X153050000Y-108869047D01*
X153050000Y-108535714D01*
X153088095Y-108345238D01*
X153164285Y-108250000D01*
X153240476Y-108202380D01*
X153811904Y-108202380D02*
X154269047Y-108202380D01*
X154040476Y-109202380D02*
X154040476Y-108202380D01*
%TO.C,SW2*%
X150802580Y-102428571D02*
X151069247Y-102428571D01*
X151183533Y-102952380D02*
X150802580Y-102952380D01*
X150802580Y-101952380D01*
X151183533Y-101952380D01*
X151526390Y-102857142D02*
X151564485Y-102904761D01*
X151526390Y-102952380D01*
X151488295Y-102904761D01*
X151526390Y-102857142D01*
X151526390Y-102952380D01*
X152364485Y-102952380D02*
X152097819Y-102476190D01*
X151907342Y-102952380D02*
X151907342Y-101952380D01*
X152212104Y-101952380D01*
X152288295Y-102000000D01*
X152326390Y-102047619D01*
X152364485Y-102142857D01*
X152364485Y-102285714D01*
X152326390Y-102380952D01*
X152288295Y-102428571D01*
X152212104Y-102476190D01*
X151907342Y-102476190D01*
X152669247Y-102904761D02*
X152783533Y-102952380D01*
X152974009Y-102952380D01*
X153050200Y-102904761D01*
X153088295Y-102857142D01*
X153126390Y-102761904D01*
X153126390Y-102666666D01*
X153088295Y-102571428D01*
X153050200Y-102523809D01*
X152974009Y-102476190D01*
X152821628Y-102428571D01*
X152745438Y-102380952D01*
X152707342Y-102333333D01*
X152669247Y-102238095D01*
X152669247Y-102142857D01*
X152707342Y-102047619D01*
X152745438Y-102000000D01*
X152821628Y-101952380D01*
X153012104Y-101952380D01*
X153126390Y-102000000D01*
X153354961Y-101952380D02*
X153812104Y-101952380D01*
X153583533Y-102952380D02*
X153583533Y-101952380D01*
%TO.C,J1*%
D10*
X170664285Y-106142857D02*
X170664285Y-105742857D01*
X171292857Y-105571428D02*
X171292857Y-106142857D01*
X170092857Y-106142857D01*
X170092857Y-105571428D01*
X171178571Y-105057142D02*
X171235714Y-105000000D01*
X171292857Y-105057142D01*
X171235714Y-105114285D01*
X171178571Y-105057142D01*
X171292857Y-105057142D01*
X170950000Y-104542857D02*
X170950000Y-103971428D01*
X171292857Y-104657142D02*
X170092857Y-104257142D01*
X171292857Y-103857142D01*
X171292857Y-103457142D02*
X170092857Y-103457142D01*
X171292857Y-102771428D01*
X170092857Y-102771428D01*
X170092857Y-102371428D02*
X170092857Y-101685714D01*
X171292857Y-102028571D02*
X170092857Y-102028571D01*
%TO.C,J11*%
X172664285Y-66390476D02*
X172664285Y-66057142D01*
X173292857Y-65914285D02*
X173292857Y-66390476D01*
X172092857Y-66390476D01*
X172092857Y-65914285D01*
X173235714Y-65533333D02*
X173292857Y-65390476D01*
X173292857Y-65152380D01*
X173235714Y-65057142D01*
X173178571Y-65009523D01*
X173064285Y-64961904D01*
X172950000Y-64961904D01*
X172835714Y-65009523D01*
X172778571Y-65057142D01*
X172721428Y-65152380D01*
X172664285Y-65342857D01*
X172607142Y-65438095D01*
X172550000Y-65485714D01*
X172435714Y-65533333D01*
X172321428Y-65533333D01*
X172207142Y-65485714D01*
X172150000Y-65438095D01*
X172092857Y-65342857D01*
X172092857Y-65104761D01*
X172150000Y-64961904D01*
X173292857Y-64533333D02*
X172092857Y-64533333D01*
X172092857Y-64152380D01*
X172150000Y-64057142D01*
X172207142Y-64009523D01*
X172321428Y-63961904D01*
X172492857Y-63961904D01*
X172607142Y-64009523D01*
X172664285Y-64057142D01*
X172721428Y-64152380D01*
X172721428Y-64533333D01*
%TO.C,J9*%
X145292857Y-66559523D02*
X144092857Y-66559523D01*
X144950000Y-66226190D01*
X144092857Y-65892857D01*
X145292857Y-65892857D01*
X145235714Y-65464285D02*
X145292857Y-65321428D01*
X145292857Y-65083333D01*
X145235714Y-64988095D01*
X145178571Y-64940476D01*
X145064285Y-64892857D01*
X144950000Y-64892857D01*
X144835714Y-64940476D01*
X144778571Y-64988095D01*
X144721428Y-65083333D01*
X144664285Y-65273809D01*
X144607142Y-65369047D01*
X144550000Y-65416666D01*
X144435714Y-65464285D01*
X144321428Y-65464285D01*
X144207142Y-65416666D01*
X144150000Y-65369047D01*
X144092857Y-65273809D01*
X144092857Y-65035714D01*
X144150000Y-64892857D01*
X145178571Y-63892857D02*
X145235714Y-63940476D01*
X145292857Y-64083333D01*
X145292857Y-64178571D01*
X145235714Y-64321428D01*
X145121428Y-64416666D01*
X145007142Y-64464285D01*
X144778571Y-64511904D01*
X144607142Y-64511904D01*
X144378571Y-64464285D01*
X144264285Y-64416666D01*
X144150000Y-64321428D01*
X144092857Y-64178571D01*
X144092857Y-64083333D01*
X144150000Y-63940476D01*
X144207142Y-63892857D01*
%TO.C,J14*%
X131292857Y-66511904D02*
X130092857Y-66511904D01*
X130092857Y-66130952D01*
X130150000Y-66035714D01*
X130207142Y-65988095D01*
X130321428Y-65940476D01*
X130492857Y-65940476D01*
X130607142Y-65988095D01*
X130664285Y-66035714D01*
X130721428Y-66130952D01*
X130721428Y-66511904D01*
X130092857Y-65607142D02*
X131292857Y-64940476D01*
X130092857Y-64940476D02*
X131292857Y-65607142D01*
X131292857Y-64559523D02*
X130092857Y-64559523D01*
X130664285Y-64559523D02*
X130664285Y-63988095D01*
X131292857Y-63988095D02*
X130092857Y-63988095D01*
%TD*%
M02*
