M48
; DRILL file {KiCad (5.1.10)-1} date 08/17/21 14:41:44
; FORMAT={-:-/ absolute / inch / decimal}
; #@! TF.CreationDate,2021-08-17T14:41:44+02:00
; #@! TF.GenerationSoftware,Kicad,Pcbnew,(5.1.10)-1
; #@! TF.FileFunction,Plated,1,6,PTH
FMAT,2
INCH
T1C0.0059
T2C0.0098
T3C0.0331
T4C0.0394
T5C0.0591
T6C0.0669
T7C0.1260
%
G90
G05
T1
X4.3602Y-2.7717
X4.3602Y-2.9976
X4.361Y-3.2236
X4.361Y-3.4496
X4.361Y-3.6756
X4.361Y-3.9016
X4.3721Y-2.8307
X4.3721Y-3.0571
X4.3721Y-3.2835
X4.3721Y-3.5098
X4.3721Y-3.7343
X4.3721Y-3.9606
X4.3992Y-2.9598
X4.3992Y-3.1862
X4.3992Y-3.4126
X4.3992Y-3.8654
X4.4154Y-2.8898
X4.4154Y-2.8307
X4.4154Y-3.0571
X4.4154Y-3.2835
X4.4154Y-3.5098
X4.4154Y-3.7343
X4.4154Y-3.9606
X4.4232Y-3.1004
X4.4232Y-3.3268
X4.4232Y-3.5531
X4.4232Y-3.7795
X4.4232Y-4.0059
X4.4394Y-2.8181
X4.4394Y-3.0441
X4.4394Y-3.2705
X4.4394Y-3.7232
X4.4398Y-3.4969
X4.4398Y-3.9496
X4.4547Y-3.126
X4.4547Y-3.8051
X4.4555Y-3.3524
X4.4555Y-3.5787
X4.4555Y-4.0315
X4.4783Y-3.1878
X4.4783Y-3.8669
X4.5008Y-3.002
X4.5008Y-3.4346
X4.5008Y-3.661
X4.5008Y-2.9031
X4.5008Y-2.9429
X4.5079Y-3.0413
X4.5177Y-3.2283
X4.5276Y-3.8589
X4.5276Y-3.8844
X4.5276Y-3.9099
X4.5276Y-3.9354
X4.5276Y-3.961
X4.5276Y-3.8334
X4.5291Y-3.9864
X4.5337Y-3.8088
X4.5359Y-4.0109
X4.5473Y-3.1083
X4.5476Y-3.5957
X4.5476Y-3.6957
X4.5476Y-3.7457
X4.548Y-4.0333
X4.548Y-3.0197
X4.548Y-3.0394
X4.5496Y-3.789
X4.5559Y-3.248
X4.5559Y-3.2736
X4.5591Y-2.8858
X4.5591Y-2.9055
X4.5647Y-4.0526
X4.5669Y-3.8459
X4.5669Y-3.8722
X4.5669Y-3.8986
X4.5669Y-3.925
X4.5669Y-3.9513
X4.5676Y-3.9777
X4.5723Y-3.7778
X4.5726Y-2.8707
X4.5726Y-2.9207
X4.5726Y-3.1707
X4.5726Y-3.3207
X4.5726Y-3.5707
X4.5726Y-3.6207
X4.5726Y-3.6707
X4.5726Y-3.7207
X4.5728Y-3.8211
X4.5754Y-4.0027
X4.5819Y-4.0972
X4.5827Y-4.0707
X4.5913Y-4.0236
X4.5996Y-4.111
X4.6041Y-2.6181
X4.6041Y-2.6378
X4.6041Y-2.6575
X4.6041Y-2.6772
X4.6041Y-2.7461
X4.6041Y-2.7657
X4.6041Y-2.7854
X4.6041Y-2.8051
X4.6091Y-4.0413
X4.6226Y-2.8707
X4.6226Y-2.9207
X4.6226Y-3.1707
X4.6226Y-3.2207
X4.6226Y-3.3707
X4.6226Y-3.4207
X4.6226Y-3.5707
X4.6226Y-3.6207
X4.6226Y-3.6707
X4.6226Y-3.7207
X4.6226Y-3.7707
X4.6226Y-3.8207
X4.6226Y-3.8707
X4.6226Y-3.9207
X4.6226Y-3.9707
X4.6245Y-4.1115
X4.6346Y-4.0413
X4.6546Y-4.124
X4.6555Y-2.4803
X4.6555Y-2.5
X4.6555Y-2.5197
X4.6555Y-2.5394
X4.6555Y-2.5591
X4.6602Y-4.0413
X4.6726Y-2.8707
X4.6726Y-2.9207
X4.6726Y-3.0707
X4.6726Y-3.321
X4.6726Y-3.3707
X4.6726Y-3.5707
X4.6726Y-3.6207
X4.6726Y-3.7207
X4.6726Y-3.7707
X4.6726Y-3.8207
X4.6726Y-3.8707
X4.6726Y-3.9207
X4.6726Y-3.9707
X4.6836Y-4.1248
X4.6858Y-4.0413
X4.6911Y-2.6181
X4.6911Y-2.6378
X4.6911Y-2.6575
X4.6911Y-2.6772
X4.6911Y-2.7461
X4.6911Y-2.7657
X4.6911Y-2.7854
X4.6911Y-2.8051
X4.7114Y-4.0413
X4.7126Y-4.1504
X4.7127Y-4.1248
X4.7165Y-2.4803
X4.7165Y-2.5
X4.7165Y-2.5197
X4.7165Y-2.5394
X4.7165Y-2.5591
X4.7226Y-2.8707
X4.7226Y-2.9207
X4.7226Y-2.9707
X4.7226Y-3.8707
X4.7226Y-3.9207
X4.7226Y-3.9707
X4.7323Y-2.6063
X4.7323Y-2.6287
X4.7323Y-2.6508
X4.7323Y-2.6732
X4.737Y-4.0413
X4.7437Y-3.3488
X4.7469Y-3.3756
X4.7469Y-3.4157
X4.748Y-3.2185
X4.748Y-3.2579
X4.7539Y-3.5236
X4.7598Y-2.5906
X4.7626Y-4.0413
X4.7628Y-3.2382
X4.763Y-3.3047
X4.7726Y-2.8707
X4.7726Y-2.9207
X4.7726Y-3.4707
X4.7726Y-3.8707
X4.7726Y-3.9207
X4.7726Y-3.9707
X4.7736Y-3.6811
X4.7756Y-3.7677
X4.7774Y-2.7461
X4.7774Y-2.7657
X4.7774Y-2.7854
X4.7774Y-2.8051
X4.7783Y-2.6835
X4.7882Y-4.0413
X4.7933Y-3.1004
X4.7933Y-3.1299
X4.7942Y-4.1357
X4.7957Y-3.0118
X4.7992Y-2.5913
X4.7992Y-2.7039
X4.8032Y-3.6319
X4.813Y-3.1004
X4.813Y-3.1299
X4.8138Y-4.0413
X4.8147Y-4.1021
X4.8168Y-4.1495
X4.8189Y-2.5913
X4.8189Y-2.7039
X4.8226Y-2.8707
X4.8226Y-2.9207
X4.8226Y-3.8707
X4.8226Y-3.9207
X4.8226Y-3.9707
X4.8228Y-3.7205
X4.8327Y-3.1004
X4.8327Y-3.1299
X4.8335Y-3.3539
X4.8373Y-4.116
X4.8386Y-2.7039
X4.8393Y-4.1633
X4.8394Y-4.0413
X4.8425Y-3.7697
X4.8445Y-3.2028
X4.8469Y-2.5161
X4.8524Y-3.1004
X4.8524Y-3.1299
X4.8559Y-3.9773
X4.8599Y-4.1298
X4.8618Y-3.3268
X4.8619Y-4.1772
X4.8622Y-2.5594
X4.8622Y-3.6319
X4.8622Y-3.7205
X4.8644Y-2.7461
X4.8644Y-2.7657
X4.8644Y-2.7854
X4.8644Y-2.8051
X4.865Y-4.0413
X4.8713Y-3.3539
X4.8713Y-3.4374
X4.872Y-3.1004
X4.872Y-3.1299
X4.8726Y-2.9207
X4.8726Y-3.8707
X4.8726Y-3.9207
X4.8764Y-3.9934
X4.8819Y-2.4996
X4.8819Y-3.2776
X4.8825Y-4.1436
X4.8894Y-3.1898
X4.8906Y-4.0413
X4.8947Y-4.2244
X4.8947Y-4.2717
X4.8968Y-4.0095
X4.9016Y-2.5594
X4.9016Y-2.8154
X4.9047Y-4.1524
X4.9113Y-3.6366
X4.9114Y-3.6614
X4.9114Y-3.7205
X4.9138Y-4.1126
X4.9169Y-2.5161
X4.9173Y-4.0257
X4.9173Y-4.2244
X4.9173Y-4.2717
X4.9212Y-3.9786
X4.9226Y-2.8707
X4.9226Y-2.9207
X4.9226Y-3.8707
X4.9226Y-3.9207
X4.9236Y-2.7567
X4.9303Y-4.1524
X4.9339Y-3.3173
X4.9382Y-4.0413
X4.94Y-4.2244
X4.94Y-4.2717
X4.9406Y-3.189
X4.9409Y-2.9823
X4.9417Y-3.9948
X4.9421Y-4.113
X4.9496Y-3.3661
X4.9508Y-3.5512
X4.9537Y-4.1634
X4.9537Y-4.189
X4.9555Y-3.1299
X4.9555Y-3.2087
X4.9555Y-3.248
X4.9621Y-4.0109
X4.9677Y-4.113
X4.9705Y-3.0591
X4.9726Y-2.9207
X4.9726Y-3.8707
X4.9726Y-3.9207
X4.9726Y-3.9707
X4.9826Y-4.0271
X4.9827Y-3.0953
X4.9902Y-2.9823
X4.9933Y-4.113
X5.0Y-3.622
X5.0Y-3.6417
X5.0Y-3.7205
X5.0039Y-2.5906
X5.0051Y-4.0402
X5.0189Y-4.113
X5.0226Y-2.9207
X5.0226Y-3.8707
X5.0226Y-3.9207
X5.0226Y-3.9707
X5.0236Y-2.7386
X5.0295Y-3.0559
X5.0303Y-3.4276
X5.0307Y-4.0402
X5.0315Y-2.5906
X5.0315Y-2.6161
X5.0315Y-2.6398
X5.0315Y-2.6634
X5.0394Y-3.1398
X5.0394Y-3.1791
X5.0394Y-3.2185
X5.0445Y-4.0618
X5.0473Y-2.4803
X5.0473Y-2.5
X5.0476Y-4.139
X5.0492Y-3.6883
X5.0492Y-3.7697
X5.0587Y-2.6929
X5.0681Y-3.4276
X5.0689Y-3.0561
X5.0726Y-2.9207
X5.0726Y-2.9707
X5.0726Y-3.8707
X5.0726Y-3.9207
X5.0726Y-3.9707
X5.076Y-4.0717
X5.0778Y-4.1634
X5.0778Y-4.189
X5.0787Y-3.1398
X5.0787Y-3.1791
X5.0787Y-3.2185
X5.0915Y-4.2244
X5.0915Y-4.2717
X5.0992Y-2.65
X5.1016Y-4.0717
X5.1083Y-2.4803
X5.1083Y-2.5
X5.1142Y-4.2244
X5.1142Y-4.2717
X5.1181Y-3.1398
X5.1181Y-3.1791
X5.1181Y-3.2185
X5.1226Y-2.8707
X5.1226Y-2.9207
X5.1226Y-2.9707
X5.1226Y-3.8707
X5.1272Y-4.0717
X5.128Y-3.0561
X5.1368Y-4.2244
X5.1368Y-4.2717
X5.1476Y-2.8154
X5.1506Y-4.1378
X5.1506Y-4.1634
X5.1506Y-4.189
X5.1528Y-4.0717
X5.1575Y-2.6382
X5.1614Y-3.2752
X5.1624Y-3.0827
X5.1693Y-4.0347
X5.1697Y-2.7563
X5.1726Y-2.9207
X5.1726Y-3.8707
X5.1829Y-4.0811
X5.1847Y-4.1205
X5.1862Y-3.3488
X5.189Y-4.0347
X5.1941Y-2.5197
X5.1969Y-2.9921
X5.2018Y-3.1102
X5.2067Y-2.4803
X5.2067Y-2.5
X5.2084Y-4.0811
X5.2102Y-3.6575
X5.212Y-4.1205
X5.2142Y-2.65
X5.2209Y-3.7717
X5.2226Y-2.9207
X5.2226Y-2.9707
X5.2226Y-3.8707
X5.226Y-3.2256
X5.228Y-3.4457
X5.2337Y-4.0822
X5.2343Y-3.3571
X5.2388Y-4.1241
X5.2461Y-2.6969
X5.252Y-2.761
X5.2551Y-3.7244
X5.2551Y-3.7713
X5.258Y-4.0895
X5.26Y-4.1405
X5.265Y-3.3488
X5.2661Y-3.0091
X5.2695Y-4.1657
X5.2726Y-2.9207
X5.2726Y-2.9707
X5.2726Y-3.8207
X5.2726Y-3.8707
X5.2756Y-2.4996
X5.2792Y-4.1034
X5.2862Y-3.2874
X5.287Y-3.248
X5.2953Y-2.4848
X5.2953Y-2.5689
X5.2953Y-2.6969
X5.2953Y-3.1201
X5.2955Y-4.1228
X5.2961Y-3.4669
X5.3058Y-4.146
X5.3091Y-4.1711
X5.315Y-2.4996
X5.315Y-2.5886
X5.3226Y-2.9207
X5.3236Y-3.2185
X5.3244Y-3.1004
X5.3244Y-3.1398
X5.3244Y-3.1791
X5.3244Y-3.2579
X5.3256Y-2.9744
X5.3256Y-3.0492
X5.3339Y-3.4673
X5.3423Y-2.7461
X5.3423Y-2.7657
X5.3423Y-2.7854
X5.3423Y-2.8051
X5.374Y-3.811
X5.3748Y-2.4878
X5.3839Y-2.6969
X5.3937Y-3.4236
X5.4134Y-3.2776
X5.4224Y-3.8173
X5.4226Y-2.9207
X5.4226Y-3.8707
X5.4226Y-3.9207
X5.4226Y-3.9707
X5.4232Y-2.6969
X5.4232Y-4.0354
X5.4293Y-2.7461
X5.4293Y-2.7657
X5.4293Y-2.7854
X5.4293Y-2.8051
X5.4331Y-2.5
X5.4331Y-2.5787
X5.4331Y-3.2579
X5.4494Y-3.0368
X5.4528Y-3.6811
X5.4528Y-3.7008
X5.4528Y-3.7205
X5.4528Y-3.7402
X5.4567Y-4.1031
X5.4626Y-3.3673
X5.4626Y-3.4657
X5.4724Y-2.7756
X5.4811Y-2.6807
X5.4823Y-3.6811
X5.4823Y-3.7008
X5.4823Y-3.7205
X5.4823Y-3.7402
X5.4913Y-2.4878
X5.498Y-4.2008
X5.498Y-4.063
X5.498Y-4.1319
X5.498Y-4.2598
X5.502Y-3.4657
X5.502Y-4.0157
X5.5156Y-2.7461
X5.5156Y-2.7657
X5.5156Y-2.7854
X5.5156Y-2.8051
X5.5226Y-2.8707
X5.5226Y-3.8707
X5.5226Y-3.9707
X5.5232Y-3.3079
X5.5232Y-3.3457
X5.5236Y-2.5476
X5.5244Y-2.5886
X5.5291Y-4.1909
X5.5295Y-4.063
X5.5295Y-4.1319
X5.5295Y-4.2598
X5.5315Y-3.1201
X5.5315Y-3.1594
X5.5413Y-3.4657
X5.5512Y-3.1004
X5.5512Y-3.1398
X5.5512Y-3.1791
X5.5551Y-2.5906
X5.5551Y-4.0846
X5.5551Y-4.1043
X5.5551Y-4.187
X5.5551Y-4.2067
X5.5689Y-4.061
X5.5689Y-4.128
X5.5689Y-4.1634
X5.5689Y-4.2303
X5.5709Y-3.1201
X5.5709Y-3.1594
X5.5709Y-3.7205
X5.5726Y-3.6207
X5.5736Y-2.5102
X5.5827Y-2.5906
X5.5827Y-2.6161
X5.5827Y-2.6398
X5.5827Y-2.6634
X5.5984Y-2.4803
X5.5984Y-2.5
X5.5984Y-2.5197
X5.6024Y-4.128
X5.6024Y-4.1634
X5.6026Y-2.7461
X5.6026Y-2.7657
X5.6026Y-2.7854
X5.6026Y-2.8051
X5.6201Y-4.0043
X5.6213Y-3.4732
X5.6221Y-2.5768
X5.6226Y-2.8707
X5.6339Y-4.128
X5.6388Y-2.6486
X5.6388Y-2.6939
X5.6398Y-4.0043
X5.6417Y-4.1634
X5.6457Y-4.2421
X5.6594Y-4.0043
X5.6595Y-2.4803
X5.6595Y-2.5
X5.6595Y-2.5197
X5.6654Y-4.128
X5.6654Y-4.2598
X5.6693Y-2.815
X5.6705Y-3.4732
X5.6724Y-2.9713
X5.6726Y-2.8707
X5.6726Y-3.0207
X5.6726Y-3.2707
X5.6726Y-3.6207
X5.6726Y-3.8207
X5.6831Y-4.3012
X5.687Y-4.1457
X5.687Y-4.1654
X5.689Y-4.0256
X5.6988Y-2.815
X5.7047Y-4.122
X5.7055Y-2.5984
X5.7067Y-4.2598
X5.7205Y-3.4732
X5.724Y-3.3264
X5.7283Y-2.815
X5.7362Y-4.122
X5.737Y-3.0346
X5.7382Y-3.6417
X5.7382Y-3.6614
X5.7382Y-3.6811
X5.7382Y-4.0035
X5.7382Y-4.2598
X5.7402Y-2.9327
X5.7441Y-3.1299
X5.748Y-2.9823
X5.7579Y-2.815
X5.7579Y-3.5925
X5.7579Y-4.1614
X5.7638Y-3.1299
X5.7638Y-3.2677
X5.7677Y-3.6417
X5.7677Y-3.6614
X5.7677Y-3.6811
X5.7677Y-4.2618
X5.7689Y-2.8937
X5.7776Y-4.0035
X5.7835Y-2.6937
X5.7835Y-3.1299
X5.7835Y-3.2677
X5.7913Y-4.2421
X5.7972Y-3.939
X5.7974Y-2.7656
X5.8031Y-3.1299
X5.8031Y-3.2677
X5.8051Y-4.1673
X5.8071Y-3.5935
X5.8071Y-3.7205
X5.8071Y-3.878
X5.8075Y-3.313
X5.8091Y-2.5177
X5.8091Y-2.5374
X5.8167Y-2.7463
X5.8169Y-2.9154
X5.8169Y-2.9823
X5.8169Y-3.1004
X5.8169Y-2.8516
X5.8177Y-4.0035
X5.8228Y-3.1299
X5.8228Y-3.2677
X5.8228Y-3.2925
X5.8256Y-3.3453
X5.8268Y-3.7205
X5.8268Y-3.878
X5.8268Y-4.1909
X5.8287Y-2.5098
X5.8287Y-2.5925
X5.8366Y-3.4941
X5.8366Y-3.563
X5.8366Y-3.9469
X5.8425Y-3.1299
X5.8425Y-3.2677
X5.8445Y-4.1319
X5.8465Y-3.7205
X5.8465Y-3.878
X5.8465Y-4.1909
X5.8477Y-3.3673
X5.8484Y-2.6378
X5.8514Y-2.5098
X5.8514Y-2.6073
X5.8524Y-3.1496
X5.8524Y-3.1693
X5.8524Y-3.189
X5.8524Y-3.2087
X5.8524Y-3.2283
X5.8524Y-3.248
X5.8555Y-4.0035
X5.8563Y-3.2925
X5.8642Y-4.1319
X5.8661Y-3.4941
X5.8661Y-3.563
X5.8661Y-4.1909
X5.874Y-2.5098
X5.874Y-2.5925
X5.8799Y-3.9469
X5.8839Y-4.1319
X5.8927Y-2.6073
X5.8937Y-2.5177
X5.8937Y-2.5374
X5.8957Y-3.435
X5.8957Y-3.5925
X5.9016Y-3.8878
X5.9016Y-3.9469
X5.9036Y-4.1319
X5.9134Y-2.498
X5.9134Y-2.5945
X5.9154Y-3.4646
X5.9154Y-3.9742
X5.9154Y-4.0612
X5.9154Y-4.2344
X5.9252Y-3.6516
X5.9252Y-3.6713
X5.9264Y-3.8484
X5.9331Y-2.498
X5.9331Y-2.5945
X5.9343Y-3.1681
X5.9343Y-3.2291
X5.935Y-3.2579
X5.935Y-3.435
X5.935Y-3.9742
X5.935Y-4.0612
X5.935Y-4.1474
X5.935Y-4.2344
X5.9409Y-3.3957
X5.9528Y-2.5177
X5.9528Y-2.5374
X5.9547Y-3.9742
X5.9547Y-4.0612
X5.9547Y-4.1474
X5.9547Y-4.2344
X5.9673Y-3.7827
X5.9744Y-3.9742
X5.9744Y-4.0612
X5.9744Y-4.1063
X5.9744Y-4.1474
X5.9744Y-4.2344
X5.9843Y-2.5177
X5.9843Y-2.5374
X5.985Y-2.9898
X5.9894Y-3.1161
X5.9941Y-3.5925
X5.9953Y-3.7965
X6.002Y-3.3248
X6.002Y-3.3661
X6.002Y-3.4075
X6.0028Y-3.6587
X6.0039Y-2.498
X6.0059Y-2.6024
X6.013Y-3.8583
X6.0138Y-3.1299
X6.0138Y-3.1594
X6.0209Y-3.1984
X6.0228Y-2.9898
X6.0236Y-4.0354
X6.0256Y-2.6024
X6.0256Y-2.6988
X6.0295Y-2.498
X6.0327Y-3.7965
X6.0335Y-3.6024
X6.0413Y-3.1339
X6.0433Y-3.3248
X6.0433Y-3.3661
X6.0433Y-3.4075
X6.0453Y-2.6024
X6.0453Y-2.6988
X6.0551Y-2.498
X6.0618Y-3.9189
X6.063Y-3.6024
X6.065Y-2.6024
X6.065Y-2.6988
X6.0669Y-4.1634
X6.0728Y-2.9626
X6.0732Y-3.7965
X6.0748Y-2.5177
X6.0748Y-2.5374
X6.0827Y-3.9469
X6.0846Y-3.3248
X6.0846Y-3.3661
X6.0846Y-3.4075
X6.0866Y-4.1319
X6.0866Y-4.1909
X6.0921Y-3.1567
X6.0921Y-3.2508
X6.0945Y-2.5098
X6.1024Y-2.9724
X6.1024Y-3.9469
X6.1075Y-3.4425
X6.1102Y-3.8898
X6.1118Y-3.7965
X6.1122Y-3.6024
X6.1171Y-2.5098
X6.1221Y-4.1319
X6.1221Y-4.1929
X6.128Y-2.7244
X6.1323Y-3.1425
X6.1329Y-2.6486
X6.1339Y-3.8819
X6.1398Y-2.5098
X6.1417Y-3.6024
X6.1421Y-3.6362
X6.1425Y-3.6811
X6.1496Y-2.6693
X6.152Y-3.7965
X6.1528Y-3.1791
X6.1595Y-2.5256
X6.1595Y-2.5463
X6.1595Y-2.5669
X6.1595Y-3.9449
X6.1614Y-4.1319
X6.1614Y-3.8878
X6.1614Y-4.1909
X6.1673Y-2.9764
X6.1673Y-3.0087
X6.1807Y-3.2874
X6.1811Y-4.1634
X6.1831Y-3.1496
X6.1909Y-3.8484
X6.1909Y-3.8681
X6.2008Y-2.7067
X6.2008Y-2.7362
X6.2008Y-3.4055
X6.2008Y-3.435
X6.2008Y-3.4636
X6.2008Y-3.492
X6.2016Y-2.5874
X6.2016Y-2.6488
X6.2016Y-2.9898
X6.2022Y-3.5658
X6.2022Y-3.5943
X6.2059Y-3.1831
X6.2197Y-3.6406
X6.2205Y-2.9429
X6.2205Y-2.9724
X6.2205Y-3.8583
X6.2205Y-3.878
X6.2303Y-3.1102
X6.235Y-3.1831
X6.2378Y-3.5047
X6.2378Y-3.5425
X6.2394Y-2.9898
X6.2579Y-3.1343
X6.2602Y-3.2874
X6.2697Y-3.6768
X6.278Y-3.3669
X6.278Y-3.4047
X6.2925Y-3.0118
X6.2992Y-2.5591
X6.2992Y-2.7244
X6.2992Y-2.8108
X6.2992Y-2.8974
X6.2992Y-2.9844
X6.3091Y-3.2579
X6.3091Y-2.4803
X6.3091Y-2.5
X6.3091Y-2.5197
X6.3189Y-2.7244
X6.3189Y-2.8108
X6.3189Y-2.8974
X6.3189Y-2.9844
X6.3386Y-2.7244
X6.3386Y-2.8108
X6.3386Y-2.8974
X6.3386Y-2.9844
X6.3386Y-3.3461
X6.3394Y-2.65
X6.3425Y-3.0114
X6.3425Y-3.7795
X6.3583Y-2.7244
X6.3583Y-2.8108
X6.3583Y-2.8974
X6.3583Y-2.9844
X6.3598Y-3.6606
X6.3693Y-3.1496
X6.3701Y-2.4803
X6.3701Y-2.5
X6.3701Y-2.5197
X6.3772Y-2.65
X6.378Y-3.4571
X6.3829Y-3.9285
X6.3829Y-3.9538
X6.3829Y-3.9791
X6.3829Y-4.0045
X6.3829Y-4.0298
X6.3829Y-4.0551
X6.3839Y-3.311
X6.3839Y-3.3366
X6.3849Y-3.9033
X6.3878Y-2.5591
X6.3878Y-2.5886
X6.3878Y-2.687
X6.3902Y-3.6358
X6.3925Y-3.7795
X6.3949Y-3.1886
X6.3949Y-3.2287
X6.3984Y-2.9898
X6.3987Y-3.8825
X6.4075Y-2.5886
X6.4075Y-2.687
X6.4173Y-3.6764
X6.4205Y-3.1201
X6.4212Y-3.8716
X6.4222Y-3.9225
X6.4222Y-3.9486
X6.4222Y-3.9747
X6.4222Y-4.0007
X6.4222Y-4.0268
X6.4222Y-4.0529
X6.4272Y-2.687
X6.4362Y-2.9898
X6.4391Y-3.9104
X6.4425Y-3.7795
X6.4465Y-3.8711
X6.4469Y-3.5138
X6.4469Y-3.5531
X6.4469Y-3.5925
X6.4611Y-3.3202
X6.4611Y-3.3563
X6.4611Y-3.3924
X6.4651Y-3.9104
X6.4669Y-3.7866
X6.4718Y-3.8711
X6.4772Y-2.9898
X6.4843Y-2.5197
X6.4862Y-2.5988
X6.4862Y-3.5138
X6.4862Y-3.5531
X6.4862Y-3.5925
X6.4912Y-3.9104
X6.4972Y-3.8711
X6.4972Y-3.3202
X6.4972Y-3.3924
X6.515Y-2.9898
X6.5157Y-2.4996
X6.5157Y-2.5594
X6.5173Y-3.9104
X6.5225Y-3.8711
X6.5256Y-3.5138
X6.5256Y-3.5531
X6.5256Y-3.5925
X6.5327Y-3.2287
X6.5334Y-3.3202
X6.5334Y-3.3563
X6.5334Y-3.3924
X6.5354Y-2.5744
X6.5354Y-3.7795
X6.5425Y-3.1201
X6.5434Y-3.9104
X6.5449Y-2.6858
X6.5478Y-3.8711
X6.5551Y-2.4996
X6.5551Y-2.5594
X6.5551Y-3.1681
X6.5551Y-3.676
X6.5694Y-3.9104
X6.5732Y-3.8711
X6.576Y-2.6858
X6.5823Y-3.637
X6.5925Y-3.7795
X6.5945Y-3.6756
X6.5955Y-3.9104
X6.5985Y-3.8711
X6.6043Y-3.1181
X6.6043Y-3.1496
X6.6094Y-3.6024
X6.6142Y-3.2492
X6.615Y-2.4858
X6.6216Y-3.9104
X6.6238Y-3.8711
X6.624Y-3.3268
X6.6339Y-3.1496
X6.6425Y-3.7795
X6.6477Y-3.9104
X6.6491Y-3.8711
X6.6528Y-2.5319
X6.6531Y-3.2484
X6.6539Y-3.1689
X6.6547Y-3.3661
X6.6547Y-3.4055
X6.6559Y-3.4457
X6.6563Y-3.5634
X6.6752Y-3.8543
X6.6752Y-3.9272
X6.6929Y-3.5925
X6.6929Y-3.6811
X6.7008Y-3.8543
X6.7008Y-3.9272
X6.7008Y-2.4803
X6.7008Y-2.5394
X6.7126Y-3.5728
X6.7126Y-3.6122
X6.7264Y-2.8248
X6.7264Y-2.8839
X6.7299Y-3.1161
X6.7303Y-3.1378
X6.7323Y-2.9724
X6.7323Y-3.5925
X6.7343Y-2.6331
X6.7362Y-3.8681
X6.7362Y-3.8907
X6.7362Y-3.9134
X6.7413Y-3.4272
X6.7413Y-3.502
X6.7421Y-3.6811
X6.752Y-2.8346
X6.752Y-2.874
X6.7559Y-3.1161
X6.7599Y-2.5787
X6.7618Y-2.4803
X6.7618Y-2.5394
X6.7677Y-2.5098
X6.7713Y-2.8543
X6.7795Y-3.0059
X6.7795Y-3.6752
X6.7795Y-3.7854
X6.7815Y-2.9724
X6.7835Y-3.1161
X6.7835Y-3.8681
X6.7835Y-3.8907
X6.7835Y-3.9134
X6.7913Y-2.6181
X6.8051Y-3.0059
X6.8051Y-3.6752
X6.8051Y-3.7854
X6.8091Y-3.1161
X6.8091Y-3.1378
X6.8091Y-3.2106
X6.8091Y-3.2303
X6.8248Y-3.0295
X6.8248Y-3.0512
X6.8248Y-3.7008
X6.8248Y-3.7205
X6.8248Y-3.7402
X6.8248Y-3.7598
T2
X4.8425Y-3.4547
X4.8622Y-3.4744
X5.126Y-3.7244
X5.126Y-3.8189
X5.2364Y-3.6416
X5.2561Y-3.6612
X5.3226Y-3.9207
X5.3226Y-3.9707
T3
X4.6917Y-4.1982
X4.6917Y-4.2982
X4.7417Y-4.2482
X4.7917Y-4.1982
X4.7917Y-4.2982
X5.2394Y-4.1982
X5.2394Y-4.2982
X5.2894Y-4.2482
X5.3394Y-4.1982
X5.3394Y-4.2982
T4
X5.9768Y-2.8022
X5.9768Y-2.9022
X6.0768Y-2.8022
X6.0768Y-2.9022
X6.1768Y-2.8022
X6.1768Y-2.9022
X6.4768Y-2.8022
X6.4768Y-2.9022
X6.5768Y-2.8022
X6.5768Y-2.9022
X6.6768Y-2.8022
X6.6768Y-2.9022
T5
X6.4026Y-4.1311
T6
X6.3026Y-4.0311
X6.3026Y-4.2311
X6.5026Y-4.0311
X6.5026Y-4.2311
T7
X4.4685Y-2.5984
X4.4685Y-4.1929
X6.9055Y-4.1575
X6.9488Y-2.5984
T0
M30
