%TF.GenerationSoftware,KiCad,Pcbnew,(5.1.10)-1*%
%TF.CreationDate,2021-08-17T14:43:39+02:00*%
%TF.ProjectId,mowi,6d6f7769-2e6b-4696-9361-645f70636258,v1.0*%
%TF.SameCoordinates,Original*%
%TF.FileFunction,Other,Fab,Top*%
%FSLAX46Y46*%
G04 Gerber Fmt 4.6, Leading zero omitted, Abs format (unit mm)*
G04 Created by KiCad (PCBNEW (5.1.10)-1) date 2021-08-17 14:43:39*
%MOMM*%
%LPD*%
G01*
G04 APERTURE LIST*
%ADD10C,0.050000*%
%ADD11C,0.100000*%
%ADD12C,0.150000*%
%ADD13C,0.040000*%
%ADD14C,0.060000*%
G04 APERTURE END LIST*
D10*
X167400000Y-104930000D02*
G75*
G03*
X167400000Y-104930000I-4800000J0D01*
G01*
X167600000Y-104930000D02*
G75*
G03*
X167600000Y-104930000I-5000000J0D01*
G01*
D11*
%TO.C,J7*%
X148250000Y-62540000D02*
X155750000Y-62540000D01*
X148250000Y-67540000D02*
X148250000Y-62540000D01*
X155750000Y-67540000D02*
X148250000Y-67540000D01*
X155750000Y-62540000D02*
X155750000Y-67540000D01*
%TO.C,SW1*%
X140750000Y-104450000D02*
X141620000Y-103950000D01*
X140750000Y-103450000D02*
X141620000Y-103950000D01*
X140750000Y-103000000D02*
X144650000Y-103000000D01*
X140750000Y-108400000D02*
X140750000Y-103000000D01*
X144650000Y-108400000D02*
X140750000Y-108400000D01*
X144650000Y-103000000D02*
X144650000Y-108400000D01*
%TO.C,D7*%
X110450000Y-100800000D02*
X110850000Y-100800000D01*
X110650000Y-100800000D02*
X110650000Y-101000000D01*
X110650000Y-100500000D02*
X110650000Y-100300000D01*
X110850000Y-100500000D02*
X110450000Y-100500000D01*
X110650000Y-100800000D02*
X110850000Y-100500000D01*
X110450000Y-100500000D02*
X110650000Y-100800000D01*
X111000000Y-102300000D02*
X111450000Y-102300000D01*
X111000000Y-98900000D02*
X111000000Y-99600000D01*
X111450000Y-98900000D02*
X111000000Y-98900000D01*
X111450000Y-102300000D02*
X111450000Y-98900000D01*
X111000000Y-101600000D02*
X111000000Y-102300000D01*
X111000000Y-101600000D02*
G75*
G02*
X111000000Y-99600000I0J1000000D01*
G01*
%TO.C,D6*%
X110450000Y-95060000D02*
X110850000Y-95060000D01*
X110650000Y-95060000D02*
X110650000Y-95260000D01*
X110650000Y-94760000D02*
X110650000Y-94560000D01*
X110850000Y-94760000D02*
X110450000Y-94760000D01*
X110650000Y-95060000D02*
X110850000Y-94760000D01*
X110450000Y-94760000D02*
X110650000Y-95060000D01*
X111000000Y-96560000D02*
X111450000Y-96560000D01*
X111000000Y-93160000D02*
X111000000Y-93860000D01*
X111450000Y-93160000D02*
X111000000Y-93160000D01*
X111450000Y-96560000D02*
X111450000Y-93160000D01*
X111000000Y-95860000D02*
X111000000Y-96560000D01*
X111000000Y-95860000D02*
G75*
G02*
X111000000Y-93860000I0J1000000D01*
G01*
%TO.C,D5*%
X110450000Y-89320000D02*
X110850000Y-89320000D01*
X110650000Y-89320000D02*
X110650000Y-89520000D01*
X110650000Y-89020000D02*
X110650000Y-88820000D01*
X110850000Y-89020000D02*
X110450000Y-89020000D01*
X110650000Y-89320000D02*
X110850000Y-89020000D01*
X110450000Y-89020000D02*
X110650000Y-89320000D01*
X111000000Y-90820000D02*
X111450000Y-90820000D01*
X111000000Y-87420000D02*
X111000000Y-88120000D01*
X111450000Y-87420000D02*
X111000000Y-87420000D01*
X111450000Y-90820000D02*
X111450000Y-87420000D01*
X111000000Y-90120000D02*
X111000000Y-90820000D01*
X111000000Y-90120000D02*
G75*
G02*
X111000000Y-88120000I0J1000000D01*
G01*
%TO.C,D4*%
X110450000Y-83580000D02*
X110850000Y-83580000D01*
X110650000Y-83580000D02*
X110650000Y-83780000D01*
X110650000Y-83280000D02*
X110650000Y-83080000D01*
X110850000Y-83280000D02*
X110450000Y-83280000D01*
X110650000Y-83580000D02*
X110850000Y-83280000D01*
X110450000Y-83280000D02*
X110650000Y-83580000D01*
X111000000Y-85080000D02*
X111450000Y-85080000D01*
X111000000Y-81680000D02*
X111000000Y-82380000D01*
X111450000Y-81680000D02*
X111000000Y-81680000D01*
X111450000Y-85080000D02*
X111450000Y-81680000D01*
X111000000Y-84380000D02*
X111000000Y-85080000D01*
X111000000Y-84380000D02*
G75*
G02*
X111000000Y-82380000I0J1000000D01*
G01*
%TO.C,D3*%
X110450000Y-77840000D02*
X110850000Y-77840000D01*
X110650000Y-77840000D02*
X110650000Y-78040000D01*
X110650000Y-77540000D02*
X110650000Y-77340000D01*
X110850000Y-77540000D02*
X110450000Y-77540000D01*
X110650000Y-77840000D02*
X110850000Y-77540000D01*
X110450000Y-77540000D02*
X110650000Y-77840000D01*
X111000000Y-79340000D02*
X111450000Y-79340000D01*
X111000000Y-75940000D02*
X111000000Y-76640000D01*
X111450000Y-75940000D02*
X111000000Y-75940000D01*
X111450000Y-79340000D02*
X111450000Y-75940000D01*
X111000000Y-78640000D02*
X111000000Y-79340000D01*
X111000000Y-78640000D02*
G75*
G02*
X111000000Y-76640000I0J1000000D01*
G01*
%TO.C,D2*%
X110450000Y-72100000D02*
X110850000Y-72100000D01*
X110650000Y-72100000D02*
X110650000Y-72300000D01*
X110650000Y-71800000D02*
X110650000Y-71600000D01*
X110850000Y-71800000D02*
X110450000Y-71800000D01*
X110650000Y-72100000D02*
X110850000Y-71800000D01*
X110450000Y-71800000D02*
X110650000Y-72100000D01*
X111000000Y-73600000D02*
X111450000Y-73600000D01*
X111000000Y-70200000D02*
X111000000Y-70900000D01*
X111450000Y-70200000D02*
X111000000Y-70200000D01*
X111450000Y-73600000D02*
X111450000Y-70200000D01*
X111000000Y-72900000D02*
X111000000Y-73600000D01*
X111000000Y-72900000D02*
G75*
G02*
X111000000Y-70900000I0J1000000D01*
G01*
%TO.C,J10*%
X164510000Y-74985000D02*
X163240000Y-73715000D01*
X170860000Y-74985000D02*
X164510000Y-74985000D01*
X170860000Y-69905000D02*
X170860000Y-74985000D01*
X163240000Y-69905000D02*
X170860000Y-69905000D01*
X163240000Y-73715000D02*
X163240000Y-69905000D01*
%TO.C,J8*%
X151810000Y-74985000D02*
X150540000Y-73715000D01*
X158160000Y-74985000D02*
X151810000Y-74985000D01*
X158160000Y-69905000D02*
X158160000Y-74985000D01*
X150540000Y-69905000D02*
X158160000Y-69905000D01*
X150540000Y-73715000D02*
X150540000Y-69905000D01*
%TO.C,J5*%
X118690000Y-109655000D02*
X122190000Y-109655000D01*
X118690000Y-109655000D02*
X118690000Y-106155000D01*
X118690000Y-112655000D02*
X118690000Y-109655000D01*
X122190000Y-112655000D02*
X118690000Y-112655000D01*
X122190000Y-109655000D02*
X122190000Y-112655000D01*
X122190000Y-106155000D02*
X122190000Y-109655000D01*
X118690000Y-106155000D02*
X122190000Y-106155000D01*
%TO.C,J3*%
X132600000Y-109655000D02*
X136100000Y-109655000D01*
X132600000Y-109655000D02*
X132600000Y-106155000D01*
X132600000Y-112655000D02*
X132600000Y-109655000D01*
X136100000Y-112655000D02*
X132600000Y-112655000D01*
X136100000Y-109655000D02*
X136100000Y-112655000D01*
X136100000Y-106155000D02*
X136100000Y-109655000D01*
X132600000Y-106155000D02*
X136100000Y-106155000D01*
%TO.C,U23*%
X146250000Y-71750000D02*
X146250000Y-101750000D01*
X115250000Y-70750000D02*
X115250000Y-101750000D01*
X146250000Y-101750000D02*
X115250000Y-101750000D01*
X145250000Y-70750000D02*
X115250000Y-70750000D01*
X145250000Y-70750000D02*
X146250000Y-71750000D01*
%TO.C,U1*%
X178970000Y-77250000D02*
X179970000Y-78250000D01*
X148570000Y-77250000D02*
X148570000Y-95250000D01*
X148570000Y-95250000D02*
X179970000Y-95250000D01*
X179970000Y-95250000D02*
X179970000Y-78250000D01*
X178970000Y-77250000D02*
X148570000Y-77250000D01*
%TO.C,SW3*%
X149200000Y-103850000D02*
X155300000Y-103850000D01*
X155300000Y-107550000D02*
X155300000Y-103850000D01*
X155300000Y-107550000D02*
X149200000Y-107550000D01*
X149200000Y-103850000D02*
X149200000Y-107550000D01*
%TO.C,SW2*%
X149200000Y-97650000D02*
X155300000Y-97650000D01*
X155300000Y-101350000D02*
X155300000Y-97650000D01*
X155300000Y-101350000D02*
X149200000Y-101350000D01*
X149200000Y-97650000D02*
X149200000Y-101350000D01*
%TO.C,FID3*%
X173030000Y-102720000D02*
G75*
G03*
X173030000Y-102720000I-500000J0D01*
G01*
%TO.C,FID2*%
X117500000Y-63500000D02*
G75*
G03*
X117500000Y-63500000I-500000J0D01*
G01*
%TO.C,FID1*%
X174280000Y-68720000D02*
G75*
G03*
X174280000Y-68720000I-500000J0D01*
G01*
%TO.C,J4*%
X128900000Y-109200000D02*
X128600000Y-108900000D01*
X131200000Y-106600000D02*
X128600000Y-106600000D01*
X131200000Y-109200000D02*
X131200000Y-106600000D01*
X128900000Y-109200000D02*
X131200000Y-109200000D01*
X128600000Y-106600000D02*
X128600000Y-108900000D01*
%TO.C,J6*%
X123900000Y-109200000D02*
X123600000Y-108900000D01*
X126200000Y-106600000D02*
X123600000Y-106600000D01*
X126200000Y-109200000D02*
X126200000Y-106600000D01*
X123900000Y-109200000D02*
X126200000Y-109200000D01*
X123600000Y-106600000D02*
X123600000Y-108900000D01*
%TO.C,J1*%
X173000000Y-99825000D02*
X172700000Y-100125000D01*
X170400000Y-97525000D02*
X170400000Y-100125000D01*
X173000000Y-97525000D02*
X170400000Y-97525000D01*
X173000000Y-99825000D02*
X173000000Y-97525000D01*
X170400000Y-100125000D02*
X172700000Y-100125000D01*
%TO.C,R14*%
X130170000Y-105195000D02*
X129630000Y-105195000D01*
X129630000Y-105195000D02*
X129630000Y-104145000D01*
X129630000Y-104145000D02*
X130170000Y-104145000D01*
X130170000Y-104145000D02*
X130170000Y-105195000D01*
%TO.C,R13*%
X130935000Y-103890000D02*
X130935000Y-104430000D01*
X130935000Y-104430000D02*
X129885000Y-104430000D01*
X129885000Y-104430000D02*
X129885000Y-103890000D01*
X129885000Y-103890000D02*
X130935000Y-103890000D01*
%TO.C,R16*%
X121475000Y-104000000D02*
X121475000Y-104540000D01*
X121475000Y-104540000D02*
X120425000Y-104540000D01*
X120425000Y-104540000D02*
X120425000Y-104000000D01*
X120425000Y-104000000D02*
X121475000Y-104000000D01*
%TO.C,R15*%
X120710000Y-105305000D02*
X120170000Y-105305000D01*
X120170000Y-105305000D02*
X120170000Y-104255000D01*
X120170000Y-104255000D02*
X120710000Y-104255000D01*
X120710000Y-104255000D02*
X120710000Y-105305000D01*
%TO.C,L2*%
X125700000Y-103900000D02*
X125700000Y-103100000D01*
X125700000Y-103100000D02*
X127300000Y-103100000D01*
X127300000Y-103100000D02*
X127300000Y-103900000D01*
X127300000Y-103900000D02*
X125700000Y-103900000D01*
%TO.C,L1*%
X117200000Y-103900000D02*
X117200000Y-103100000D01*
X117200000Y-103100000D02*
X118800000Y-103100000D01*
X118800000Y-103100000D02*
X118800000Y-103900000D01*
X118800000Y-103900000D02*
X117200000Y-103900000D01*
%TO.C,D1*%
X128530000Y-104145000D02*
X129030000Y-104145000D01*
X129030000Y-104145000D02*
X129030000Y-105145000D01*
X129030000Y-105145000D02*
X128530000Y-105145000D01*
X128530000Y-105145000D02*
X128530000Y-104145000D01*
X128530000Y-104245000D02*
X129030000Y-104245000D01*
X128530000Y-104345000D02*
X129030000Y-104345000D01*
%TO.C,C8*%
X124000000Y-103480000D02*
X124500000Y-103480000D01*
X124500000Y-103480000D02*
X124500000Y-104480000D01*
X124500000Y-104480000D02*
X124000000Y-104480000D01*
X124000000Y-104480000D02*
X124000000Y-103480000D01*
%TO.C,J2*%
X165800000Y-104930000D02*
G75*
G03*
X165800000Y-104930000I-3175000J0D01*
G01*
X159125000Y-101430000D02*
X166125000Y-101430000D01*
X159125000Y-101430000D02*
X159125000Y-108430000D01*
X159125000Y-108430000D02*
X166125000Y-108430000D01*
X166125000Y-101430000D02*
X166125000Y-108430000D01*
%TO.C,J11*%
X171375000Y-66800000D02*
X160625000Y-66800000D01*
X171375000Y-62750000D02*
X160625000Y-62750000D01*
X171375000Y-66800000D02*
X171375000Y-62750000D01*
X160625000Y-66800000D02*
X160625000Y-62750000D01*
X169625000Y-66800000D02*
X169125000Y-66092893D01*
X169125000Y-66092893D02*
X168625000Y-66800000D01*
%TO.C,J9*%
X143375000Y-66800000D02*
X132625000Y-66800000D01*
X143375000Y-62750000D02*
X132625000Y-62750000D01*
X143375000Y-66800000D02*
X143375000Y-62750000D01*
X132625000Y-66800000D02*
X132625000Y-62750000D01*
X141625000Y-66800000D02*
X141125000Y-66092893D01*
X141125000Y-66092893D02*
X140625000Y-66800000D01*
%TO.C,J14*%
X129375000Y-66800000D02*
X118625000Y-66800000D01*
X129375000Y-62750000D02*
X118625000Y-62750000D01*
X129375000Y-66800000D02*
X129375000Y-62750000D01*
X118625000Y-66800000D02*
X118625000Y-62750000D01*
X127625000Y-66800000D02*
X127125000Y-66092893D01*
X127125000Y-66092893D02*
X126625000Y-66800000D01*
%TD*%
%TO.C,J7*%
D12*
X151666666Y-64142380D02*
X151666666Y-64856666D01*
X151619047Y-64999523D01*
X151523809Y-65094761D01*
X151380952Y-65142380D01*
X151285714Y-65142380D01*
X152047619Y-64142380D02*
X152714285Y-64142380D01*
X152285714Y-65142380D01*
%TO.C,SW1*%
X143104761Y-107033333D02*
X143152380Y-106890476D01*
X143152380Y-106652380D01*
X143104761Y-106557142D01*
X143057142Y-106509523D01*
X142961904Y-106461904D01*
X142866666Y-106461904D01*
X142771428Y-106509523D01*
X142723809Y-106557142D01*
X142676190Y-106652380D01*
X142628571Y-106842857D01*
X142580952Y-106938095D01*
X142533333Y-106985714D01*
X142438095Y-107033333D01*
X142342857Y-107033333D01*
X142247619Y-106985714D01*
X142200000Y-106938095D01*
X142152380Y-106842857D01*
X142152380Y-106604761D01*
X142200000Y-106461904D01*
X142152380Y-106128571D02*
X143152380Y-105890476D01*
X142438095Y-105700000D01*
X143152380Y-105509523D01*
X142152380Y-105271428D01*
X143152380Y-104366666D02*
X143152380Y-104938095D01*
X143152380Y-104652380D02*
X142152380Y-104652380D01*
X142295238Y-104747619D01*
X142390476Y-104842857D01*
X142438095Y-104938095D01*
%TO.C,D7*%
X111902380Y-101338095D02*
X110902380Y-101338095D01*
X110902380Y-101100000D01*
X110950000Y-100957142D01*
X111045238Y-100861904D01*
X111140476Y-100814285D01*
X111330952Y-100766666D01*
X111473809Y-100766666D01*
X111664285Y-100814285D01*
X111759523Y-100861904D01*
X111854761Y-100957142D01*
X111902380Y-101100000D01*
X111902380Y-101338095D01*
X110902380Y-100433333D02*
X110902380Y-99766666D01*
X111902380Y-100195238D01*
%TO.C,D6*%
X111902380Y-95598095D02*
X110902380Y-95598095D01*
X110902380Y-95360000D01*
X110950000Y-95217142D01*
X111045238Y-95121904D01*
X111140476Y-95074285D01*
X111330952Y-95026666D01*
X111473809Y-95026666D01*
X111664285Y-95074285D01*
X111759523Y-95121904D01*
X111854761Y-95217142D01*
X111902380Y-95360000D01*
X111902380Y-95598095D01*
X110902380Y-94169523D02*
X110902380Y-94360000D01*
X110950000Y-94455238D01*
X110997619Y-94502857D01*
X111140476Y-94598095D01*
X111330952Y-94645714D01*
X111711904Y-94645714D01*
X111807142Y-94598095D01*
X111854761Y-94550476D01*
X111902380Y-94455238D01*
X111902380Y-94264761D01*
X111854761Y-94169523D01*
X111807142Y-94121904D01*
X111711904Y-94074285D01*
X111473809Y-94074285D01*
X111378571Y-94121904D01*
X111330952Y-94169523D01*
X111283333Y-94264761D01*
X111283333Y-94455238D01*
X111330952Y-94550476D01*
X111378571Y-94598095D01*
X111473809Y-94645714D01*
%TO.C,D5*%
X111902380Y-89858095D02*
X110902380Y-89858095D01*
X110902380Y-89620000D01*
X110950000Y-89477142D01*
X111045238Y-89381904D01*
X111140476Y-89334285D01*
X111330952Y-89286666D01*
X111473809Y-89286666D01*
X111664285Y-89334285D01*
X111759523Y-89381904D01*
X111854761Y-89477142D01*
X111902380Y-89620000D01*
X111902380Y-89858095D01*
X110902380Y-88381904D02*
X110902380Y-88858095D01*
X111378571Y-88905714D01*
X111330952Y-88858095D01*
X111283333Y-88762857D01*
X111283333Y-88524761D01*
X111330952Y-88429523D01*
X111378571Y-88381904D01*
X111473809Y-88334285D01*
X111711904Y-88334285D01*
X111807142Y-88381904D01*
X111854761Y-88429523D01*
X111902380Y-88524761D01*
X111902380Y-88762857D01*
X111854761Y-88858095D01*
X111807142Y-88905714D01*
%TO.C,D4*%
X111902380Y-84118095D02*
X110902380Y-84118095D01*
X110902380Y-83880000D01*
X110950000Y-83737142D01*
X111045238Y-83641904D01*
X111140476Y-83594285D01*
X111330952Y-83546666D01*
X111473809Y-83546666D01*
X111664285Y-83594285D01*
X111759523Y-83641904D01*
X111854761Y-83737142D01*
X111902380Y-83880000D01*
X111902380Y-84118095D01*
X111235714Y-82689523D02*
X111902380Y-82689523D01*
X110854761Y-82927619D02*
X111569047Y-83165714D01*
X111569047Y-82546666D01*
%TO.C,D3*%
X111902380Y-78378095D02*
X110902380Y-78378095D01*
X110902380Y-78140000D01*
X110950000Y-77997142D01*
X111045238Y-77901904D01*
X111140476Y-77854285D01*
X111330952Y-77806666D01*
X111473809Y-77806666D01*
X111664285Y-77854285D01*
X111759523Y-77901904D01*
X111854761Y-77997142D01*
X111902380Y-78140000D01*
X111902380Y-78378095D01*
X110902380Y-77473333D02*
X110902380Y-76854285D01*
X111283333Y-77187619D01*
X111283333Y-77044761D01*
X111330952Y-76949523D01*
X111378571Y-76901904D01*
X111473809Y-76854285D01*
X111711904Y-76854285D01*
X111807142Y-76901904D01*
X111854761Y-76949523D01*
X111902380Y-77044761D01*
X111902380Y-77330476D01*
X111854761Y-77425714D01*
X111807142Y-77473333D01*
%TO.C,D2*%
X111902380Y-72638095D02*
X110902380Y-72638095D01*
X110902380Y-72400000D01*
X110950000Y-72257142D01*
X111045238Y-72161904D01*
X111140476Y-72114285D01*
X111330952Y-72066666D01*
X111473809Y-72066666D01*
X111664285Y-72114285D01*
X111759523Y-72161904D01*
X111854761Y-72257142D01*
X111902380Y-72400000D01*
X111902380Y-72638095D01*
X110997619Y-71685714D02*
X110950000Y-71638095D01*
X110902380Y-71542857D01*
X110902380Y-71304761D01*
X110950000Y-71209523D01*
X110997619Y-71161904D01*
X111092857Y-71114285D01*
X111188095Y-71114285D01*
X111330952Y-71161904D01*
X111902380Y-71733333D01*
X111902380Y-71114285D01*
%TO.C,J10*%
X166240476Y-71897380D02*
X166240476Y-72611666D01*
X166192857Y-72754523D01*
X166097619Y-72849761D01*
X165954761Y-72897380D01*
X165859523Y-72897380D01*
X167240476Y-72897380D02*
X166669047Y-72897380D01*
X166954761Y-72897380D02*
X166954761Y-71897380D01*
X166859523Y-72040238D01*
X166764285Y-72135476D01*
X166669047Y-72183095D01*
X167859523Y-71897380D02*
X167954761Y-71897380D01*
X168050000Y-71945000D01*
X168097619Y-71992619D01*
X168145238Y-72087857D01*
X168192857Y-72278333D01*
X168192857Y-72516428D01*
X168145238Y-72706904D01*
X168097619Y-72802142D01*
X168050000Y-72849761D01*
X167954761Y-72897380D01*
X167859523Y-72897380D01*
X167764285Y-72849761D01*
X167716666Y-72802142D01*
X167669047Y-72706904D01*
X167621428Y-72516428D01*
X167621428Y-72278333D01*
X167669047Y-72087857D01*
X167716666Y-71992619D01*
X167764285Y-71945000D01*
X167859523Y-71897380D01*
%TO.C,J8*%
X154016666Y-71897380D02*
X154016666Y-72611666D01*
X153969047Y-72754523D01*
X153873809Y-72849761D01*
X153730952Y-72897380D01*
X153635714Y-72897380D01*
X154635714Y-72325952D02*
X154540476Y-72278333D01*
X154492857Y-72230714D01*
X154445238Y-72135476D01*
X154445238Y-72087857D01*
X154492857Y-71992619D01*
X154540476Y-71945000D01*
X154635714Y-71897380D01*
X154826190Y-71897380D01*
X154921428Y-71945000D01*
X154969047Y-71992619D01*
X155016666Y-72087857D01*
X155016666Y-72135476D01*
X154969047Y-72230714D01*
X154921428Y-72278333D01*
X154826190Y-72325952D01*
X154635714Y-72325952D01*
X154540476Y-72373571D01*
X154492857Y-72421190D01*
X154445238Y-72516428D01*
X154445238Y-72706904D01*
X154492857Y-72802142D01*
X154540476Y-72849761D01*
X154635714Y-72897380D01*
X154826190Y-72897380D01*
X154921428Y-72849761D01*
X154969047Y-72802142D01*
X155016666Y-72706904D01*
X155016666Y-72516428D01*
X154969047Y-72421190D01*
X154921428Y-72373571D01*
X154826190Y-72325952D01*
%TO.C,J5*%
X120106666Y-107357380D02*
X120106666Y-108071666D01*
X120059047Y-108214523D01*
X119963809Y-108309761D01*
X119820952Y-108357380D01*
X119725714Y-108357380D01*
X121059047Y-107357380D02*
X120582857Y-107357380D01*
X120535238Y-107833571D01*
X120582857Y-107785952D01*
X120678095Y-107738333D01*
X120916190Y-107738333D01*
X121011428Y-107785952D01*
X121059047Y-107833571D01*
X121106666Y-107928809D01*
X121106666Y-108166904D01*
X121059047Y-108262142D01*
X121011428Y-108309761D01*
X120916190Y-108357380D01*
X120678095Y-108357380D01*
X120582857Y-108309761D01*
X120535238Y-108262142D01*
%TO.C,J3*%
X134016666Y-107357380D02*
X134016666Y-108071666D01*
X133969047Y-108214523D01*
X133873809Y-108309761D01*
X133730952Y-108357380D01*
X133635714Y-108357380D01*
X134397619Y-107357380D02*
X135016666Y-107357380D01*
X134683333Y-107738333D01*
X134826190Y-107738333D01*
X134921428Y-107785952D01*
X134969047Y-107833571D01*
X135016666Y-107928809D01*
X135016666Y-108166904D01*
X134969047Y-108262142D01*
X134921428Y-108309761D01*
X134826190Y-108357380D01*
X134540476Y-108357380D01*
X134445238Y-108309761D01*
X134397619Y-108262142D01*
%TO.C,U1*%
X160552380Y-87011904D02*
X161361904Y-87011904D01*
X161457142Y-86964285D01*
X161504761Y-86916666D01*
X161552380Y-86821428D01*
X161552380Y-86630952D01*
X161504761Y-86535714D01*
X161457142Y-86488095D01*
X161361904Y-86440476D01*
X160552380Y-86440476D01*
X161552380Y-85440476D02*
X161552380Y-86011904D01*
X161552380Y-85726190D02*
X160552380Y-85726190D01*
X160695238Y-85821428D01*
X160790476Y-85916666D01*
X160838095Y-86011904D01*
%TO.C,SW3*%
X150916666Y-106104761D02*
X151059523Y-106152380D01*
X151297619Y-106152380D01*
X151392857Y-106104761D01*
X151440476Y-106057142D01*
X151488095Y-105961904D01*
X151488095Y-105866666D01*
X151440476Y-105771428D01*
X151392857Y-105723809D01*
X151297619Y-105676190D01*
X151107142Y-105628571D01*
X151011904Y-105580952D01*
X150964285Y-105533333D01*
X150916666Y-105438095D01*
X150916666Y-105342857D01*
X150964285Y-105247619D01*
X151011904Y-105200000D01*
X151107142Y-105152380D01*
X151345238Y-105152380D01*
X151488095Y-105200000D01*
X151821428Y-105152380D02*
X152059523Y-106152380D01*
X152250000Y-105438095D01*
X152440476Y-106152380D01*
X152678571Y-105152380D01*
X152964285Y-105152380D02*
X153583333Y-105152380D01*
X153250000Y-105533333D01*
X153392857Y-105533333D01*
X153488095Y-105580952D01*
X153535714Y-105628571D01*
X153583333Y-105723809D01*
X153583333Y-105961904D01*
X153535714Y-106057142D01*
X153488095Y-106104761D01*
X153392857Y-106152380D01*
X153107142Y-106152380D01*
X153011904Y-106104761D01*
X152964285Y-106057142D01*
%TO.C,SW2*%
X150916666Y-99904761D02*
X151059523Y-99952380D01*
X151297619Y-99952380D01*
X151392857Y-99904761D01*
X151440476Y-99857142D01*
X151488095Y-99761904D01*
X151488095Y-99666666D01*
X151440476Y-99571428D01*
X151392857Y-99523809D01*
X151297619Y-99476190D01*
X151107142Y-99428571D01*
X151011904Y-99380952D01*
X150964285Y-99333333D01*
X150916666Y-99238095D01*
X150916666Y-99142857D01*
X150964285Y-99047619D01*
X151011904Y-99000000D01*
X151107142Y-98952380D01*
X151345238Y-98952380D01*
X151488095Y-99000000D01*
X151821428Y-98952380D02*
X152059523Y-99952380D01*
X152250000Y-99238095D01*
X152440476Y-99952380D01*
X152678571Y-98952380D01*
X153011904Y-99047619D02*
X153059523Y-99000000D01*
X153154761Y-98952380D01*
X153392857Y-98952380D01*
X153488095Y-99000000D01*
X153535714Y-99047619D01*
X153583333Y-99142857D01*
X153583333Y-99238095D01*
X153535714Y-99380952D01*
X152964285Y-99952380D01*
X153583333Y-99952380D01*
%TO.C,FID3*%
D13*
X172315714Y-102705714D02*
X172249047Y-102705714D01*
X172249047Y-102810476D02*
X172249047Y-102610476D01*
X172344285Y-102610476D01*
X172420476Y-102810476D02*
X172420476Y-102610476D01*
X172515714Y-102810476D02*
X172515714Y-102610476D01*
X172563333Y-102610476D01*
X172591904Y-102620000D01*
X172610952Y-102639047D01*
X172620476Y-102658095D01*
X172630000Y-102696190D01*
X172630000Y-102724761D01*
X172620476Y-102762857D01*
X172610952Y-102781904D01*
X172591904Y-102800952D01*
X172563333Y-102810476D01*
X172515714Y-102810476D01*
X172696666Y-102610476D02*
X172820476Y-102610476D01*
X172753809Y-102686666D01*
X172782380Y-102686666D01*
X172801428Y-102696190D01*
X172810952Y-102705714D01*
X172820476Y-102724761D01*
X172820476Y-102772380D01*
X172810952Y-102791428D01*
X172801428Y-102800952D01*
X172782380Y-102810476D01*
X172725238Y-102810476D01*
X172706190Y-102800952D01*
X172696666Y-102791428D01*
%TO.C,FID2*%
X116785714Y-63485714D02*
X116719047Y-63485714D01*
X116719047Y-63590476D02*
X116719047Y-63390476D01*
X116814285Y-63390476D01*
X116890476Y-63590476D02*
X116890476Y-63390476D01*
X116985714Y-63590476D02*
X116985714Y-63390476D01*
X117033333Y-63390476D01*
X117061904Y-63400000D01*
X117080952Y-63419047D01*
X117090476Y-63438095D01*
X117100000Y-63476190D01*
X117100000Y-63504761D01*
X117090476Y-63542857D01*
X117080952Y-63561904D01*
X117061904Y-63580952D01*
X117033333Y-63590476D01*
X116985714Y-63590476D01*
X117176190Y-63409523D02*
X117185714Y-63400000D01*
X117204761Y-63390476D01*
X117252380Y-63390476D01*
X117271428Y-63400000D01*
X117280952Y-63409523D01*
X117290476Y-63428571D01*
X117290476Y-63447619D01*
X117280952Y-63476190D01*
X117166666Y-63590476D01*
X117290476Y-63590476D01*
%TO.C,FID1*%
X173565714Y-68705714D02*
X173499047Y-68705714D01*
X173499047Y-68810476D02*
X173499047Y-68610476D01*
X173594285Y-68610476D01*
X173670476Y-68810476D02*
X173670476Y-68610476D01*
X173765714Y-68810476D02*
X173765714Y-68610476D01*
X173813333Y-68610476D01*
X173841904Y-68620000D01*
X173860952Y-68639047D01*
X173870476Y-68658095D01*
X173880000Y-68696190D01*
X173880000Y-68724761D01*
X173870476Y-68762857D01*
X173860952Y-68781904D01*
X173841904Y-68800952D01*
X173813333Y-68810476D01*
X173765714Y-68810476D01*
X174070476Y-68810476D02*
X173956190Y-68810476D01*
X174013333Y-68810476D02*
X174013333Y-68610476D01*
X173994285Y-68639047D01*
X173975238Y-68658095D01*
X173956190Y-68667619D01*
%TO.C,J4*%
D12*
X129566666Y-107352380D02*
X129566666Y-108066666D01*
X129519047Y-108209523D01*
X129423809Y-108304761D01*
X129280952Y-108352380D01*
X129185714Y-108352380D01*
X130471428Y-107685714D02*
X130471428Y-108352380D01*
X130233333Y-107304761D02*
X129995238Y-108019047D01*
X130614285Y-108019047D01*
%TO.C,J6*%
X124566666Y-107352380D02*
X124566666Y-108066666D01*
X124519047Y-108209523D01*
X124423809Y-108304761D01*
X124280952Y-108352380D01*
X124185714Y-108352380D01*
X125471428Y-107352380D02*
X125280952Y-107352380D01*
X125185714Y-107400000D01*
X125138095Y-107447619D01*
X125042857Y-107590476D01*
X124995238Y-107780952D01*
X124995238Y-108161904D01*
X125042857Y-108257142D01*
X125090476Y-108304761D01*
X125185714Y-108352380D01*
X125376190Y-108352380D01*
X125471428Y-108304761D01*
X125519047Y-108257142D01*
X125566666Y-108161904D01*
X125566666Y-107923809D01*
X125519047Y-107828571D01*
X125471428Y-107780952D01*
X125376190Y-107733333D01*
X125185714Y-107733333D01*
X125090476Y-107780952D01*
X125042857Y-107828571D01*
X124995238Y-107923809D01*
%TO.C,J1*%
X171152380Y-99158333D02*
X171866666Y-99158333D01*
X172009523Y-99205952D01*
X172104761Y-99301190D01*
X172152380Y-99444047D01*
X172152380Y-99539285D01*
X172152380Y-98158333D02*
X172152380Y-98729761D01*
X172152380Y-98444047D02*
X171152380Y-98444047D01*
X171295238Y-98539285D01*
X171390476Y-98634523D01*
X171438095Y-98729761D01*
%TO.C,R14*%
D13*
X130017619Y-104837142D02*
X129893809Y-104923809D01*
X130017619Y-104985714D02*
X129757619Y-104985714D01*
X129757619Y-104886666D01*
X129770000Y-104861904D01*
X129782380Y-104849523D01*
X129807142Y-104837142D01*
X129844285Y-104837142D01*
X129869047Y-104849523D01*
X129881428Y-104861904D01*
X129893809Y-104886666D01*
X129893809Y-104985714D01*
X130017619Y-104589523D02*
X130017619Y-104738095D01*
X130017619Y-104663809D02*
X129757619Y-104663809D01*
X129794761Y-104688571D01*
X129819523Y-104713333D01*
X129831904Y-104738095D01*
X129844285Y-104366666D02*
X130017619Y-104366666D01*
X129745238Y-104428571D02*
X129930952Y-104490476D01*
X129930952Y-104329523D01*
%TO.C,R13*%
X130242857Y-104277619D02*
X130156190Y-104153809D01*
X130094285Y-104277619D02*
X130094285Y-104017619D01*
X130193333Y-104017619D01*
X130218095Y-104030000D01*
X130230476Y-104042380D01*
X130242857Y-104067142D01*
X130242857Y-104104285D01*
X130230476Y-104129047D01*
X130218095Y-104141428D01*
X130193333Y-104153809D01*
X130094285Y-104153809D01*
X130490476Y-104277619D02*
X130341904Y-104277619D01*
X130416190Y-104277619D02*
X130416190Y-104017619D01*
X130391428Y-104054761D01*
X130366666Y-104079523D01*
X130341904Y-104091904D01*
X130577142Y-104017619D02*
X130738095Y-104017619D01*
X130651428Y-104116666D01*
X130688571Y-104116666D01*
X130713333Y-104129047D01*
X130725714Y-104141428D01*
X130738095Y-104166190D01*
X130738095Y-104228095D01*
X130725714Y-104252857D01*
X130713333Y-104265238D01*
X130688571Y-104277619D01*
X130614285Y-104277619D01*
X130589523Y-104265238D01*
X130577142Y-104252857D01*
%TO.C,R16*%
X120782857Y-104387619D02*
X120696190Y-104263809D01*
X120634285Y-104387619D02*
X120634285Y-104127619D01*
X120733333Y-104127619D01*
X120758095Y-104140000D01*
X120770476Y-104152380D01*
X120782857Y-104177142D01*
X120782857Y-104214285D01*
X120770476Y-104239047D01*
X120758095Y-104251428D01*
X120733333Y-104263809D01*
X120634285Y-104263809D01*
X121030476Y-104387619D02*
X120881904Y-104387619D01*
X120956190Y-104387619D02*
X120956190Y-104127619D01*
X120931428Y-104164761D01*
X120906666Y-104189523D01*
X120881904Y-104201904D01*
X121253333Y-104127619D02*
X121203809Y-104127619D01*
X121179047Y-104140000D01*
X121166666Y-104152380D01*
X121141904Y-104189523D01*
X121129523Y-104239047D01*
X121129523Y-104338095D01*
X121141904Y-104362857D01*
X121154285Y-104375238D01*
X121179047Y-104387619D01*
X121228571Y-104387619D01*
X121253333Y-104375238D01*
X121265714Y-104362857D01*
X121278095Y-104338095D01*
X121278095Y-104276190D01*
X121265714Y-104251428D01*
X121253333Y-104239047D01*
X121228571Y-104226666D01*
X121179047Y-104226666D01*
X121154285Y-104239047D01*
X121141904Y-104251428D01*
X121129523Y-104276190D01*
%TO.C,R15*%
X120557619Y-104947142D02*
X120433809Y-105033809D01*
X120557619Y-105095714D02*
X120297619Y-105095714D01*
X120297619Y-104996666D01*
X120310000Y-104971904D01*
X120322380Y-104959523D01*
X120347142Y-104947142D01*
X120384285Y-104947142D01*
X120409047Y-104959523D01*
X120421428Y-104971904D01*
X120433809Y-104996666D01*
X120433809Y-105095714D01*
X120557619Y-104699523D02*
X120557619Y-104848095D01*
X120557619Y-104773809D02*
X120297619Y-104773809D01*
X120334761Y-104798571D01*
X120359523Y-104823333D01*
X120371904Y-104848095D01*
X120297619Y-104464285D02*
X120297619Y-104588095D01*
X120421428Y-104600476D01*
X120409047Y-104588095D01*
X120396666Y-104563333D01*
X120396666Y-104501428D01*
X120409047Y-104476666D01*
X120421428Y-104464285D01*
X120446190Y-104451904D01*
X120508095Y-104451904D01*
X120532857Y-104464285D01*
X120545238Y-104476666D01*
X120557619Y-104501428D01*
X120557619Y-104563333D01*
X120545238Y-104588095D01*
X120532857Y-104600476D01*
%TO.C,L2*%
D14*
X126433333Y-103680952D02*
X126242857Y-103680952D01*
X126242857Y-103280952D01*
X126547619Y-103319047D02*
X126566666Y-103300000D01*
X126604761Y-103280952D01*
X126700000Y-103280952D01*
X126738095Y-103300000D01*
X126757142Y-103319047D01*
X126776190Y-103357142D01*
X126776190Y-103395238D01*
X126757142Y-103452380D01*
X126528571Y-103680952D01*
X126776190Y-103680952D01*
%TO.C,L1*%
X117933333Y-103680952D02*
X117742857Y-103680952D01*
X117742857Y-103280952D01*
X118276190Y-103680952D02*
X118047619Y-103680952D01*
X118161904Y-103680952D02*
X118161904Y-103280952D01*
X118123809Y-103338095D01*
X118085714Y-103376190D01*
X118047619Y-103395238D01*
%TO.C,D1*%
D13*
X128893095Y-104829523D02*
X128643095Y-104829523D01*
X128643095Y-104770000D01*
X128655000Y-104734285D01*
X128678809Y-104710476D01*
X128702619Y-104698571D01*
X128750238Y-104686666D01*
X128785952Y-104686666D01*
X128833571Y-104698571D01*
X128857380Y-104710476D01*
X128881190Y-104734285D01*
X128893095Y-104770000D01*
X128893095Y-104829523D01*
X128893095Y-104448571D02*
X128893095Y-104591428D01*
X128893095Y-104520000D02*
X128643095Y-104520000D01*
X128678809Y-104543809D01*
X128702619Y-104567619D01*
X128714523Y-104591428D01*
%TO.C,C8*%
X124339285Y-104021666D02*
X124351190Y-104033571D01*
X124363095Y-104069285D01*
X124363095Y-104093095D01*
X124351190Y-104128809D01*
X124327380Y-104152619D01*
X124303571Y-104164523D01*
X124255952Y-104176428D01*
X124220238Y-104176428D01*
X124172619Y-104164523D01*
X124148809Y-104152619D01*
X124125000Y-104128809D01*
X124113095Y-104093095D01*
X124113095Y-104069285D01*
X124125000Y-104033571D01*
X124136904Y-104021666D01*
X124220238Y-103878809D02*
X124208333Y-103902619D01*
X124196428Y-103914523D01*
X124172619Y-103926428D01*
X124160714Y-103926428D01*
X124136904Y-103914523D01*
X124125000Y-103902619D01*
X124113095Y-103878809D01*
X124113095Y-103831190D01*
X124125000Y-103807380D01*
X124136904Y-103795476D01*
X124160714Y-103783571D01*
X124172619Y-103783571D01*
X124196428Y-103795476D01*
X124208333Y-103807380D01*
X124220238Y-103831190D01*
X124220238Y-103878809D01*
X124232142Y-103902619D01*
X124244047Y-103914523D01*
X124267857Y-103926428D01*
X124315476Y-103926428D01*
X124339285Y-103914523D01*
X124351190Y-103902619D01*
X124363095Y-103878809D01*
X124363095Y-103831190D01*
X124351190Y-103807380D01*
X124339285Y-103795476D01*
X124315476Y-103783571D01*
X124267857Y-103783571D01*
X124244047Y-103795476D01*
X124232142Y-103807380D01*
X124220238Y-103831190D01*
%TO.C,J2*%
D12*
X162291666Y-104382380D02*
X162291666Y-105096666D01*
X162244047Y-105239523D01*
X162148809Y-105334761D01*
X162005952Y-105382380D01*
X161910714Y-105382380D01*
X162720238Y-104477619D02*
X162767857Y-104430000D01*
X162863095Y-104382380D01*
X163101190Y-104382380D01*
X163196428Y-104430000D01*
X163244047Y-104477619D01*
X163291666Y-104572857D01*
X163291666Y-104668095D01*
X163244047Y-104810952D01*
X162672619Y-105382380D01*
X163291666Y-105382380D01*
%TO.C,J11*%
X165190476Y-64652380D02*
X165190476Y-65366666D01*
X165142857Y-65509523D01*
X165047619Y-65604761D01*
X164904761Y-65652380D01*
X164809523Y-65652380D01*
X166190476Y-65652380D02*
X165619047Y-65652380D01*
X165904761Y-65652380D02*
X165904761Y-64652380D01*
X165809523Y-64795238D01*
X165714285Y-64890476D01*
X165619047Y-64938095D01*
X167142857Y-65652380D02*
X166571428Y-65652380D01*
X166857142Y-65652380D02*
X166857142Y-64652380D01*
X166761904Y-64795238D01*
X166666666Y-64890476D01*
X166571428Y-64938095D01*
%TO.C,J9*%
X137666666Y-64652380D02*
X137666666Y-65366666D01*
X137619047Y-65509523D01*
X137523809Y-65604761D01*
X137380952Y-65652380D01*
X137285714Y-65652380D01*
X138190476Y-65652380D02*
X138380952Y-65652380D01*
X138476190Y-65604761D01*
X138523809Y-65557142D01*
X138619047Y-65414285D01*
X138666666Y-65223809D01*
X138666666Y-64842857D01*
X138619047Y-64747619D01*
X138571428Y-64700000D01*
X138476190Y-64652380D01*
X138285714Y-64652380D01*
X138190476Y-64700000D01*
X138142857Y-64747619D01*
X138095238Y-64842857D01*
X138095238Y-65080952D01*
X138142857Y-65176190D01*
X138190476Y-65223809D01*
X138285714Y-65271428D01*
X138476190Y-65271428D01*
X138571428Y-65223809D01*
X138619047Y-65176190D01*
X138666666Y-65080952D01*
%TO.C,J14*%
X123190476Y-64652380D02*
X123190476Y-65366666D01*
X123142857Y-65509523D01*
X123047619Y-65604761D01*
X122904761Y-65652380D01*
X122809523Y-65652380D01*
X124190476Y-65652380D02*
X123619047Y-65652380D01*
X123904761Y-65652380D02*
X123904761Y-64652380D01*
X123809523Y-64795238D01*
X123714285Y-64890476D01*
X123619047Y-64938095D01*
X125047619Y-64985714D02*
X125047619Y-65652380D01*
X124809523Y-64604761D02*
X124571428Y-65319047D01*
X125190476Y-65319047D01*
%TD*%
M02*
